<svg xmlns="http://www.w3.org/2000/svg" xmlns:xlink="http://www.w3.org/1999/xlink" width="40" zoomAndPan="magnify" viewBox="0 0 30 30.000001" height="40" preserveAspectRatio="xMidYMid meet" version="1.0"><defs><g/><clipPath id="198dc42c12"><path d="M 0.90625 8 L 9 8 L 9 20.957031 L 0.90625 20.957031 Z M 0.90625 8 " clip-rule="nonzero"/></clipPath><clipPath id="47863f42c4"><path d="M 21 8 L 29.210938 8 L 29.210938 20.957031 L 21 20.957031 Z M 21 8 " clip-rule="nonzero"/></clipPath><clipPath id="572559787a"><path d="M 8 7.890625 L 22 7.890625 L 22 20.957031 L 8 20.957031 Z M 8 7.890625 " clip-rule="nonzero"/></clipPath></defs><g clip-path="url(#198dc42c12)"><path fill="#15bada" d="M 8.253906 20.460938 C 6.855469 18.875 6.007812 16.792969 6.007812 14.515625 C 6.007812 12.234375 6.855469 10.152344 8.253906 8.570312 C 7.679688 8.800781 7.125 9.0625 6.589844 9.347656 C 4.230469 10.613281 2.269531 12.394531 0.90625 14.515625 C 2.269531 16.632812 4.230469 18.414062 6.589844 19.679688 C 7.125 19.96875 7.679688 20.226562 8.253906 20.460938 Z M 8.253906 20.460938 " fill-opacity="1" fill-rule="nonzero"/></g><g clip-path="url(#47863f42c4)"><path fill="#15bada" d="M 21.738281 8.570312 C 23.136719 10.152344 23.984375 12.234375 23.984375 14.515625 C 23.984375 16.792969 23.136719 18.875 21.738281 20.460938 C 22.3125 20.226562 22.867188 19.96875 23.402344 19.679688 C 25.761719 18.414062 27.722656 16.632812 29.085938 14.515625 C 27.722656 12.394531 25.761719 10.613281 23.402344 9.347656 C 22.867188 9.0625 22.3125 8.800781 21.738281 8.570312 Z M 21.738281 8.570312 " fill-opacity="1" fill-rule="nonzero"/></g><g clip-path="url(#572559787a)"><path fill="#004aad" d="M 17.378906 12.820312 C 17.820312 12.820312 18.175781 13.175781 18.175781 13.613281 C 18.175781 14.050781 17.820312 14.40625 17.378906 14.40625 C 16.941406 14.40625 16.585938 14.050781 16.585938 13.613281 C 16.585938 13.175781 16.941406 12.820312 17.378906 12.820312 Z M 14.996094 7.898438 C 16.300781 7.898438 17.519531 8.277344 18.546875 8.929688 C 17.957031 9.15625 17.542969 9.730469 17.542969 10.398438 C 17.542969 11.265625 18.246094 11.96875 19.113281 11.96875 C 19.78125 11.96875 20.351562 11.554688 20.582031 10.964844 C 21.234375 11.992188 21.613281 13.210938 21.613281 14.515625 C 21.613281 18.167969 18.648438 21.132812 14.996094 21.132812 C 11.34375 21.132812 8.378906 18.167969 8.378906 14.515625 C 8.378906 10.859375 11.34375 7.898438 14.996094 7.898438 Z M 14.996094 7.898438 " fill-opacity="1" fill-rule="evenodd"/></g><g fill="#004aad" fill-opacity="1"><g transform="translate(14.213219, 15.464674)"><g><path d="M 0.765625 0.0625 C 0.597656 0.0625 0.472656 0.0078125 0.390625 -0.09375 C 0.304688 -0.195312 0.265625 -0.316406 0.265625 -0.453125 C 0.265625 -0.597656 0.304688 -0.71875 0.390625 -0.8125 C 0.484375 -0.914062 0.609375 -0.96875 0.765625 -0.96875 C 0.929688 -0.96875 1.0625 -0.925781 1.15625 -0.84375 C 1.25 -0.757812 1.296875 -0.632812 1.296875 -0.46875 C 1.296875 -0.300781 1.25 -0.171875 1.15625 -0.078125 C 1.070312 0.015625 0.941406 0.0625 0.765625 0.0625 Z M 0.765625 0.0625 "/></g></g></g></svg>