<svg xmlns="http://www.w3.org/2000/svg" xmlns:xlink="http://www.w3.org/1999/xlink" width="900" zoomAndPan="magnify" viewBox="0 0 675 112.499997" height="150" preserveAspectRatio="xMidYMid meet" version="1.0"><defs><g/><clipPath id="eb112e86b8"><path d="M 608.046875 74 L 622 74 L 622 97 L 608.046875 97 Z M 608.046875 74 " clip-rule="nonzero"/></clipPath><clipPath id="be64b1bdcf"><path d="M 647 74 L 661.808594 74 L 661.808594 97 L 647 97 Z M 647 74 " clip-rule="nonzero"/></clipPath><clipPath id="6866e8c403"><path d="M 622 73.113281 L 648 73.113281 L 648 98.5 L 622 98.5 Z M 622 73.113281 " clip-rule="nonzero"/></clipPath><clipPath id="cb8dcb46da"><path d="M 142.78125 74 L 157 74 L 157 97 L 142.78125 97 Z M 142.78125 74 " clip-rule="nonzero"/></clipPath><clipPath id="711de11f27"><path d="M 182 74 L 196.542969 74 L 196.542969 97 L 182 97 Z M 182 74 " clip-rule="nonzero"/></clipPath><clipPath id="10bc5d702d"><path d="M 156 73.113281 L 183 73.113281 L 183 98.5 L 156 98.5 Z M 156 73.113281 " clip-rule="nonzero"/></clipPath></defs><g fill="#15bada" fill-opacity="1"><g transform="translate(171.030308, 61.592205)"><g><path d="M 8.03125 0.265625 C 6.5 0.265625 5.125 -0.304688 3.90625 -1.453125 C 2.695312 -2.597656 2.09375 -4.546875 2.09375 -7.296875 C 2.09375 -9.097656 2.347656 -11.097656 2.859375 -13.296875 C 3.378906 -15.503906 4.007812 -17.789062 4.75 -20.15625 C 5.5 -22.519531 6.253906 -24.804688 7.015625 -27.015625 C 7.785156 -29.222656 8.414062 -31.222656 8.90625 -33.015625 C 9.40625 -34.816406 9.65625 -36.238281 9.65625 -37.28125 C 9.65625 -38.488281 9.179688 -39.09375 8.234375 -39.09375 C 7.109375 -39.09375 6.050781 -38.453125 5.0625 -37.171875 C 4.070312 -35.890625 2.96875 -34.101562 1.75 -31.8125 L 1.34375 -31.9375 C 1.34375 -35.5 2.285156 -38.59375 4.171875 -41.21875 C 6.066406 -43.851562 8.625 -45.890625 11.84375 -47.328125 C 15.070312 -48.773438 18.664062 -49.5 22.625 -49.5 C 26.632812 -49.5 29.882812 -48.8125 32.375 -47.4375 C 34.875 -46.0625 36.71875 -44.28125 37.90625 -42.09375 C 39.101562 -39.914062 39.703125 -37.585938 39.703125 -35.109375 C 39.703125 -32.992188 39.304688 -30.890625 38.515625 -28.796875 C 37.734375 -26.703125 36.609375 -24.800781 35.140625 -23.09375 C 33.679688 -21.382812 31.960938 -20.007812 29.984375 -18.96875 C 28.003906 -17.9375 25.820312 -17.421875 23.4375 -17.421875 C 20.957031 -17.421875 18.390625 -18.050781 15.734375 -19.3125 C 15.148438 -17.101562 14.628906 -14.863281 14.171875 -12.59375 C 13.722656 -10.320312 13.5 -7.992188 13.5 -5.609375 C 13.5 -4.429688 13.566406 -3.257812 13.703125 -2.09375 C 12.941406 -1.332031 12.050781 -0.75 11.03125 -0.34375 C 10.019531 0.0625 9.019531 0.265625 8.03125 0.265625 Z M 18.84375 -24.171875 C 20.644531 -24.171875 22.21875 -24.675781 23.5625 -25.6875 C 24.914062 -26.707031 25.960938 -27.992188 26.703125 -29.546875 C 27.453125 -31.097656 27.828125 -32.660156 27.828125 -34.234375 C 27.828125 -36.078125 27.226562 -37.71875 26.03125 -39.15625 C 24.84375 -40.601562 22.894531 -41.328125 20.1875 -41.328125 C 19.832031 -41.328125 19.414062 -41.300781 18.9375 -41.25 C 18.46875 -41.207031 17.984375 -41.144531 17.484375 -41.0625 C 17.847656 -39.9375 18.085938 -38.820312 18.203125 -37.71875 C 18.316406 -36.613281 18.375 -35.546875 18.375 -34.515625 C 18.375 -32.710938 18.238281 -30.976562 17.96875 -29.3125 C 17.695312 -27.644531 17.378906 -26 17.015625 -24.375 C 17.648438 -24.238281 18.257812 -24.171875 18.84375 -24.171875 Z M 18.84375 -24.171875 "/></g></g></g><g fill="#15bada" fill-opacity="1"><g transform="translate(212.408606, 61.592205)"><g><path d="M 9.921875 0.265625 C 8.304688 0.265625 6.867188 -0.394531 5.609375 -1.71875 C 4.347656 -3.050781 3.71875 -4.929688 3.71875 -7.359375 C 3.71875 -8.523438 3.851562 -9.851562 4.125 -11.34375 C 4.394531 -12.832031 4.707031 -14.351562 5.0625 -15.90625 C 5.425781 -17.457031 5.742188 -18.921875 6.015625 -20.296875 C 6.285156 -21.671875 6.421875 -22.804688 6.421875 -23.703125 C 6.421875 -24.648438 6.25 -25.40625 5.90625 -25.96875 C 5.570312 -26.53125 5.132812 -26.8125 4.59375 -26.8125 C 3.738281 -26.8125 2.859375 -26.222656 1.953125 -25.046875 L 1.546875 -25.328125 C 1.503906 -26.046875 1.660156 -26.898438 2.015625 -27.890625 C 2.378906 -28.878906 2.941406 -29.832031 3.703125 -30.75 C 4.472656 -31.675781 5.453125 -32.453125 6.640625 -33.078125 C 7.835938 -33.710938 9.25 -34.03125 10.875 -34.03125 C 13.257812 -34.03125 14.988281 -33.34375 16.0625 -31.96875 C 17.144531 -30.601562 17.6875 -28.953125 17.6875 -27.015625 C 17.6875 -26.703125 17.675781 -26.375 17.65625 -26.03125 C 17.632812 -25.695312 17.601562 -25.367188 17.5625 -25.046875 C 19.175781 -27.972656 20.875 -30.210938 22.65625 -31.765625 C 24.4375 -33.328125 26.09375 -34.109375 27.625 -34.109375 C 29.0625 -34.109375 30.117188 -33.546875 30.796875 -32.421875 C 31.472656 -31.296875 31.8125 -29.941406 31.8125 -28.359375 C 31.8125 -26.921875 31.53125 -25.457031 30.96875 -23.96875 C 30.40625 -22.488281 29.570312 -21.265625 28.46875 -20.296875 C 27.363281 -19.328125 26.023438 -18.863281 24.453125 -18.90625 L 24.171875 -19.046875 C 24.128906 -20.210938 23.75 -21.132812 23.03125 -21.8125 C 22.3125 -22.488281 21.5 -22.828125 20.59375 -22.828125 C 19.382812 -22.828125 18.25 -22.21875 17.1875 -21 C 16.125 -19.78125 15.59375 -18.023438 15.59375 -15.734375 C 15.59375 -14.335938 15.75 -12.828125 16.0625 -11.203125 C 16.382812 -9.585938 16.546875 -8.21875 16.546875 -7.09375 C 16.546875 -5.738281 16.226562 -4.5 15.59375 -3.375 C 14.96875 -2.25 14.160156 -1.359375 13.171875 -0.703125 C 12.179688 -0.0546875 11.097656 0.265625 9.921875 0.265625 Z M 9.921875 0.265625 "/></g></g></g><g fill="#15bada" fill-opacity="1"><g transform="translate(244.201698, 61.592205)"><g><path d="M 16.546875 0.46875 C 13.253906 0.46875 10.523438 -0.191406 8.359375 -1.515625 C 6.203125 -2.847656 4.582031 -4.601562 3.5 -6.78125 C 2.425781 -8.96875 1.890625 -11.320312 1.890625 -13.84375 C 1.890625 -16.226562 2.347656 -18.625 3.265625 -21.03125 C 4.191406 -23.445312 5.546875 -25.644531 7.328125 -27.625 C 9.109375 -29.601562 11.269531 -31.195312 13.8125 -32.40625 C 16.351562 -33.625 19.222656 -34.234375 22.421875 -34.234375 C 26.378906 -34.234375 29.269531 -33.34375 31.09375 -31.5625 C 32.914062 -29.789062 33.828125 -27.644531 33.828125 -25.125 C 33.828125 -22.957031 33.253906 -20.960938 32.109375 -19.140625 C 30.960938 -17.316406 29.441406 -15.851562 27.546875 -14.75 C 25.660156 -13.644531 23.59375 -13.09375 21.34375 -13.09375 C 20.164062 -13.09375 18.96875 -13.273438 17.75 -13.640625 C 16.539062 -14.003906 15.351562 -14.566406 14.1875 -15.328125 C 14.40625 -12.535156 15.210938 -10.507812 16.609375 -9.25 C 18.003906 -7.988281 19.671875 -7.359375 21.609375 -7.359375 C 22.960938 -7.359375 24.3125 -7.617188 25.65625 -8.140625 C 27.007812 -8.660156 28.257812 -9.332031 29.40625 -10.15625 C 30.550781 -10.988281 31.441406 -11.878906 32.078125 -12.828125 L 32.546875 -12.5 C 32.546875 -10.15625 32.0625 -8.160156 31.09375 -6.515625 C 30.125 -4.867188 28.851562 -3.53125 27.28125 -2.5 C 25.707031 -1.46875 23.984375 -0.710938 22.109375 -0.234375 C 20.242188 0.234375 18.390625 0.46875 16.546875 0.46875 Z M 18.09375 -17.765625 C 19.539062 -17.765625 20.710938 -18.179688 21.609375 -19.015625 C 22.503906 -19.847656 23.175781 -20.828125 23.625 -21.953125 C 24.082031 -23.078125 24.3125 -24.066406 24.3125 -24.921875 C 24.3125 -25.953125 24.019531 -26.816406 23.4375 -27.515625 C 22.851562 -28.210938 22.039062 -28.5625 21 -28.5625 C 20.1875 -28.5625 19.296875 -28.269531 18.328125 -27.6875 C 17.367188 -27.101562 16.503906 -26.101562 15.734375 -24.6875 C 14.972656 -23.269531 14.476562 -21.300781 14.25 -18.78125 C 15.6875 -18.101562 16.96875 -17.765625 18.09375 -17.765625 Z M 18.09375 -17.765625 "/></g></g></g><g fill="#15bada" fill-opacity="1"><g transform="translate(279.369863, 61.592205)"><g><path d="M 15.0625 0.46875 C 12.09375 0.46875 9.582031 -0.203125 7.53125 -1.546875 C 5.476562 -2.898438 3.929688 -4.664062 2.890625 -6.84375 C 1.859375 -9.03125 1.34375 -11.382812 1.34375 -13.90625 C 1.34375 -16.289062 1.804688 -18.675781 2.734375 -21.0625 C 3.660156 -23.457031 5.019531 -25.65625 6.8125 -27.65625 C 8.613281 -29.65625 10.804688 -31.25 13.390625 -32.4375 C 15.984375 -33.632812 18.972656 -34.234375 22.359375 -34.234375 C 25.679688 -34.234375 28.15625 -33.566406 29.78125 -32.234375 C 31.40625 -30.910156 32.21875 -29.460938 32.21875 -27.890625 C 32.21875 -26.222656 31.382812 -24.691406 29.71875 -23.296875 C 28.050781 -21.898438 25.617188 -21.203125 22.421875 -21.203125 C 22.597656 -21.878906 22.742188 -22.566406 22.859375 -23.265625 C 22.972656 -23.960938 23.03125 -24.625 23.03125 -25.25 C 23.03125 -26.195312 22.828125 -27 22.421875 -27.65625 C 22.015625 -28.3125 21.296875 -28.640625 20.265625 -28.640625 C 19.316406 -28.640625 18.3125 -28.207031 17.25 -27.34375 C 16.195312 -26.488281 15.296875 -25.226562 14.546875 -23.5625 C 13.804688 -21.894531 13.4375 -19.847656 13.4375 -17.421875 C 13.4375 -15.035156 13.828125 -13.097656 14.609375 -11.609375 C 15.398438 -10.128906 16.425781 -9.0625 17.6875 -8.40625 C 18.945312 -7.75 20.273438 -7.421875 21.671875 -7.421875 C 23.523438 -7.421875 25.304688 -7.90625 27.015625 -8.875 C 28.722656 -9.84375 29.960938 -11.1875 30.734375 -12.90625 L 31.40625 -12.625 C 31.40625 -10.28125 30.875 -8.285156 29.8125 -6.640625 C 28.757812 -5.003906 27.398438 -3.65625 25.734375 -2.59375 C 24.066406 -1.539062 22.285156 -0.765625 20.390625 -0.265625 C 18.503906 0.222656 16.726562 0.46875 15.0625 0.46875 Z M 15.0625 0.46875 "/></g></g></g><g fill="#15bada" fill-opacity="1"><g transform="translate(312.378003, 61.592205)"><g><path d="M 14.71875 -36.125 C 12.914062 -36.125 11.441406 -36.675781 10.296875 -37.78125 C 9.148438 -38.882812 8.578125 -40.269531 8.578125 -41.9375 C 8.578125 -43.738281 9.25 -45.289062 10.59375 -46.59375 C 11.945312 -47.90625 13.59375 -48.5625 15.53125 -48.5625 C 17.332031 -48.5625 18.804688 -47.992188 19.953125 -46.859375 C 21.097656 -45.734375 21.671875 -44.34375 21.671875 -42.6875 C 21.671875 -40.882812 20.992188 -39.335938 19.640625 -38.046875 C 18.296875 -36.765625 16.65625 -36.125 14.71875 -36.125 Z M 10 0.265625 C 8.238281 0.265625 6.660156 -0.347656 5.265625 -1.578125 C 3.867188 -2.816406 3.171875 -4.8125 3.171875 -7.5625 C 3.171875 -9.132812 3.382812 -10.609375 3.8125 -11.984375 C 4.238281 -13.359375 4.734375 -14.695312 5.296875 -16 C 5.859375 -17.3125 6.351562 -18.582031 6.78125 -19.8125 C 7.207031 -21.050781 7.421875 -22.28125 7.421875 -23.5 C 7.421875 -24.582031 7.238281 -25.359375 6.875 -25.828125 C 6.519531 -26.304688 6.097656 -26.546875 5.609375 -26.546875 C 4.835938 -26.546875 4.09375 -26.046875 3.375 -25.046875 L 2.90625 -25.328125 C 3.082031 -27.128906 3.65625 -28.671875 4.625 -29.953125 C 5.59375 -31.234375 6.785156 -32.234375 8.203125 -32.953125 C 9.617188 -33.671875 11.023438 -34.03125 12.421875 -34.03125 C 14.128906 -34.03125 15.613281 -33.476562 16.875 -32.375 C 18.144531 -31.28125 18.78125 -29.492188 18.78125 -27.015625 C 18.78125 -25.523438 18.5625 -23.957031 18.125 -22.3125 C 17.695312 -20.675781 17.203125 -19.046875 16.640625 -17.421875 C 16.078125 -15.796875 15.582031 -14.285156 15.15625 -12.890625 C 14.726562 -11.503906 14.515625 -10.3125 14.515625 -9.3125 C 14.515625 -8.457031 14.679688 -7.847656 15.015625 -7.484375 C 15.359375 -7.128906 15.734375 -6.953125 16.140625 -6.953125 C 16.546875 -6.953125 16.9375 -7.078125 17.3125 -7.328125 C 17.695312 -7.578125 17.984375 -7.859375 18.171875 -8.171875 L 18.640625 -8.03125 C 18.640625 -6.363281 18.195312 -4.910156 17.3125 -3.671875 C 16.4375 -2.441406 15.347656 -1.476562 14.046875 -0.78125 C 12.742188 -0.0820312 11.394531 0.265625 10 0.265625 Z M 10 0.265625 "/></g></g></g><g fill="#15bada" fill-opacity="1"><g transform="translate(334.315914, 61.592205)"><g><path d="M 16.75 0.46875 C 13.375 0.46875 10.582031 -0.203125 8.375 -1.546875 C 6.164062 -2.898438 4.53125 -4.691406 3.46875 -6.921875 C 2.414062 -9.148438 1.890625 -11.523438 1.890625 -14.046875 C 1.890625 -16.429688 2.328125 -18.816406 3.203125 -21.203125 C 4.085938 -23.585938 5.375 -25.757812 7.0625 -27.71875 C 8.75 -29.675781 10.804688 -31.25 13.234375 -32.4375 C 15.671875 -33.632812 18.460938 -34.234375 21.609375 -34.234375 C 24.984375 -34.234375 27.757812 -33.546875 29.9375 -32.171875 C 32.125 -30.804688 33.75 -28.992188 34.8125 -26.734375 C 35.875 -24.484375 36.40625 -22.078125 36.40625 -19.515625 C 36.40625 -17.171875 35.972656 -14.816406 35.109375 -12.453125 C 34.253906 -10.097656 32.984375 -7.9375 31.296875 -5.96875 C 29.609375 -4.007812 27.546875 -2.445312 25.109375 -1.28125 C 22.679688 -0.113281 19.894531 0.46875 16.75 0.46875 Z M 18.578125 -5.265625 C 19.785156 -5.265625 20.796875 -5.894531 21.609375 -7.15625 C 22.421875 -8.414062 23.03125 -10.023438 23.4375 -11.984375 C 23.84375 -13.941406 24.046875 -15.9375 24.046875 -17.96875 C 24.046875 -19.769531 23.875 -21.46875 23.53125 -23.0625 C 23.195312 -24.65625 22.691406 -25.957031 22.015625 -26.96875 C 21.335938 -27.988281 20.457031 -28.5 19.375 -28.5 C 18.207031 -28.5 17.207031 -27.867188 16.375 -26.609375 C 15.539062 -25.347656 14.921875 -23.75 14.515625 -21.8125 C 14.109375 -19.875 13.90625 -17.867188 13.90625 -15.796875 C 13.90625 -13.992188 14.070312 -12.296875 14.40625 -10.703125 C 14.75 -9.109375 15.257812 -7.800781 15.9375 -6.78125 C 16.613281 -5.769531 17.492188 -5.265625 18.578125 -5.265625 Z M 18.578125 -5.265625 "/></g></g></g><g fill="#15bada" fill-opacity="1"><g transform="translate(372.589146, 61.592205)"><g><path d="M 11 0.265625 C 8.976562 0.265625 7.28125 -0.566406 5.90625 -2.234375 C 4.53125 -3.898438 3.84375 -6.128906 3.84375 -8.921875 C 3.84375 -10.441406 4.023438 -12.082031 4.390625 -13.84375 C 4.753906 -15.601562 5.113281 -17.269531 5.46875 -18.84375 C 5.78125 -20.007812 6.035156 -21.097656 6.234375 -22.109375 C 6.441406 -23.128906 6.546875 -23.953125 6.546875 -24.578125 C 6.546875 -25.390625 6.375 -25.972656 6.03125 -26.328125 C 5.695312 -26.691406 5.304688 -26.875 4.859375 -26.875 C 4.410156 -26.875 3.960938 -26.726562 3.515625 -26.4375 C 3.066406 -26.144531 2.707031 -25.707031 2.4375 -25.125 L 1.890625 -25.328125 C 1.890625 -27.171875 2.335938 -28.742188 3.234375 -30.046875 C 4.140625 -31.359375 5.289062 -32.347656 6.6875 -33.015625 C 8.082031 -33.691406 9.5 -34.03125 10.9375 -34.03125 C 12.113281 -34.03125 13.238281 -33.796875 14.3125 -33.328125 C 15.394531 -32.859375 16.285156 -32.125 16.984375 -31.125 C 17.679688 -30.132812 18.03125 -28.898438 18.03125 -27.421875 C 18.03125 -26.515625 17.90625 -25.429688 17.65625 -24.171875 C 17.40625 -22.910156 17.125 -21.609375 16.8125 -20.265625 C 16.5 -18.867188 16.195312 -17.457031 15.90625 -16.03125 C 15.613281 -14.613281 15.46875 -13.367188 15.46875 -12.296875 C 15.46875 -11.304688 15.625 -10.492188 15.9375 -9.859375 C 16.25 -9.234375 16.722656 -8.921875 17.359375 -8.921875 C 18.523438 -8.921875 19.835938 -10 21.296875 -12.15625 C 22.765625 -14.3125 23.945312 -17.210938 24.84375 -20.859375 C 25.03125 -21.585938 25.191406 -22.351562 25.328125 -23.15625 C 25.460938 -23.96875 25.53125 -24.800781 25.53125 -25.65625 C 25.53125 -26.332031 25.484375 -27.019531 25.390625 -27.71875 C 25.296875 -28.414062 25.160156 -29.125 24.984375 -29.84375 L 24.984375 -30.328125 C 25.703125 -31.535156 26.632812 -32.453125 27.78125 -33.078125 C 28.9375 -33.710938 30.097656 -34.03125 31.265625 -34.03125 C 32.835938 -34.03125 34.253906 -33.488281 35.515625 -32.40625 C 36.773438 -31.332031 37.40625 -29.757812 37.40625 -27.6875 C 37.40625 -26.46875 37.179688 -25.054688 36.734375 -23.453125 C 36.285156 -21.859375 35.789062 -20.207031 35.25 -18.5 C 34.707031 -16.832031 34.210938 -15.1875 33.765625 -13.5625 C 33.316406 -11.945312 33.09375 -10.507812 33.09375 -9.25 C 33.09375 -7.40625 33.742188 -6.484375 35.046875 -6.484375 C 35.410156 -6.484375 35.847656 -6.582031 36.359375 -6.78125 C 36.878906 -6.988281 37.363281 -7.40625 37.8125 -8.03125 L 38.296875 -7.90625 C 38.296875 -6.28125 37.851562 -4.847656 36.96875 -3.609375 C 36.09375 -2.367188 34.976562 -1.410156 33.625 -0.734375 C 32.28125 -0.0664062 30.882812 0.265625 29.4375 0.265625 C 27.59375 0.265625 25.9375 -0.40625 24.46875 -1.75 C 23.007812 -3.101562 22.28125 -5.3125 22.28125 -8.375 L 22.28125 -8.515625 C 20.4375 -5.359375 18.523438 -3.101562 16.546875 -1.75 C 14.566406 -0.40625 12.71875 0.265625 11 0.265625 Z M 11 0.265625 "/></g></g></g><g fill="#15bada" fill-opacity="1"><g transform="translate(412.3474, 61.592205)"><g><path d="M 13.5 0.609375 C 10.707031 0.609375 8.390625 0.226562 6.546875 -0.53125 C 4.703125 -1.300781 3.328125 -2.28125 2.421875 -3.46875 C 1.523438 -4.664062 1.078125 -5.875 1.078125 -7.09375 C 1.078125 -8.800781 1.84375 -10.316406 3.375 -11.640625 C 4.90625 -12.972656 6.976562 -13.640625 9.59375 -13.640625 C 9.59375 -11.347656 9.882812 -9.515625 10.46875 -8.140625 C 11.050781 -6.765625 11.800781 -5.785156 12.71875 -5.203125 C 13.644531 -4.617188 14.535156 -4.328125 15.390625 -4.328125 C 16.429688 -4.328125 17.300781 -4.628906 18 -5.234375 C 18.695312 -5.835938 19.046875 -6.59375 19.046875 -7.5 C 19.046875 -8.757812 18.390625 -9.859375 17.078125 -10.796875 C 15.773438 -11.742188 14.085938 -12.804688 12.015625 -13.984375 C 10.984375 -14.609375 9.859375 -15.335938 8.640625 -16.171875 C 7.429688 -17.003906 6.394531 -18.015625 5.53125 -19.203125 C 4.675781 -20.398438 4.25 -21.832031 4.25 -23.5 C 4.25 -25.257812 4.753906 -26.8125 5.765625 -28.15625 C 6.785156 -29.507812 8.128906 -30.644531 9.796875 -31.5625 C 11.460938 -32.488281 13.257812 -33.1875 15.1875 -33.65625 C 17.125 -34.132812 19.015625 -34.375 20.859375 -34.375 C 24.328125 -34.375 26.9375 -33.675781 28.6875 -32.28125 C 30.445312 -30.882812 31.328125 -29.398438 31.328125 -27.828125 C 31.328125 -26.472656 30.648438 -25.253906 29.296875 -24.171875 C 27.953125 -23.097656 25.882812 -22.5625 23.09375 -22.5625 C 23.132812 -24.851562 22.660156 -26.523438 21.671875 -27.578125 C 20.679688 -28.640625 19.625 -29.171875 18.5 -29.171875 C 17.6875 -29.171875 17.007812 -28.921875 16.46875 -28.421875 C 15.9375 -27.929688 15.671875 -27.210938 15.671875 -26.265625 C 15.671875 -25.191406 16.019531 -24.257812 16.71875 -23.46875 C 17.414062 -22.675781 18.289062 -21.976562 19.34375 -21.375 C 20.40625 -20.769531 21.5 -20.195312 22.625 -19.65625 C 24.15625 -18.9375 25.59375 -18.171875 26.9375 -17.359375 C 28.289062 -16.546875 29.394531 -15.617188 30.25 -14.578125 C 31.101562 -13.546875 31.53125 -12.289062 31.53125 -10.8125 C 31.53125 -8.78125 30.707031 -6.894531 29.0625 -5.15625 C 27.425781 -3.425781 25.234375 -2.03125 22.484375 -0.96875 C 19.742188 0.0820312 16.75 0.609375 13.5 0.609375 Z M 13.5 0.609375 "/></g></g></g><g fill="#15bada" fill-opacity="1"><g transform="translate(9.738486, 100.705677)"><g><path d="M 38.1875 0.921875 C 34.78125 0.921875 31.328125 0.53125 27.828125 -0.25 C 24.328125 -1.039062 21.109375 -2.289062 18.171875 -4 C 15.242188 -5.707031 12.882812 -7.9375 11.09375 -10.6875 C 9.300781 -13.445312 8.40625 -16.753906 8.40625 -20.609375 C 8.40625 -21.046875 8.40625 -21.457031 8.40625 -21.84375 C 8.40625 -22.238281 8.445312 -22.742188 8.53125 -23.359375 C 8.789062 -25.722656 9.378906 -28.65625 10.296875 -32.15625 C 11.222656 -35.65625 12.296875 -39.375 13.515625 -43.3125 C 14.742188 -47.25 15.945312 -51.140625 17.125 -54.984375 C 18.3125 -58.835938 19.296875 -62.359375 20.078125 -65.546875 C 20.867188 -68.742188 21.265625 -71.304688 21.265625 -73.234375 C 21.265625 -75.335938 20.695312 -76.390625 19.5625 -76.390625 C 18.414062 -76.390625 16.707031 -75.296875 14.4375 -73.109375 C 12.164062 -70.921875 9.539062 -67.289062 6.5625 -62.21875 L 5.78125 -62.46875 C 5.78125 -69.5625 7.375 -75.625 10.5625 -80.65625 C 13.757812 -85.6875 18.3125 -89.535156 24.21875 -92.203125 C 30.125 -94.867188 37.101562 -96.203125 45.15625 -96.203125 C 52.675781 -96.203125 59.148438 -95.085938 64.578125 -92.859375 C 70.003906 -90.628906 74.441406 -87.585938 77.890625 -83.734375 C 81.347656 -79.890625 83.90625 -75.492188 85.5625 -70.546875 C 87.226562 -65.597656 88.0625 -60.414062 88.0625 -55 C 88.0625 -48.4375 86.898438 -41.847656 84.578125 -35.234375 C 82.265625 -28.628906 78.941406 -22.59375 74.609375 -17.125 C 70.285156 -11.65625 65.035156 -7.28125 58.859375 -4 C 52.691406 -0.71875 45.800781 0.921875 38.1875 0.921875 Z M 40.421875 -16.40625 C 43.921875 -16.40625 47.09375 -17.429688 49.9375 -19.484375 C 52.78125 -21.546875 55.25 -24.28125 57.34375 -27.6875 C 59.445312 -31.101562 61.066406 -34.890625 62.203125 -39.046875 C 63.347656 -43.203125 63.921875 -47.378906 63.921875 -51.578125 C 63.921875 -56.566406 63.066406 -61.25 61.359375 -65.625 C 59.648438 -70 56.914062 -73.539062 53.15625 -76.25 C 49.394531 -78.96875 44.492188 -80.328125 38.453125 -80.328125 C 38.890625 -78.660156 39.21875 -76.953125 39.4375 -75.203125 C 39.65625 -73.453125 39.765625 -71.660156 39.765625 -69.828125 C 39.765625 -65.796875 39.390625 -61.679688 38.640625 -57.484375 C 37.898438 -53.285156 37.070312 -49.21875 36.15625 -45.28125 C 35.238281 -41.34375 34.40625 -37.664062 33.65625 -34.25 C 32.914062 -30.84375 32.546875 -27.828125 32.546875 -25.203125 C 32.546875 -22.484375 33.113281 -20.335938 34.25 -18.765625 C 35.394531 -17.191406 37.453125 -16.40625 40.421875 -16.40625 Z M 40.421875 -16.40625 "/></g></g></g><g fill="#15bada" fill-opacity="1"><g transform="translate(100.028372, 100.705677)"><g><path d="M 19.296875 0.53125 C 16.140625 0.53125 13.335938 -0.757812 10.890625 -3.34375 C 8.441406 -5.925781 7.21875 -9.582031 7.21875 -14.3125 C 7.21875 -16.582031 7.476562 -19.160156 8 -22.046875 C 8.53125 -24.929688 9.144531 -27.882812 9.84375 -30.90625 C 10.539062 -33.925781 11.148438 -36.769531 11.671875 -39.4375 C 12.203125 -42.101562 12.46875 -44.3125 12.46875 -46.0625 C 12.46875 -47.90625 12.140625 -49.375 11.484375 -50.46875 C 10.828125 -51.5625 9.972656 -52.109375 8.921875 -52.109375 C 7.265625 -52.109375 5.5625 -50.96875 3.8125 -48.6875 L 3.015625 -49.21875 C 2.929688 -50.613281 3.238281 -52.273438 3.9375 -54.203125 C 4.632812 -56.128906 5.726562 -57.988281 7.21875 -59.78125 C 8.707031 -61.570312 10.609375 -63.082031 12.921875 -64.3125 C 15.242188 -65.539062 17.976562 -66.15625 21.125 -66.15625 C 25.769531 -66.15625 29.140625 -64.816406 31.234375 -62.140625 C 33.335938 -59.472656 34.390625 -56.257812 34.390625 -52.5 C 34.390625 -51.882812 34.363281 -51.25 34.3125 -50.59375 C 34.269531 -49.9375 34.207031 -49.300781 34.125 -48.6875 C 37.269531 -54.375 40.570312 -58.726562 44.03125 -61.75 C 47.488281 -64.769531 50.707031 -66.28125 53.6875 -66.28125 C 56.476562 -66.28125 58.53125 -65.1875 59.84375 -63 C 61.15625 -60.8125 61.8125 -58.1875 61.8125 -55.125 C 61.8125 -52.320312 61.265625 -49.476562 60.171875 -46.59375 C 59.078125 -43.707031 57.457031 -41.320312 55.3125 -39.4375 C 53.175781 -37.5625 50.578125 -36.664062 47.515625 -36.75 L 46.984375 -37.015625 C 46.898438 -39.285156 46.15625 -41.078125 44.75 -42.390625 C 43.351562 -43.703125 41.78125 -44.359375 40.03125 -44.359375 C 37.664062 -44.359375 35.453125 -43.175781 33.390625 -40.8125 C 31.335938 -38.457031 30.3125 -35.046875 30.3125 -30.578125 C 30.3125 -27.867188 30.617188 -24.9375 31.234375 -21.78125 C 31.847656 -18.632812 32.15625 -15.96875 32.15625 -13.78125 C 32.15625 -11.15625 31.539062 -8.75 30.3125 -6.5625 C 29.09375 -4.375 27.519531 -2.644531 25.59375 -1.375 C 23.664062 -0.101562 21.566406 0.53125 19.296875 0.53125 Z M 19.296875 0.53125 "/></g></g></g><g clip-path="url(#eb112e86b8)"><path fill="#15bada" d="M 622 96.972656 C 619.34375 93.964844 617.734375 90.011719 617.734375 85.6875 C 617.734375 81.359375 619.34375 77.40625 622 74.398438 C 620.910156 74.839844 619.855469 75.332031 618.84375 75.875 C 614.363281 78.28125 610.636719 81.664062 608.046875 85.683594 C 610.636719 89.707031 614.363281 93.089844 618.84375 95.492188 C 619.855469 96.039062 620.910156 96.53125 622 96.972656 Z M 622 96.972656 " fill-opacity="1" fill-rule="nonzero"/></g><g clip-path="url(#be64b1bdcf)"><path fill="#15bada" d="M 647.601562 74.398438 C 650.257812 77.40625 651.867188 81.359375 651.867188 85.6875 C 651.867188 90.011719 650.257812 93.964844 647.601562 96.972656 C 648.691406 96.53125 649.746094 96.039062 650.757812 95.492188 C 655.238281 93.089844 658.964844 89.707031 661.554688 85.683594 C 658.964844 81.664062 655.238281 78.28125 650.757812 75.875 C 649.746094 75.332031 648.691406 74.839844 647.601562 74.398438 Z M 647.601562 74.398438 " fill-opacity="1" fill-rule="nonzero"/></g><g clip-path="url(#6866e8c403)"><path fill="#004aad" d="M 639.328125 82.464844 C 640.160156 82.464844 640.835938 83.140625 640.835938 83.972656 C 640.835938 84.808594 640.160156 85.480469 639.328125 85.480469 C 638.496094 85.480469 637.816406 84.808594 637.816406 83.972656 C 637.816406 83.140625 638.496094 82.464844 639.328125 82.464844 Z M 634.800781 73.125 C 637.28125 73.125 639.589844 73.839844 641.539062 75.082031 C 640.421875 75.515625 639.632812 76.597656 639.632812 77.867188 C 639.632812 79.515625 640.96875 80.851562 642.621094 80.851562 C 643.886719 80.851562 644.972656 80.0625 645.40625 78.949219 C 646.644531 80.894531 647.363281 83.207031 647.363281 85.6875 C 647.363281 92.621094 641.738281 98.25 634.800781 98.25 C 627.863281 98.25 622.238281 92.621094 622.238281 85.6875 C 622.238281 78.75 627.863281 73.125 634.800781 73.125 Z M 634.800781 73.125 " fill-opacity="1" fill-rule="evenodd"/></g><g fill="#15bada" fill-opacity="1"><g transform="translate(459.137916, 59.481182)"><g><path d="M 13.71875 0.40625 C 10.695312 0.40625 8.207031 -0.109375 6.25 -1.140625 C 4.289062 -2.179688 2.835938 -3.507812 1.890625 -5.125 C 0.941406 -6.75 0.46875 -8.414062 0.46875 -10.125 C 0.46875 -11.789062 0.875 -13.378906 1.6875 -14.890625 C 2.5 -16.398438 3.660156 -17.648438 5.171875 -18.640625 C 6.679688 -19.628906 8.46875 -20.125 10.53125 -20.125 C 10.488281 -19.71875 10.46875 -19.347656 10.46875 -19.015625 C 10.46875 -18.679688 10.46875 -18.515625 10.46875 -18.515625 C 10.46875 -15.492188 10.757812 -13.113281 11.34375 -11.375 C 11.925781 -9.644531 12.664062 -8.40625 13.5625 -7.65625 C 14.46875 -6.914062 15.394531 -6.546875 16.34375 -6.546875 C 17.789062 -6.546875 19.078125 -7.117188 20.203125 -8.265625 C 21.328125 -9.421875 21.890625 -10.765625 21.890625 -12.296875 C 21.890625 -14.003906 21.15625 -15.507812 19.6875 -16.8125 C 18.226562 -18.125 16.375 -19.566406 14.125 -21.140625 C 12.851562 -22.085938 11.507812 -23.15625 10.09375 -24.34375 C 8.675781 -25.539062 7.472656 -26.960938 6.484375 -28.609375 C 5.492188 -30.253906 5 -32.203125 5 -34.453125 C 5 -36.796875 5.550781 -38.863281 6.65625 -40.65625 C 7.757812 -42.457031 9.222656 -43.976562 11.046875 -45.21875 C 12.867188 -46.457031 14.867188 -47.398438 17.046875 -48.046875 C 19.234375 -48.703125 21.410156 -49.03125 23.578125 -49.03125 C 26.234375 -49.03125 28.414062 -48.601562 30.125 -47.75 C 31.832031 -46.894531 33.113281 -45.789062 33.96875 -44.4375 C 34.832031 -43.09375 35.265625 -41.703125 35.265625 -40.265625 C 35.265625 -38.910156 34.890625 -37.613281 34.140625 -36.375 C 33.398438 -35.132812 32.304688 -34.128906 30.859375 -33.359375 C 29.421875 -32.597656 27.644531 -32.21875 25.53125 -32.21875 C 25.664062 -32.851562 25.753906 -33.425781 25.796875 -33.9375 C 25.847656 -34.457031 25.875 -34.921875 25.875 -35.328125 C 25.875 -37.578125 25.390625 -39.1875 24.421875 -40.15625 C 23.453125 -41.125 22.378906 -41.609375 21.203125 -41.609375 C 20.078125 -41.609375 18.992188 -41.191406 17.953125 -40.359375 C 16.921875 -39.523438 16.40625 -38.1875 16.40625 -36.34375 C 16.40625 -34.757812 16.820312 -33.40625 17.65625 -32.28125 C 18.488281 -31.15625 19.566406 -30.164062 20.890625 -29.3125 C 22.222656 -28.457031 23.632812 -27.625 25.125 -26.8125 C 26.65625 -26 28.128906 -25.109375 29.546875 -24.140625 C 30.960938 -23.179688 32.144531 -22.046875 33.09375 -20.734375 C 34.039062 -19.429688 34.515625 -17.789062 34.515625 -15.8125 C 34.515625 -13.738281 33.953125 -11.722656 32.828125 -9.765625 C 31.703125 -7.804688 30.171875 -6.070312 28.234375 -4.5625 C 26.296875 -3.050781 24.078125 -1.84375 21.578125 -0.9375 C 19.078125 -0.0390625 16.457031 0.40625 13.71875 0.40625 Z M 13.71875 0.40625 "/></g></g></g><g fill="#15bada" fill-opacity="1"><g transform="translate(493.314049, 59.481182)"><g><path d="M 14.71875 -36.140625 C 12.914062 -36.140625 11.441406 -36.691406 10.296875 -37.796875 C 9.148438 -38.898438 8.578125 -40.285156 8.578125 -41.953125 C 8.578125 -43.753906 9.25 -45.304688 10.59375 -46.609375 C 11.945312 -47.910156 13.59375 -48.5625 15.53125 -48.5625 C 17.332031 -48.5625 18.804688 -48 19.953125 -46.875 C 21.109375 -45.75 21.6875 -44.351562 21.6875 -42.6875 C 21.6875 -40.882812 21.007812 -39.34375 19.65625 -38.0625 C 18.300781 -36.78125 16.65625 -36.140625 14.71875 -36.140625 Z M 10 0.265625 C 8.238281 0.265625 6.660156 -0.347656 5.265625 -1.578125 C 3.867188 -2.816406 3.171875 -4.8125 3.171875 -7.5625 C 3.171875 -9.132812 3.382812 -10.609375 3.8125 -11.984375 C 4.238281 -13.359375 4.734375 -14.695312 5.296875 -16 C 5.859375 -17.3125 6.351562 -18.585938 6.78125 -19.828125 C 7.21875 -21.066406 7.4375 -22.289062 7.4375 -23.5 C 7.4375 -24.582031 7.253906 -25.359375 6.890625 -25.828125 C 6.523438 -26.304688 6.097656 -26.546875 5.609375 -26.546875 C 4.835938 -26.546875 4.09375 -26.050781 3.375 -25.0625 L 2.90625 -25.328125 C 3.082031 -27.128906 3.65625 -28.671875 4.625 -29.953125 C 5.59375 -31.234375 6.785156 -32.234375 8.203125 -32.953125 C 9.617188 -33.679688 11.023438 -34.046875 12.421875 -34.046875 C 14.140625 -34.046875 15.628906 -33.492188 16.890625 -32.390625 C 18.148438 -31.285156 18.78125 -29.492188 18.78125 -27.015625 C 18.78125 -25.535156 18.566406 -23.972656 18.140625 -22.328125 C 17.710938 -20.679688 17.21875 -19.046875 16.65625 -17.421875 C 16.09375 -15.804688 15.59375 -14.300781 15.15625 -12.90625 C 14.726562 -11.507812 14.515625 -10.316406 14.515625 -9.328125 C 14.515625 -8.460938 14.679688 -7.847656 15.015625 -7.484375 C 15.359375 -7.128906 15.734375 -6.953125 16.140625 -6.953125 C 16.546875 -6.953125 16.941406 -7.078125 17.328125 -7.328125 C 17.710938 -7.578125 17.992188 -7.859375 18.171875 -8.171875 L 18.640625 -8.03125 C 18.640625 -6.363281 18.203125 -4.910156 17.328125 -3.671875 C 16.453125 -2.441406 15.359375 -1.476562 14.046875 -0.78125 C 12.742188 -0.0820312 11.394531 0.265625 10 0.265625 Z M 10 0.265625 "/></g></g></g><g fill="#15bada" fill-opacity="1"><g transform="translate(512.766043, 59.481182)"><g><path d="M 11.625 0.265625 C 10.175781 0.265625 8.8125 -0.0546875 7.53125 -0.703125 C 6.25 -1.359375 5.210938 -2.382812 4.421875 -3.78125 C 3.640625 -5.175781 3.25 -6.957031 3.25 -9.125 C 3.25 -10.289062 3.359375 -11.816406 3.578125 -13.703125 C 3.804688 -15.597656 4.109375 -17.671875 4.484375 -19.921875 C 4.867188 -22.171875 5.265625 -24.425781 5.671875 -26.6875 C 4.773438 -26.632812 3.910156 -26.539062 3.078125 -26.40625 C 2.242188 -26.269531 1.421875 -26.113281 0.609375 -25.9375 L 0.46875 -26.40625 C 1.375 -27.488281 2.320312 -28.410156 3.3125 -29.171875 C 4.300781 -29.941406 5.335938 -30.578125 6.421875 -31.078125 C 7.003906 -34.046875 7.5 -36.617188 7.90625 -38.796875 C 8.3125 -40.984375 8.515625 -42.28125 8.515625 -42.6875 C 8.515625 -43.457031 9.109375 -44.085938 10.296875 -44.578125 C 11.492188 -45.078125 12.832031 -45.328125 14.3125 -45.328125 C 15.625 -45.328125 16.851562 -45.078125 18 -44.578125 C 19.144531 -44.085938 19.921875 -43.253906 20.328125 -42.078125 C 20.054688 -41.804688 19.671875 -40.800781 19.171875 -39.0625 C 18.679688 -37.332031 18.164062 -35.234375 17.625 -32.765625 C 18.476562 -32.710938 19.351562 -32.664062 20.25 -32.625 C 21.15625 -32.582031 22.082031 -32.515625 23.03125 -32.421875 C 23.125 -32.148438 23.191406 -31.859375 23.234375 -31.546875 C 23.273438 -31.234375 23.296875 -30.894531 23.296875 -30.53125 C 23.296875 -29.851562 23.195312 -29.117188 23 -28.328125 C 22.800781 -27.546875 22.566406 -26.835938 22.296875 -26.203125 C 21.210938 -26.296875 20.195312 -26.398438 19.25 -26.515625 C 18.300781 -26.628906 17.378906 -26.707031 16.484375 -26.75 C 16.117188 -24.8125 15.789062 -22.875 15.5 -20.9375 C 15.207031 -19 14.984375 -17.242188 14.828125 -15.671875 C 14.671875 -14.097656 14.59375 -12.859375 14.59375 -11.953125 C 14.59375 -10.066406 14.941406 -8.804688 15.640625 -8.171875 C 16.335938 -7.546875 17.179688 -7.234375 18.171875 -7.234375 C 19.066406 -7.234375 19.875 -7.410156 20.59375 -7.765625 C 21.320312 -8.128906 21.84375 -8.554688 22.15625 -9.046875 L 22.828125 -8.84375 C 22.554688 -7 21.832031 -5.390625 20.65625 -4.015625 C 19.488281 -2.640625 18.09375 -1.582031 16.46875 -0.84375 C 14.851562 -0.101562 13.238281 0.265625 11.625 0.265625 Z M 11.625 0.265625 "/></g></g></g><g fill="#15bada" fill-opacity="1"><g transform="translate(534.109221, 59.481182)"><g><path d="M 8.78125 0.265625 C 6.84375 0.265625 5.285156 -0.382812 4.109375 -1.6875 C 2.941406 -2.988281 2.359375 -4.769531 2.359375 -7.03125 C 2.359375 -8.238281 2.515625 -9.820312 2.828125 -11.78125 C 3.148438 -13.738281 3.546875 -15.898438 4.015625 -18.265625 C 4.492188 -20.628906 4.957031 -23.039062 5.40625 -25.5 C 5.851562 -27.957031 6.234375 -30.332031 6.546875 -32.625 C 6.867188 -34.914062 7.03125 -36.941406 7.03125 -38.703125 C 7.03125 -40.910156 6.734375 -42.507812 6.140625 -43.5 L 6.140625 -43.90625 C 7.128906 -45.03125 8.207031 -45.863281 9.375 -46.40625 C 10.550781 -46.945312 11.703125 -47.21875 12.828125 -47.21875 C 14.546875 -47.21875 16.007812 -46.609375 17.21875 -45.390625 C 18.4375 -44.171875 19.046875 -42.347656 19.046875 -39.921875 C 19.046875 -38.617188 18.863281 -37.019531 18.5 -35.125 C 18.144531 -33.226562 17.71875 -31.242188 17.21875 -29.171875 C 16.726562 -27.109375 16.234375 -25.175781 15.734375 -23.375 C 16.585938 -25.039062 17.722656 -26.691406 19.140625 -28.328125 C 20.566406 -29.972656 22.191406 -31.335938 24.015625 -32.421875 C 25.835938 -33.503906 27.738281 -34.046875 29.71875 -34.046875 C 31.96875 -34.046875 33.488281 -33.347656 34.28125 -31.953125 C 35.070312 -30.554688 35.46875 -28.820312 35.46875 -26.75 C 35.46875 -24.851562 35.265625 -22.835938 34.859375 -20.703125 C 34.453125 -18.566406 34.046875 -16.519531 33.640625 -14.5625 C 33.234375 -12.601562 33.03125 -10.96875 33.03125 -9.65625 C 33.03125 -7.769531 33.59375 -6.828125 34.71875 -6.828125 C 35.21875 -6.828125 35.65625 -6.972656 36.03125 -7.265625 C 36.414062 -7.554688 36.695312 -7.878906 36.875 -8.234375 L 37.359375 -7.90625 C 37.359375 -6.144531 36.925781 -4.65625 36.0625 -3.4375 C 35.207031 -2.226562 34.113281 -1.304688 32.78125 -0.671875 C 31.457031 -0.046875 30.097656 0.265625 28.703125 0.265625 C 26.859375 0.265625 25.191406 -0.347656 23.703125 -1.578125 C 22.222656 -2.816406 21.484375 -4.832031 21.484375 -7.625 C 21.484375 -9.207031 21.695312 -10.921875 22.125 -12.765625 C 22.550781 -14.609375 22.96875 -16.394531 23.375 -18.125 C 23.78125 -19.863281 23.984375 -21.320312 23.984375 -22.5 C 23.984375 -24.03125 23.441406 -24.796875 22.359375 -24.796875 C 21.367188 -24.796875 20.285156 -24.296875 19.109375 -23.296875 C 17.941406 -22.304688 16.914062 -21.066406 16.03125 -19.578125 C 15.15625 -18.097656 14.582031 -16.640625 14.3125 -15.203125 C 14.226562 -14.835938 14.1875 -14.410156 14.1875 -13.921875 C 14.1875 -12.785156 14.351562 -11.703125 14.6875 -10.671875 C 15.03125 -9.640625 15.203125 -8.425781 15.203125 -7.03125 C 15.203125 -4.957031 14.660156 -3.222656 13.578125 -1.828125 C 12.492188 -0.429688 10.894531 0.265625 8.78125 0.265625 Z M 8.78125 0.265625 "/></g></g></g><g fill="#15bada" fill-opacity="1"><g transform="translate(570.514235, 59.481182)"><g><path d="M 16.75 0.46875 C 13.375 0.46875 10.582031 -0.203125 8.375 -1.546875 C 6.164062 -2.898438 4.53125 -4.691406 3.46875 -6.921875 C 2.414062 -9.148438 1.890625 -11.523438 1.890625 -14.046875 C 1.890625 -16.429688 2.328125 -18.816406 3.203125 -21.203125 C 4.085938 -23.597656 5.375 -25.773438 7.0625 -27.734375 C 8.75 -29.691406 10.804688 -31.265625 13.234375 -32.453125 C 15.671875 -33.648438 18.460938 -34.25 21.609375 -34.25 C 24.992188 -34.25 27.773438 -33.5625 29.953125 -32.1875 C 32.140625 -30.8125 33.757812 -29 34.8125 -26.75 C 35.875 -24.5 36.40625 -22.085938 36.40625 -19.515625 C 36.40625 -17.179688 35.976562 -14.832031 35.125 -12.46875 C 34.269531 -10.101562 33 -7.941406 31.3125 -5.984375 C 29.625 -4.023438 27.5625 -2.457031 25.125 -1.28125 C 22.695312 -0.113281 19.90625 0.46875 16.75 0.46875 Z M 18.578125 -5.265625 C 19.796875 -5.265625 20.804688 -5.894531 21.609375 -7.15625 C 22.421875 -8.414062 23.03125 -10.023438 23.4375 -11.984375 C 23.84375 -13.941406 24.046875 -15.9375 24.046875 -17.96875 C 24.046875 -19.769531 23.875 -21.46875 23.53125 -23.0625 C 23.195312 -24.664062 22.691406 -25.972656 22.015625 -26.984375 C 21.335938 -27.992188 20.460938 -28.5 19.390625 -28.5 C 18.210938 -28.5 17.207031 -27.867188 16.375 -26.609375 C 15.539062 -25.347656 14.921875 -23.75 14.515625 -21.8125 C 14.117188 -19.875 13.921875 -17.875 13.921875 -15.8125 C 13.921875 -14.007812 14.085938 -12.304688 14.421875 -10.703125 C 14.753906 -9.109375 15.257812 -7.800781 15.9375 -6.78125 C 16.613281 -5.769531 17.492188 -5.265625 18.578125 -5.265625 Z M 18.578125 -5.265625 "/></g></g></g><g fill="#15bada" fill-opacity="1"><g transform="translate(606.311364, 59.481182)"><g><path d="M 9.734375 0.265625 C 8.515625 0.265625 7.328125 -0.0351562 6.171875 -0.640625 C 5.023438 -1.242188 4.09375 -2.222656 3.375 -3.578125 C 2.65625 -4.929688 2.296875 -6.664062 2.296875 -8.78125 C 2.296875 -10.675781 2.550781 -12.894531 3.0625 -15.4375 C 3.582031 -17.976562 4.171875 -20.617188 4.828125 -23.359375 C 5.484375 -26.109375 6.054688 -28.789062 6.546875 -31.40625 C 7.046875 -34.019531 7.273438 -36.335938 7.234375 -38.359375 C 7.234375 -40.296875 7.003906 -41.671875 6.546875 -42.484375 L 6.484375 -42.6875 C 6.984375 -44.125 7.863281 -45.25 9.125 -46.0625 C 10.382812 -46.875 11.710938 -47.28125 13.109375 -47.28125 C 14.679688 -47.28125 16.085938 -46.679688 17.328125 -45.484375 C 18.566406 -44.296875 19.1875 -42.304688 19.1875 -39.515625 C 19.1875 -38.023438 19.003906 -36.253906 18.640625 -34.203125 C 18.285156 -32.160156 17.859375 -29.976562 17.359375 -27.65625 C 16.859375 -25.34375 16.347656 -23.054688 15.828125 -20.796875 C 15.316406 -18.546875 14.878906 -16.472656 14.515625 -14.578125 C 14.160156 -12.691406 13.984375 -11.140625 13.984375 -9.921875 C 13.984375 -8.660156 14.160156 -7.796875 14.515625 -7.328125 C 14.878906 -6.859375 15.285156 -6.625 15.734375 -6.625 C 16.234375 -6.625 16.707031 -6.8125 17.15625 -7.1875 C 17.601562 -7.570312 17.894531 -7.921875 18.03125 -8.234375 L 18.578125 -8.109375 C 18.535156 -6.484375 18.070312 -5.039062 17.1875 -3.78125 C 16.3125 -2.519531 15.207031 -1.53125 13.875 -0.8125 C 12.550781 -0.09375 11.171875 0.265625 9.734375 0.265625 Z M 9.734375 0.265625 "/></g></g></g><g fill="#15bada" fill-opacity="1"><g transform="translate(624.480058, 59.481182)"><g><path d="M 16.546875 0.46875 C 13.265625 0.46875 10.539062 -0.191406 8.375 -1.515625 C 6.21875 -2.847656 4.597656 -4.601562 3.515625 -6.78125 C 2.429688 -8.96875 1.890625 -11.320312 1.890625 -13.84375 C 1.890625 -16.226562 2.347656 -18.625 3.265625 -21.03125 C 4.191406 -23.445312 5.546875 -25.644531 7.328125 -27.625 C 9.109375 -29.601562 11.269531 -31.203125 13.8125 -32.421875 C 16.351562 -33.640625 19.222656 -34.25 22.421875 -34.25 C 26.390625 -34.25 29.285156 -33.359375 31.109375 -31.578125 C 32.929688 -29.796875 33.84375 -27.644531 33.84375 -25.125 C 33.84375 -22.96875 33.265625 -20.972656 32.109375 -19.140625 C 30.960938 -17.316406 29.441406 -15.851562 27.546875 -14.75 C 25.660156 -13.65625 23.59375 -13.109375 21.34375 -13.109375 C 20.175781 -13.109375 18.984375 -13.285156 17.765625 -13.640625 C 16.546875 -14.003906 15.351562 -14.566406 14.1875 -15.328125 C 14.40625 -12.535156 15.210938 -10.507812 16.609375 -9.25 C 18.003906 -7.988281 19.671875 -7.359375 21.609375 -7.359375 C 22.960938 -7.359375 24.3125 -7.617188 25.65625 -8.140625 C 27.007812 -8.660156 28.257812 -9.335938 29.40625 -10.171875 C 30.5625 -11.003906 31.453125 -11.890625 32.078125 -12.828125 L 32.5625 -12.5 C 32.5625 -10.15625 32.078125 -8.160156 31.109375 -6.515625 C 30.140625 -4.867188 28.863281 -3.53125 27.28125 -2.5 C 25.707031 -1.46875 23.984375 -0.710938 22.109375 -0.234375 C 20.242188 0.234375 18.390625 0.46875 16.546875 0.46875 Z M 18.109375 -17.765625 C 19.546875 -17.765625 20.710938 -18.179688 21.609375 -19.015625 C 22.515625 -19.847656 23.191406 -20.828125 23.640625 -21.953125 C 24.085938 -23.078125 24.3125 -24.066406 24.3125 -24.921875 C 24.3125 -25.960938 24.019531 -26.832031 23.4375 -27.53125 C 22.851562 -28.226562 22.039062 -28.578125 21 -28.578125 C 20.195312 -28.578125 19.3125 -28.28125 18.34375 -27.6875 C 17.375 -27.101562 16.503906 -26.101562 15.734375 -24.6875 C 14.972656 -23.269531 14.476562 -21.300781 14.25 -18.78125 C 15.6875 -18.101562 16.972656 -17.765625 18.109375 -17.765625 Z M 18.109375 -17.765625 "/></g></g></g><g fill="#000000" fill-opacity="1"><g transform="translate(199.306836, 100.726734)"><g><path d="M 15.625 0.453125 C 11.414062 0.453125 7.984375 -0.925781 5.328125 -3.6875 C 2.671875 -6.445312 1.34375 -10.46875 1.34375 -15.75 C 1.34375 -21.039062 2.679688 -25.050781 5.359375 -27.78125 C 8.046875 -30.507812 11.507812 -31.875 15.75 -31.875 C 19.988281 -31.875 23.410156 -30.53125 26.015625 -27.84375 C 28.628906 -25.164062 29.9375 -21.101562 29.9375 -15.65625 C 29.9375 -10.21875 28.601562 -6.171875 25.9375 -3.515625 C 23.269531 -0.867188 19.832031 0.453125 15.625 0.453125 Z M 15.640625 -23.234375 C 14.203125 -23.234375 12.992188 -22.570312 12.015625 -21.25 C 11.046875 -19.9375 10.5625 -18.085938 10.5625 -15.703125 C 10.5625 -13.328125 11.023438 -11.5 11.953125 -10.21875 C 12.878906 -8.945312 14.097656 -8.3125 15.609375 -8.3125 C 17.128906 -8.3125 18.359375 -8.957031 19.296875 -10.25 C 20.242188 -11.539062 20.71875 -13.382812 20.71875 -15.78125 C 20.71875 -18.175781 20.226562 -20.015625 19.25 -21.296875 C 18.28125 -22.585938 17.078125 -23.234375 15.640625 -23.234375 Z M 15.640625 -23.234375 "/></g></g></g><g fill="#000000" fill-opacity="1"><g transform="translate(231.088873, 100.726734)"><g><path d="M 6.15625 0.09375 C 3.425781 0.09375 2.0625 -0.207031 2.0625 -0.8125 L 2.0625 -29.9375 C 2.0625 -30.957031 2.53125 -31.46875 3.46875 -31.46875 L 11.375 -31.46875 C 15.8125 -31.46875 19.007812 -30.550781 20.96875 -28.71875 C 22.9375 -26.894531 23.921875 -24.242188 23.921875 -20.765625 C 23.921875 -17.890625 22.988281 -15.253906 21.125 -12.859375 C 20.195312 -11.660156 18.832031 -10.703125 17.03125 -9.984375 C 15.238281 -9.265625 13.144531 -8.90625 10.75 -8.90625 L 10.75 -0.859375 C 10.75 -0.492188 10.1875 -0.242188 9.0625 -0.109375 C 7.9375 0.0234375 6.96875 0.09375 6.15625 0.09375 Z M 10.75 -23.640625 L 10.75 -16.546875 L 11.328125 -16.546875 C 12.378906 -16.546875 13.265625 -16.875 13.984375 -17.53125 C 14.703125 -18.1875 15.0625 -19.113281 15.0625 -20.3125 C 15.0625 -21.507812 14.8125 -22.363281 14.3125 -22.875 C 13.820312 -23.382812 12.945312 -23.640625 11.6875 -23.640625 Z M 10.75 -23.640625 "/></g></g></g><g fill="#000000" fill-opacity="1"><g transform="translate(257.206805, 100.726734)"><g><path d="M 26.703125 -0.765625 C 26.703125 -0.253906 25.1875 0 22.15625 0 C 19.132812 0 17.625 -0.253906 17.625 -0.765625 L 17.625 -11.109375 L 11.328125 -11.109375 L 11.328125 -0.765625 C 11.328125 -0.253906 9.8125 0 6.78125 0 C 3.757812 0 2.25 -0.253906 2.25 -0.765625 L 2.25 -30.5625 C 2.25 -31.195312 3.757812 -31.515625 6.78125 -31.515625 C 9.8125 -31.515625 11.328125 -31.195312 11.328125 -30.5625 L 11.328125 -20 L 17.625 -20 L 17.625 -30.484375 C 17.625 -30.898438 18.375 -31.195312 19.875 -31.375 C 20.644531 -31.4375 21.40625 -31.46875 22.15625 -31.46875 L 24.453125 -31.375 C 25.953125 -31.195312 26.703125 -30.898438 26.703125 -30.484375 Z M 26.703125 -0.765625 "/></g></g></g><g fill="#000000" fill-opacity="1"><g transform="translate(286.651276, 100.726734)"><g><path d="M 15.78125 -0.71875 C 15.78125 -0.113281 14.296875 0.1875 11.328125 0.1875 C 8.359375 0.1875 6.875 -0.113281 6.875 -0.71875 L 6.875 -23.28125 L 1.484375 -23.28125 C 0.972656 -23.28125 0.613281 -23.972656 0.40625 -25.359375 C 0.3125 -26.015625 0.265625 -26.6875 0.265625 -27.375 C 0.265625 -28.0625 0.3125 -28.738281 0.40625 -29.40625 C 0.613281 -30.78125 0.972656 -31.46875 1.484375 -31.46875 L 21.03125 -31.46875 C 21.539062 -31.46875 21.898438 -30.78125 22.109375 -29.40625 C 22.203125 -28.738281 22.25 -28.0625 22.25 -27.375 C 22.25 -26.6875 22.203125 -26.015625 22.109375 -25.359375 C 21.898438 -23.972656 21.539062 -23.28125 21.03125 -23.28125 L 15.78125 -23.28125 Z M 15.78125 -0.71875 "/></g></g></g><g fill="#000000" fill-opacity="1"><g transform="translate(309.712386, 100.726734)"><g><path d="M 26.703125 -0.765625 C 26.703125 -0.253906 25.1875 0 22.15625 0 C 19.132812 0 17.625 -0.253906 17.625 -0.765625 L 17.625 -11.109375 L 11.328125 -11.109375 L 11.328125 -0.765625 C 11.328125 -0.253906 9.8125 0 6.78125 0 C 3.757812 0 2.25 -0.253906 2.25 -0.765625 L 2.25 -30.5625 C 2.25 -31.195312 3.757812 -31.515625 6.78125 -31.515625 C 9.8125 -31.515625 11.328125 -31.195312 11.328125 -30.5625 L 11.328125 -20 L 17.625 -20 L 17.625 -30.484375 C 17.625 -30.898438 18.375 -31.195312 19.875 -31.375 C 20.644531 -31.4375 21.40625 -31.46875 22.15625 -31.46875 L 24.453125 -31.375 C 25.953125 -31.195312 26.703125 -30.898438 26.703125 -30.484375 Z M 26.703125 -0.765625 "/></g></g></g><g fill="#000000" fill-opacity="1"><g transform="translate(339.156865, 100.726734)"><g><path d="M 23.375 0.09375 C 20.769531 0.09375 19.363281 -0.328125 19.15625 -1.171875 L 17.671875 -6.96875 L 10.515625 -6.96875 L 9.21875 -1.390625 C 9.039062 -0.460938 7.601562 0 4.90625 0 C 3.457031 0 2.390625 -0.0820312 1.703125 -0.25 C 1.015625 -0.414062 0.671875 -0.539062 0.671875 -0.625 L 8.625 -31.0625 C 8.625 -31.300781 10.675781 -31.421875 14.78125 -31.421875 C 18.894531 -31.421875 20.953125 -31.300781 20.953125 -31.0625 L 28.71875 -0.578125 C 28.71875 -0.367188 28.03125 -0.203125 26.65625 -0.078125 C 25.28125 0.0351562 24.1875 0.09375 23.375 0.09375 Z M 11.640625 -12.671875 L 16.359375 -12.671875 L 14.34375 -21.984375 L 14.078125 -21.984375 Z M 11.640625 -12.671875 "/></g></g></g><g fill="#000000" fill-opacity="1"><g transform="translate(369.095823, 100.726734)"><g><path d="M 1.796875 -2.65625 L 1.796875 -30.609375 C 1.796875 -31.242188 3.316406 -31.5625 6.359375 -31.5625 C 9.398438 -31.5625 10.921875 -31.242188 10.921875 -30.609375 L 10.921875 -8.59375 L 17.84375 -8.59375 C 18.382812 -8.59375 18.757812 -7.882812 18.96875 -6.46875 C 19.0625 -5.78125 19.109375 -5.078125 19.109375 -4.359375 C 19.109375 -3.640625 19.0625 -2.90625 18.96875 -2.15625 C 18.726562 -0.71875 18.335938 0 17.796875 0 L 3.953125 0 C 3.296875 0 2.769531 -0.269531 2.375 -0.8125 C 1.988281 -1.351562 1.796875 -1.96875 1.796875 -2.65625 Z M 1.796875 -2.65625 "/></g></g></g><g fill="#000000" fill-opacity="1"><g transform="translate(389.145067, 100.726734)"><g><path d="M 33.71875 0.046875 C 31.050781 0.046875 29.71875 -0.253906 29.71875 -0.859375 L 28.765625 -18.875 L 23.28125 -0.625 C 23.164062 -0.269531 22.148438 -0.09375 20.234375 -0.09375 C 18.316406 -0.09375 17.328125 -0.253906 17.265625 -0.578125 L 11.59375 -19.0625 L 10.96875 -1.125 C 10.9375 -0.675781 10.363281 -0.367188 9.25 -0.203125 C 8.144531 -0.0351562 7.222656 0.046875 6.484375 0.046875 C 5.753906 0.046875 5.046875 0 4.359375 -0.09375 C 2.921875 -0.300781 2.21875 -0.675781 2.25 -1.21875 L 3.28125 -30.4375 C 3.28125 -31.15625 5.109375 -31.515625 8.765625 -31.515625 C 9.847656 -31.515625 11.164062 -31.429688 12.71875 -31.265625 C 14.28125 -31.097656 15.148438 -30.773438 15.328125 -30.296875 L 20.359375 -16.140625 L 24.765625 -30.34375 C 25.035156 -31.125 27.101562 -31.515625 30.96875 -31.515625 C 32.082031 -31.515625 33.410156 -31.429688 34.953125 -31.265625 C 36.492188 -31.097656 37.265625 -30.804688 37.265625 -30.390625 L 38.5625 -0.90625 C 38.5625 -0.570312 37.976562 -0.328125 36.8125 -0.171875 C 35.644531 -0.0234375 34.613281 0.046875 33.71875 0.046875 Z M 33.71875 0.046875 "/></g></g></g><g fill="#000000" fill-opacity="1"><g transform="translate(430.412232, 100.726734)"><g><path d="M 15.625 0.453125 C 11.414062 0.453125 7.984375 -0.925781 5.328125 -3.6875 C 2.671875 -6.445312 1.34375 -10.46875 1.34375 -15.75 C 1.34375 -21.039062 2.679688 -25.050781 5.359375 -27.78125 C 8.046875 -30.507812 11.507812 -31.875 15.75 -31.875 C 19.988281 -31.875 23.410156 -30.53125 26.015625 -27.84375 C 28.628906 -25.164062 29.9375 -21.101562 29.9375 -15.65625 C 29.9375 -10.21875 28.601562 -6.171875 25.9375 -3.515625 C 23.269531 -0.867188 19.832031 0.453125 15.625 0.453125 Z M 15.640625 -23.234375 C 14.203125 -23.234375 12.992188 -22.570312 12.015625 -21.25 C 11.046875 -19.9375 10.5625 -18.085938 10.5625 -15.703125 C 10.5625 -13.328125 11.023438 -11.5 11.953125 -10.21875 C 12.878906 -8.945312 14.097656 -8.3125 15.609375 -8.3125 C 17.128906 -8.3125 18.359375 -8.957031 19.296875 -10.25 C 20.242188 -11.539062 20.71875 -13.382812 20.71875 -15.78125 C 20.71875 -18.175781 20.226562 -20.015625 19.25 -21.296875 C 18.28125 -22.585938 17.078125 -23.234375 15.640625 -23.234375 Z M 15.640625 -23.234375 "/></g></g></g><g fill="#000000" fill-opacity="1"><g transform="translate(462.194261, 100.726734)"><g><path d="M 1.796875 -2.65625 L 1.796875 -30.609375 C 1.796875 -31.242188 3.316406 -31.5625 6.359375 -31.5625 C 9.398438 -31.5625 10.921875 -31.242188 10.921875 -30.609375 L 10.921875 -8.59375 L 17.84375 -8.59375 C 18.382812 -8.59375 18.757812 -7.882812 18.96875 -6.46875 C 19.0625 -5.78125 19.109375 -5.078125 19.109375 -4.359375 C 19.109375 -3.640625 19.0625 -2.90625 18.96875 -2.15625 C 18.726562 -0.71875 18.335938 0 17.796875 0 L 3.953125 0 C 3.296875 0 2.769531 -0.269531 2.375 -0.8125 C 1.988281 -1.351562 1.796875 -1.96875 1.796875 -2.65625 Z M 1.796875 -2.65625 "/></g></g></g><g fill="#000000" fill-opacity="1"><g transform="translate(482.243505, 100.726734)"><g><path d="M 15.625 0.453125 C 11.414062 0.453125 7.984375 -0.925781 5.328125 -3.6875 C 2.671875 -6.445312 1.34375 -10.46875 1.34375 -15.75 C 1.34375 -21.039062 2.679688 -25.050781 5.359375 -27.78125 C 8.046875 -30.507812 11.507812 -31.875 15.75 -31.875 C 19.988281 -31.875 23.410156 -30.53125 26.015625 -27.84375 C 28.628906 -25.164062 29.9375 -21.101562 29.9375 -15.65625 C 29.9375 -10.21875 28.601562 -6.171875 25.9375 -3.515625 C 23.269531 -0.867188 19.832031 0.453125 15.625 0.453125 Z M 15.640625 -23.234375 C 14.203125 -23.234375 12.992188 -22.570312 12.015625 -21.25 C 11.046875 -19.9375 10.5625 -18.085938 10.5625 -15.703125 C 10.5625 -13.328125 11.023438 -11.5 11.953125 -10.21875 C 12.878906 -8.945312 14.097656 -8.3125 15.609375 -8.3125 C 17.128906 -8.3125 18.359375 -8.957031 19.296875 -10.25 C 20.242188 -11.539062 20.71875 -13.382812 20.71875 -15.78125 C 20.71875 -18.175781 20.226562 -20.015625 19.25 -21.296875 C 18.28125 -22.585938 17.078125 -23.234375 15.640625 -23.234375 Z M 15.640625 -23.234375 "/></g></g></g><g fill="#000000" fill-opacity="1"><g transform="translate(514.025534, 100.726734)"><g><path d="M 18.875 -9.390625 L 18.96875 -15.515625 C 18.96875 -15.929688 19.398438 -16.207031 20.265625 -16.34375 C 21.140625 -16.476562 21.863281 -16.546875 22.4375 -16.546875 L 24.1875 -16.40625 C 25.320312 -16.226562 25.890625 -15.914062 25.890625 -15.46875 L 25.71875 -1.390625 C 25.113281 -0.972656 23.90625 -0.5625 22.09375 -0.15625 C 20.28125 0.25 18.207031 0.453125 15.875 0.453125 C 11.519531 0.453125 8.007812 -0.953125 5.34375 -3.765625 C 2.675781 -6.585938 1.34375 -10.726562 1.34375 -16.1875 C 1.34375 -20.832031 2.644531 -24.609375 5.25 -27.515625 C 7.863281 -30.421875 11.476562 -31.875 16.09375 -31.875 C 18.1875 -31.875 20.078125 -31.671875 21.765625 -31.265625 C 23.460938 -30.859375 24.628906 -30.3125 25.265625 -29.625 C 25.296875 -29.382812 25.3125 -28.929688 25.3125 -28.265625 C 25.3125 -27.609375 25.082031 -26.671875 24.625 -25.453125 C 24.175781 -24.242188 23.664062 -23.335938 23.09375 -22.734375 C 22.53125 -22.140625 22.117188 -21.84375 21.859375 -21.84375 C 21.609375 -21.84375 21.34375 -21.953125 21.0625 -22.171875 C 20.78125 -22.398438 20.21875 -22.640625 19.375 -22.890625 C 18.53125 -23.148438 17.722656 -23.28125 16.953125 -23.28125 C 15.085938 -23.28125 13.578125 -22.679688 12.421875 -21.484375 C 11.273438 -20.285156 10.703125 -18.425781 10.703125 -15.90625 C 10.703125 -13.394531 11.289062 -11.484375 12.46875 -10.171875 C 13.65625 -8.867188 15.019531 -8.21875 16.5625 -8.21875 C 18.101562 -8.21875 18.875 -8.609375 18.875 -9.390625 Z M 18.875 -9.390625 "/></g></g></g><g fill="#000000" fill-opacity="1"><g transform="translate(542.436074, 100.726734)"><g><path d="M 5.21875 -7.734375 L 5.21875 -23.734375 L 2.015625 -23.734375 C 1.515625 -23.734375 1.15625 -24.378906 0.9375 -25.671875 C 0.851562 -26.296875 0.8125 -26.9375 0.8125 -27.59375 C 0.8125 -28.257812 0.851562 -28.90625 0.9375 -29.53125 C 1.15625 -30.820312 1.515625 -31.46875 2.015625 -31.46875 L 17.125 -31.46875 C 17.632812 -31.46875 17.976562 -30.820312 18.15625 -29.53125 C 18.28125 -28.90625 18.34375 -28.257812 18.34375 -27.59375 C 18.34375 -26.9375 18.28125 -26.296875 18.15625 -25.671875 C 17.976562 -24.378906 17.632812 -23.734375 17.125 -23.734375 L 14.109375 -23.734375 L 14.109375 -7.734375 L 17.265625 -7.734375 C 17.773438 -7.734375 18.132812 -7.085938 18.34375 -5.796875 C 18.457031 -5.171875 18.515625 -4.523438 18.515625 -3.859375 C 18.515625 -3.203125 18.457031 -2.5625 18.34375 -1.9375 C 18.132812 -0.644531 17.773438 0 17.265625 0 L 2.109375 0 C 1.597656 0 1.253906 -0.644531 1.078125 -1.9375 C 0.960938 -2.5625 0.90625 -3.203125 0.90625 -3.859375 C 0.90625 -4.523438 0.960938 -5.171875 1.078125 -5.796875 C 1.253906 -7.085938 1.597656 -7.734375 2.109375 -7.734375 Z M 5.21875 -7.734375 "/></g></g></g><g fill="#000000" fill-opacity="1"><g transform="translate(562.215588, 100.726734)"><g><path d="M 3.421875 -10.96875 C 3.984375 -10.519531 4.960938 -9.90625 6.359375 -9.125 C 7.753906 -8.34375 9.085938 -7.953125 10.359375 -7.953125 C 11.628906 -7.953125 12.265625 -8.445312 12.265625 -9.4375 C 12.265625 -9.882812 12.082031 -10.28125 11.71875 -10.625 C 11.363281 -10.96875 10.707031 -11.363281 9.75 -11.8125 C 8.789062 -12.269531 8.070312 -12.625 7.59375 -12.875 C 7.113281 -13.132812 6.476562 -13.554688 5.6875 -14.140625 C 4.894531 -14.722656 4.285156 -15.328125 3.859375 -15.953125 C 2.660156 -17.660156 2.0625 -19.832031 2.0625 -22.46875 C 2.0625 -25.113281 3.039062 -27.34375 5 -29.15625 C 6.96875 -30.96875 9.539062 -31.875 12.71875 -31.875 C 14.875 -31.875 16.863281 -31.640625 18.6875 -31.171875 C 20.519531 -30.710938 21.46875 -30.109375 21.53125 -29.359375 C 21.53125 -29.265625 21.53125 -29.171875 21.53125 -29.078125 C 21.53125 -28.035156 21.195312 -26.710938 20.53125 -25.109375 C 19.875 -23.503906 19.414062 -22.613281 19.15625 -22.4375 C 17.226562 -23.425781 15.507812 -23.921875 14 -23.921875 C 12.488281 -23.921875 11.734375 -23.378906 11.734375 -22.296875 C 11.734375 -21.640625 12.285156 -21.054688 13.390625 -20.546875 C 13.628906 -20.421875 13.972656 -20.253906 14.421875 -20.046875 C 14.878906 -19.835938 15.398438 -19.585938 15.984375 -19.296875 C 16.566406 -19.015625 17.191406 -18.65625 17.859375 -18.21875 C 18.535156 -17.789062 19.265625 -17.21875 20.046875 -16.5 C 21.640625 -15 22.4375 -13.019531 22.4375 -10.5625 C 22.4375 -7.351562 21.550781 -4.726562 19.78125 -2.6875 C 18.007812 -0.65625 15.28125 0.390625 11.59375 0.453125 C 9.800781 0.453125 8.175781 0.300781 6.71875 0 C 5.269531 -0.300781 4.003906 -0.882812 2.921875 -1.75 C 1.835938 -2.625 1.296875 -3.675781 1.296875 -4.90625 C 1.296875 -6.132812 1.519531 -7.351562 1.96875 -8.5625 C 2.425781 -9.78125 2.910156 -10.582031 3.421875 -10.96875 Z M 3.421875 -10.96875 "/></g></g></g><g fill="#000000" fill-opacity="1"><g transform="translate(586.580331, 100.726734)"><g><path d="M 15.78125 -0.71875 C 15.78125 -0.113281 14.296875 0.1875 11.328125 0.1875 C 8.359375 0.1875 6.875 -0.113281 6.875 -0.71875 L 6.875 -23.28125 L 1.484375 -23.28125 C 0.972656 -23.28125 0.613281 -23.972656 0.40625 -25.359375 C 0.3125 -26.015625 0.265625 -26.6875 0.265625 -27.375 C 0.265625 -28.0625 0.3125 -28.738281 0.40625 -29.40625 C 0.613281 -30.78125 0.972656 -31.46875 1.484375 -31.46875 L 21.03125 -31.46875 C 21.539062 -31.46875 21.898438 -30.78125 22.109375 -29.40625 C 22.203125 -28.738281 22.25 -28.0625 22.25 -27.375 C 22.25 -26.6875 22.203125 -26.015625 22.109375 -25.359375 C 21.898438 -23.972656 21.539062 -23.28125 21.03125 -23.28125 L 15.78125 -23.28125 Z M 15.78125 -0.71875 "/></g></g></g><g clip-path="url(#cb8dcb46da)"><path fill="#15bada" d="M 156.730469 96.972656 C 154.078125 93.964844 152.464844 90.011719 152.464844 85.6875 C 152.464844 81.359375 154.078125 77.40625 156.730469 74.398438 C 155.644531 74.839844 154.589844 75.332031 153.574219 75.875 C 149.097656 78.28125 145.371094 81.664062 142.78125 85.683594 C 145.371094 89.707031 149.097656 93.089844 153.574219 95.492188 C 154.589844 96.039062 155.644531 96.53125 156.730469 96.972656 Z M 156.730469 96.972656 " fill-opacity="1" fill-rule="nonzero"/></g><g clip-path="url(#711de11f27)"><path fill="#15bada" d="M 182.335938 74.398438 C 184.988281 77.40625 186.601562 81.359375 186.601562 85.6875 C 186.601562 90.011719 184.992188 93.964844 182.335938 96.972656 C 183.425781 96.53125 184.476562 96.039062 185.492188 95.492188 C 189.972656 93.089844 193.695312 89.707031 196.285156 85.683594 C 193.695312 81.664062 189.972656 78.28125 185.492188 75.875 C 184.476562 75.332031 183.421875 74.839844 182.335938 74.398438 Z M 182.335938 74.398438 " fill-opacity="1" fill-rule="nonzero"/></g><g clip-path="url(#10bc5d702d)"><path fill="#004aad" d="M 174.058594 82.464844 C 174.894531 82.464844 175.570312 83.140625 175.570312 83.972656 C 175.570312 84.808594 174.894531 85.480469 174.058594 85.480469 C 173.226562 85.480469 172.550781 84.808594 172.550781 83.972656 C 172.550781 83.140625 173.226562 82.464844 174.058594 82.464844 Z M 169.535156 73.125 C 172.011719 73.125 174.324219 73.839844 176.269531 75.082031 C 175.15625 75.515625 174.367188 76.597656 174.367188 77.867188 C 174.367188 79.515625 175.703125 80.851562 177.351562 80.851562 C 178.621094 80.851562 179.703125 80.0625 180.136719 78.949219 C 181.378906 80.894531 182.097656 83.207031 182.097656 85.6875 C 182.097656 92.621094 176.46875 98.25 169.535156 98.25 C 162.597656 98.25 156.972656 92.621094 156.972656 85.6875 C 156.972656 78.75 162.597656 73.125 169.535156 73.125 Z M 169.535156 73.125 " fill-opacity="1" fill-rule="evenodd"/></g></svg>