<svg xmlns="http://www.w3.org/2000/svg" xmlns:xlink="http://www.w3.org/1999/xlink" width="750" zoomAndPan="magnify" viewBox="0 0 562.5 112.499997" height="150" preserveAspectRatio="xMidYMid meet" version="1.0"><defs><g/><clipPath id="caca049f55"><path d="M 506.714844 72 L 519 72 L 519 93 L 506.714844 93 Z M 506.714844 72 " clip-rule="nonzero"/></clipPath><clipPath id="5aafb6a03b"><path d="M 541 72 L 553.011719 72 L 553.011719 93 L 541 93 Z M 541 72 " clip-rule="nonzero"/></clipPath><clipPath id="64c9ae6168"><path d="M 519 71.617188 L 541 71.617188 L 541 93.269531 L 519 93.269531 Z M 519 71.617188 " clip-rule="nonzero"/></clipPath><clipPath id="4d39c24d6d"><path d="M 130.609375 72 L 143 72 L 143 93 L 130.609375 93 Z M 130.609375 72 " clip-rule="nonzero"/></clipPath><clipPath id="51b30575c9"><path d="M 164 72 L 176.90625 72 L 176.90625 93 L 164 93 Z M 164 72 " clip-rule="nonzero"/></clipPath><clipPath id="dc9536da87"><path d="M 142 71.617188 L 165 71.617188 L 165 93.269531 L 142 93.269531 Z M 142 71.617188 " clip-rule="nonzero"/></clipPath></defs><g fill="#15bada" fill-opacity="1"><g transform="translate(130.610689, 57.588238)"><g><path d="M 16.65625 -19.921875 C 18.414062 -19.921875 19.785156 -20.613281 20.765625 -22 C 21.742188 -23.394531 22.234375 -25.285156 22.234375 -27.671875 C 22.234375 -30.492188 21.617188 -32.441406 20.390625 -33.515625 C 19.160156 -34.597656 17.253906 -35.140625 14.671875 -35.140625 C 14.191406 -35.140625 13.539062 -35.0625 12.71875 -34.90625 C 12.882812 -33.019531 12.96875 -29.75 12.96875 -25.09375 L 12.96875 -20.828125 C 14.289062 -20.222656 15.519531 -19.921875 16.65625 -19.921875 Z M 3.515625 -14.203125 L 3.515625 -26.5 C 3.515625 -32.226562 3.222656 -36.941406 2.640625 -40.640625 C 6.160156 -41.117188 9.679688 -41.359375 13.203125 -41.359375 C 25.910156 -41.359375 32.265625 -36.9375 32.265625 -28.09375 C 32.265625 -23.707031 30.984375 -20.242188 28.421875 -17.703125 C 25.859375 -15.160156 22.773438 -13.890625 19.171875 -13.890625 C 17.035156 -13.890625 14.96875 -14.503906 12.96875 -15.734375 L 12.96875 -11.609375 C 12.96875 -7.429688 13.457031 -3.789062 14.4375 -0.6875 C 13.175781 -0.101562 11.253906 0.1875 8.671875 0.1875 C 6.566406 0.1875 5.160156 -0.257812 4.453125 -1.15625 C 3.742188 -2.0625 3.390625 -3.378906 3.390625 -5.109375 C 3.390625 -5.765625 3.410156 -7.082031 3.453125 -9.0625 C 3.492188 -11.039062 3.515625 -12.753906 3.515625 -14.203125 Z M 3.515625 -14.203125 "/></g></g></g><g fill="#15bada" fill-opacity="1"><g transform="translate(163.742123, 57.588238)"><g><path d="M 7.390625 -29.390625 C 8.941406 -29.390625 10.148438 -29.125 11.015625 -28.59375 C 11.878906 -28.0625 12.3125 -27.015625 12.3125 -25.453125 L 12.3125 -24.640625 C 13.40625 -25.960938 14.71875 -27.148438 16.25 -28.203125 C 17.78125 -29.265625 19.304688 -29.796875 20.828125 -29.796875 C 22.023438 -29.796875 22.945312 -29.519531 23.59375 -28.96875 C 24.25 -28.425781 24.578125 -27.703125 24.578125 -26.796875 C 24.578125 -25.117188 23.835938 -23.476562 22.359375 -21.875 C 20.941406 -22.78125 19.613281 -23.234375 18.375 -23.234375 C 16.570312 -23.234375 14.457031 -21.984375 12.03125 -19.484375 C 11.914062 -17.054688 11.859375 -14.722656 11.859375 -12.484375 C 11.859375 -6.660156 12.207031 -2.695312 12.90625 -0.59375 C 11.1875 -0.0703125 9.484375 0.1875 7.796875 0.1875 C 5.878906 0.1875 4.539062 -0.144531 3.78125 -0.8125 C 3.019531 -1.488281 2.640625 -2.488281 2.640625 -3.8125 C 2.640625 -4.46875 2.671875 -6 2.734375 -8.40625 C 2.796875 -10.820312 2.828125 -12.753906 2.828125 -14.203125 C 2.828125 -20.054688 2.6875 -24.847656 2.40625 -28.578125 C 3.96875 -29.117188 5.628906 -29.390625 7.390625 -29.390625 Z M 7.390625 -29.390625 "/></g></g></g><g fill="#15bada" fill-opacity="1"><g transform="translate(188.620708, 57.588238)"><g><path d="M 17.265625 -29.796875 C 20.296875 -29.796875 22.914062 -29.039062 25.125 -27.53125 C 27.34375 -26.019531 28.453125 -23.765625 28.453125 -20.765625 C 28.453125 -14.703125 24.109375 -11.671875 15.421875 -11.671875 C 14.640625 -11.671875 13.226562 -11.710938 11.1875 -11.796875 C 11.1875 -9.453125 11.765625 -7.75 12.921875 -6.6875 C 14.085938 -5.632812 15.535156 -5.109375 17.265625 -5.109375 C 20.296875 -5.109375 22.65625 -6.085938 24.34375 -8.046875 C 25.28125 -7.609375 26.046875 -7.007812 26.640625 -6.25 C 27.242188 -5.488281 27.546875 -4.71875 27.546875 -3.9375 C 27.546875 -2.707031 26.816406 -1.722656 25.359375 -0.984375 C 23.898438 -0.242188 22.484375 0.203125 21.109375 0.359375 C 19.742188 0.515625 18.421875 0.59375 17.140625 0.59375 C 12.640625 0.59375 8.953125 -0.640625 6.078125 -3.109375 C 3.203125 -5.578125 1.765625 -9.351562 1.765625 -14.4375 C 1.765625 -17.800781 2.554688 -20.679688 4.140625 -23.078125 C 5.722656 -25.484375 7.648438 -27.203125 9.921875 -28.234375 C 12.191406 -29.273438 14.640625 -29.796875 17.265625 -29.796875 Z M 16.78125 -23.984375 C 15.300781 -23.984375 14.007812 -23.316406 12.90625 -21.984375 C 11.800781 -20.648438 11.226562 -18.695312 11.1875 -16.125 C 12.332031 -16.195312 13.140625 -16.265625 13.609375 -16.328125 C 14.078125 -16.390625 14.75 -16.519531 15.625 -16.71875 C 16.507812 -16.914062 17.144531 -17.1875 17.53125 -17.53125 C 17.925781 -17.882812 18.289062 -18.378906 18.625 -19.015625 C 18.957031 -19.660156 19.125 -20.457031 19.125 -21.40625 C 19.125 -22.039062 18.894531 -22.628906 18.4375 -23.171875 C 17.988281 -23.710938 17.4375 -23.984375 16.78125 -23.984375 Z M 16.78125 -23.984375 "/></g></g></g><g fill="#15bada" fill-opacity="1"><g transform="translate(218.871147, 57.588238)"><g><path d="M 17.265625 -5.21875 C 18.535156 -5.21875 19.738281 -5.535156 20.875 -6.171875 C 22.007812 -6.816406 22.773438 -7.691406 23.171875 -8.796875 C 25.015625 -8.128906 26.222656 -7.488281 26.796875 -6.875 C 27.378906 -6.269531 27.671875 -5.539062 27.671875 -4.6875 C 27.671875 -3 26.6875 -1.695312 24.71875 -0.78125 C 22.75 0.132812 20.179688 0.59375 17.015625 0.59375 C 12.429688 0.59375 8.742188 -0.679688 5.953125 -3.234375 C 3.160156 -5.796875 1.765625 -9.367188 1.765625 -13.953125 C 1.765625 -16.660156 2.226562 -19.054688 3.15625 -21.140625 C 4.09375 -23.234375 5.296875 -24.894531 6.765625 -26.125 C 8.234375 -27.351562 9.828125 -28.269531 11.546875 -28.875 C 13.273438 -29.488281 15.019531 -29.796875 16.78125 -29.796875 C 19.363281 -29.796875 21.832031 -29.265625 24.1875 -28.203125 C 26.550781 -27.148438 27.734375 -25.679688 27.734375 -23.796875 C 27.734375 -21.296875 25.722656 -19.796875 21.703125 -19.296875 C 21.335938 -20.703125 20.679688 -21.8125 19.734375 -22.625 C 18.785156 -23.445312 17.738281 -23.859375 16.59375 -23.859375 C 15.070312 -23.859375 13.757812 -23.085938 12.65625 -21.546875 C 11.5625 -20.003906 11.015625 -17.742188 11.015625 -14.765625 C 11.015625 -8.398438 13.097656 -5.21875 17.265625 -5.21875 Z M 17.265625 -5.21875 "/></g></g></g><g fill="#15bada" fill-opacity="1"><g transform="translate(248.191265, 57.588238)"><g><path d="M 7.859375 -31.96875 C 6.296875 -31.96875 4.972656 -32.507812 3.890625 -33.59375 C 2.816406 -34.6875 2.28125 -36.066406 2.28125 -37.734375 C 2.28125 -39.328125 2.847656 -40.675781 3.984375 -41.78125 C 5.128906 -42.894531 6.460938 -43.453125 7.984375 -43.453125 C 9.503906 -43.453125 10.804688 -42.894531 11.890625 -41.78125 C 12.984375 -40.675781 13.53125 -39.328125 13.53125 -37.734375 C 13.53125 -36.109375 12.953125 -34.738281 11.796875 -33.625 C 10.648438 -32.519531 9.335938 -31.96875 7.859375 -31.96875 Z M 7.984375 -29.390625 C 9.546875 -29.390625 10.753906 -29.125 11.609375 -28.59375 C 12.472656 -28.0625 12.90625 -27.015625 12.90625 -25.453125 C 12.90625 -25.210938 12.832031 -23.410156 12.6875 -20.046875 C 12.550781 -16.679688 12.484375 -14.160156 12.484375 -12.484375 C 12.484375 -6.660156 12.832031 -2.695312 13.53125 -0.59375 C 11.8125 -0.0703125 10.113281 0.1875 8.4375 0.1875 C 6.488281 0.1875 5.140625 -0.144531 4.390625 -0.8125 C 3.640625 -1.488281 3.265625 -2.488281 3.265625 -3.8125 C 3.265625 -4.46875 3.296875 -6 3.359375 -8.40625 C 3.421875 -10.820312 3.453125 -12.753906 3.453125 -14.203125 C 3.453125 -20.054688 3.300781 -24.847656 3 -28.578125 C 4.5625 -29.117188 6.222656 -29.390625 7.984375 -29.390625 Z M 7.984375 -29.390625 "/></g></g></g><g fill="#15bada" fill-opacity="1"><g transform="translate(263.976713, 57.588238)"><g><path d="M 27.46875 -3.453125 C 24.71875 -0.753906 21.113281 0.59375 16.65625 0.59375 C 12.195312 0.59375 8.597656 -0.753906 5.859375 -3.453125 C 3.128906 -6.148438 1.765625 -9.75 1.765625 -14.25 C 1.765625 -18.976562 3.128906 -22.75 5.859375 -25.5625 C 8.597656 -28.382812 12.195312 -29.796875 16.65625 -29.796875 C 21.113281 -29.796875 24.71875 -28.382812 27.46875 -25.5625 C 30.226562 -22.75 31.609375 -18.976562 31.609375 -14.25 C 31.609375 -9.75 30.226562 -6.148438 27.46875 -3.453125 Z M 22.453125 -13.03125 C 22.453125 -16.144531 21.9375 -18.738281 20.90625 -20.8125 C 19.875 -22.882812 18.457031 -23.921875 16.65625 -23.921875 C 14.894531 -23.921875 13.515625 -23.078125 12.515625 -21.390625 C 11.515625 -19.710938 11.015625 -17.503906 11.015625 -14.765625 C 11.015625 -12.046875 11.515625 -9.796875 12.515625 -8.015625 C 13.515625 -6.234375 14.894531 -5.34375 16.65625 -5.34375 C 18.5 -5.34375 19.925781 -6.046875 20.9375 -7.453125 C 21.945312 -8.867188 22.453125 -10.726562 22.453125 -13.03125 Z M 22.453125 -13.03125 "/></g></g></g><g fill="#15bada" fill-opacity="1"><g transform="translate(297.348229, 57.588238)"><g><path d="M 31.609375 -0.59375 C 29.585938 -0.0703125 27.863281 0.1875 26.4375 0.1875 C 25.125 0.1875 24.003906 -0.109375 23.078125 -0.703125 C 22.160156 -1.296875 21.660156 -2.171875 21.578125 -3.328125 C 18.578125 -0.710938 15.335938 0.59375 11.859375 0.59375 C 6.078125 0.59375 3.1875 -2.285156 3.1875 -8.046875 C 3.1875 -8.160156 3.21875 -9.65625 3.28125 -12.53125 C 3.351562 -15.40625 3.390625 -17.5625 3.390625 -19 C 3.390625 -23.257812 3.0625 -26.453125 2.40625 -28.578125 C 4 -29.117188 5.660156 -29.390625 7.390625 -29.390625 C 10.910156 -29.390625 12.671875 -28.132812 12.671875 -25.625 C 12.671875 -24.269531 12.609375 -21.75 12.484375 -18.0625 C 12.367188 -14.382812 12.3125 -12.175781 12.3125 -11.4375 C 12.3125 -9.476562 12.625 -7.960938 13.25 -6.890625 C 13.882812 -5.816406 14.671875 -5.28125 15.609375 -5.28125 C 17.710938 -5.28125 19.660156 -6.238281 21.453125 -8.15625 C 21.421875 -9.757812 21.40625 -12.242188 21.40625 -15.609375 C 21.40625 -20.367188 21.253906 -24.691406 20.953125 -28.578125 C 22.585938 -29.117188 24.164062 -29.390625 25.6875 -29.390625 C 27.332031 -29.390625 28.601562 -29.140625 29.5 -28.640625 C 30.40625 -28.148438 30.859375 -27.128906 30.859375 -25.578125 C 30.859375 -25.148438 30.804688 -23.894531 30.703125 -21.8125 C 30.597656 -19.738281 30.53125 -18.097656 30.5 -16.890625 L 30.5 -12.484375 C 30.5 -7.285156 30.867188 -3.320312 31.609375 -0.59375 Z M 31.609375 -0.59375 "/></g></g></g><g fill="#15bada" fill-opacity="1"><g transform="translate(331.349962, 57.588238)"><g><path d="M 18.9375 -19.921875 C 18.59375 -21.179688 18.007812 -22.160156 17.1875 -22.859375 C 16.375 -23.566406 15.476562 -23.921875 14.5 -23.921875 C 13.5625 -23.921875 12.765625 -23.675781 12.109375 -23.1875 C 11.460938 -22.695312 11.140625 -21.972656 11.140625 -21.015625 C 11.140625 -20.035156 11.617188 -19.257812 12.578125 -18.6875 C 13.535156 -18.113281 14.695312 -17.648438 16.0625 -17.296875 C 17.4375 -16.953125 18.804688 -16.523438 20.171875 -16.015625 C 21.546875 -15.503906 22.71875 -14.648438 23.6875 -13.453125 C 24.664062 -12.265625 25.15625 -10.753906 25.15625 -8.921875 C 25.15625 -5.796875 23.910156 -3.425781 21.421875 -1.8125 C 18.941406 -0.207031 16.023438 0.59375 12.671875 0.59375 C 11.609375 0.59375 10.5625 0.539062 9.53125 0.4375 C 8.5 0.34375 7.316406 0.148438 5.984375 -0.140625 C 4.648438 -0.441406 3.582031 -0.972656 2.78125 -1.734375 C 1.988281 -2.492188 1.59375 -3.4375 1.59375 -4.5625 C 1.59375 -6.757812 3.253906 -8.476562 6.578125 -9.71875 C 6.992188 -8.238281 7.769531 -7.128906 8.90625 -6.390625 C 10.050781 -5.648438 11.265625 -5.28125 12.546875 -5.28125 C 15.285156 -5.28125 16.65625 -6.257812 16.65625 -8.21875 C 16.65625 -9.1875 15.929688 -9.960938 14.484375 -10.546875 C 13.035156 -11.140625 11.445312 -11.628906 9.71875 -12.015625 C 8 -12.410156 6.410156 -13.289062 4.953125 -14.65625 C 3.492188 -16.03125 2.765625 -17.867188 2.765625 -20.171875 C 2.765625 -23.066406 4.003906 -25.394531 6.484375 -27.15625 C 8.960938 -28.914062 11.765625 -29.796875 14.890625 -29.796875 C 16.304688 -29.796875 17.742188 -29.644531 19.203125 -29.34375 C 20.671875 -29.050781 21.992188 -28.457031 23.171875 -27.5625 C 24.347656 -26.675781 24.9375 -25.601562 24.9375 -24.34375 C 24.9375 -23.238281 24.4375 -22.285156 23.4375 -21.484375 C 22.4375 -20.691406 20.9375 -20.171875 18.9375 -19.921875 Z M 18.9375 -19.921875 "/></g></g></g><g fill="#15bada" fill-opacity="1"><g transform="translate(6.941511, 91.948873)"><g><path d="M 4.890625 -6.0625 C 5.890625 -13.019531 6.460938 -25.757812 6.609375 -44.28125 C 6.609375 -57.539062 6.109375 -67.859375 5.109375 -75.234375 C 10.335938 -76.117188 16.953125 -76.5625 24.953125 -76.5625 C 31.546875 -76.5625 37.507812 -75.921875 42.84375 -74.640625 C 48.175781 -73.367188 53.046875 -71.304688 57.453125 -68.453125 C 61.859375 -65.597656 65.273438 -61.597656 67.703125 -56.453125 C 70.128906 -51.304688 71.34375 -45.117188 71.34375 -37.890625 C 71.34375 -26.523438 67.925781 -17.179688 61.09375 -9.859375 C 54.257812 -2.546875 44.546875 1.109375 31.953125 1.109375 C 20.359375 1.109375 11.335938 -1.28125 4.890625 -6.0625 Z M 23.78125 -64.84375 C 24.070312 -60.394531 24.21875 -55.097656 24.21875 -48.953125 C 24.21875 -34.140625 23.703125 -22.34375 22.671875 -13.5625 C 26.816406 -11.40625 30.707031 -10.328125 34.34375 -10.328125 C 40.269531 -10.328125 44.804688 -12.734375 47.953125 -17.546875 C 51.097656 -22.367188 52.671875 -28.390625 52.671875 -35.609375 C 52.671875 -45.390625 50.640625 -52.769531 46.578125 -57.75 C 42.523438 -62.738281 36.703125 -65.234375 29.109375 -65.234375 C 27.296875 -65.234375 25.519531 -65.101562 23.78125 -64.84375 Z M 23.78125 -64.84375 "/></g></g></g><g fill="#15bada" fill-opacity="1"><g transform="translate(81.955438, 91.948873)"><g><path d="M 13.671875 -54.390625 C 16.554688 -54.390625 18.796875 -53.898438 20.390625 -52.921875 C 21.984375 -51.941406 22.78125 -50.007812 22.78125 -47.125 L 22.78125 -45.625 C 24.820312 -48.0625 27.257812 -50.257812 30.09375 -52.21875 C 32.925781 -54.1875 35.75 -55.171875 38.5625 -55.171875 C 40.78125 -55.171875 42.488281 -54.660156 43.6875 -53.640625 C 44.894531 -52.628906 45.5 -51.289062 45.5 -49.625 C 45.5 -46.507812 44.128906 -43.46875 41.390625 -40.5 C 38.765625 -42.164062 36.300781 -43 34 -43 C 30.664062 -43 26.757812 -40.6875 22.28125 -36.0625 C 22.0625 -31.582031 21.953125 -27.265625 21.953125 -23.109375 C 21.953125 -12.335938 22.597656 -5.003906 23.890625 -1.109375 C 20.703125 -0.148438 17.554688 0.328125 14.453125 0.328125 C 10.890625 0.328125 8.40625 -0.289062 7 -1.53125 C 5.59375 -2.769531 4.890625 -4.613281 4.890625 -7.0625 C 4.890625 -8.28125 4.941406 -11.117188 5.046875 -15.578125 C 5.160156 -20.046875 5.21875 -23.613281 5.21875 -26.28125 C 5.21875 -37.132812 4.957031 -46.003906 4.4375 -52.890625 C 7.332031 -53.890625 10.410156 -54.390625 13.671875 -54.390625 Z M 13.671875 -54.390625 "/></g></g></g><g clip-path="url(#caca049f55)"><path fill="#15bada" d="M 518.8125 92.304688 C 516.507812 89.695312 515.113281 86.269531 515.113281 82.519531 C 515.113281 78.769531 516.507812 75.34375 518.8125 72.734375 C 517.867188 73.113281 516.953125 73.542969 516.074219 74.015625 C 512.191406 76.097656 508.960938 79.03125 506.714844 82.519531 C 508.960938 86.007812 512.191406 88.941406 516.074219 91.023438 C 516.953125 91.496094 517.867188 91.925781 518.8125 92.304688 Z M 518.8125 92.304688 " fill-opacity="1" fill-rule="nonzero"/></g><g clip-path="url(#5aafb6a03b)"><path fill="#15bada" d="M 541.007812 72.734375 C 543.308594 75.34375 544.707031 78.769531 544.707031 82.519531 C 544.707031 86.269531 543.3125 89.695312 541.007812 92.304688 C 541.953125 91.925781 542.867188 91.496094 543.746094 91.023438 C 547.628906 88.941406 550.859375 86.007812 553.105469 82.519531 C 550.859375 79.03125 547.628906 76.097656 543.746094 74.015625 C 542.867188 73.542969 541.953125 73.113281 541.007812 72.734375 Z M 541.007812 72.734375 " fill-opacity="1" fill-rule="nonzero"/></g><g clip-path="url(#64c9ae6168)"><path fill="#004aad" d="M 533.835938 79.726562 C 534.554688 79.726562 535.140625 80.3125 535.140625 81.035156 C 535.140625 81.757812 534.554688 82.34375 533.835938 82.34375 C 533.113281 82.34375 532.527344 81.757812 532.527344 81.035156 C 532.527344 80.3125 533.113281 79.726562 533.835938 79.726562 Z M 529.910156 71.628906 C 532.058594 71.628906 534.0625 72.25 535.75 73.324219 C 534.785156 73.703125 534.097656 74.640625 534.097656 75.742188 C 534.097656 77.171875 535.257812 78.332031 536.6875 78.332031 C 537.789062 78.332031 538.726562 77.644531 539.105469 76.679688 C 540.179688 78.367188 540.800781 80.371094 540.800781 82.519531 C 540.800781 88.535156 535.925781 93.410156 529.910156 93.410156 C 523.894531 93.410156 519.019531 88.535156 519.019531 82.519531 C 519.019531 76.503906 523.894531 71.628906 529.910156 71.628906 Z M 529.910156 71.628906 " fill-opacity="1" fill-rule="evenodd"/></g><g fill="#15bada" fill-opacity="1"><g transform="translate(363.682696, 57.588267)"><g><path d="M 25.75 -30.609375 C 25.09375 -31.796875 23.882812 -32.828125 22.125 -33.703125 C 20.363281 -34.585938 18.660156 -35.03125 17.015625 -35.03125 C 15.671875 -35.03125 14.578125 -34.671875 13.734375 -33.953125 C 12.898438 -33.242188 12.484375 -32.148438 12.484375 -30.671875 C 12.484375 -29.347656 12.960938 -28.234375 13.921875 -27.328125 C 14.890625 -26.429688 16.078125 -25.769531 17.484375 -25.34375 C 18.890625 -24.914062 20.429688 -24.375 22.109375 -23.71875 C 23.796875 -23.070312 25.347656 -22.378906 26.765625 -21.640625 C 28.191406 -20.898438 29.382812 -19.75 30.34375 -18.1875 C 31.300781 -16.625 31.78125 -14.742188 31.78125 -12.546875 C 31.78125 -10.128906 31.320312 -8.035156 30.40625 -6.265625 C 29.488281 -4.503906 28.226562 -3.144531 26.625 -2.1875 C 25.019531 -1.226562 23.304688 -0.523438 21.484375 -0.078125 C 19.671875 0.367188 17.710938 0.59375 15.609375 0.59375 C 11.847656 0.59375 8.597656 0.0664062 5.859375 -0.984375 C 3.128906 -2.046875 1.765625 -3.4375 1.765625 -5.15625 C 1.765625 -6.4375 2.113281 -7.460938 2.8125 -8.234375 C 3.519531 -9.003906 4.710938 -9.84375 6.390625 -10.75 C 7.410156 -9.320312 8.945312 -8.125 11 -7.15625 C 13.050781 -6.1875 15.035156 -5.703125 16.953125 -5.703125 C 18.597656 -5.703125 19.9375 -6.09375 20.96875 -6.875 C 22 -7.65625 22.515625 -8.863281 22.515625 -10.5 C 22.515625 -12.0625 21.84375 -13.3125 20.5 -14.25 C 19.15625 -15.195312 17.539062 -15.957031 15.65625 -16.53125 C 13.78125 -17.113281 11.898438 -17.800781 10.015625 -18.59375 C 8.140625 -19.382812 6.53125 -20.703125 5.1875 -22.546875 C 3.851562 -24.398438 3.1875 -26.78125 3.1875 -29.6875 C 3.1875 -31.78125 3.640625 -33.601562 4.546875 -35.15625 C 5.453125 -36.707031 6.671875 -37.921875 8.203125 -38.796875 C 9.734375 -39.679688 11.410156 -40.328125 13.234375 -40.734375 C 15.054688 -41.148438 17.035156 -41.359375 19.171875 -41.359375 C 22.535156 -41.359375 25.425781 -40.867188 27.84375 -39.890625 C 30.269531 -38.910156 31.484375 -37.539062 31.484375 -35.78125 C 31.484375 -34.71875 30.976562 -33.707031 29.96875 -32.75 C 28.957031 -31.800781 27.550781 -31.085938 25.75 -30.609375 Z M 25.75 -30.609375 "/></g></g></g><g fill="#15bada" fill-opacity="1"><g transform="translate(397.294295, 57.588267)"><g><path d="M 7.859375 -31.96875 C 6.296875 -31.96875 4.972656 -32.507812 3.890625 -33.59375 C 2.816406 -34.6875 2.28125 -36.066406 2.28125 -37.734375 C 2.28125 -39.328125 2.847656 -40.675781 3.984375 -41.78125 C 5.128906 -42.894531 6.460938 -43.453125 7.984375 -43.453125 C 9.503906 -43.453125 10.804688 -42.894531 11.890625 -41.78125 C 12.984375 -40.675781 13.53125 -39.328125 13.53125 -37.734375 C 13.53125 -36.109375 12.953125 -34.738281 11.796875 -33.625 C 10.648438 -32.519531 9.335938 -31.96875 7.859375 -31.96875 Z M 7.984375 -29.390625 C 9.546875 -29.390625 10.753906 -29.125 11.609375 -28.59375 C 12.472656 -28.0625 12.90625 -27.015625 12.90625 -25.453125 C 12.90625 -25.210938 12.832031 -23.410156 12.6875 -20.046875 C 12.550781 -16.679688 12.484375 -14.160156 12.484375 -12.484375 C 12.484375 -6.660156 12.832031 -2.695312 13.53125 -0.59375 C 11.8125 -0.0703125 10.113281 0.1875 8.4375 0.1875 C 6.488281 0.1875 5.140625 -0.144531 4.390625 -0.8125 C 3.640625 -1.488281 3.265625 -2.488281 3.265625 -3.8125 C 3.265625 -4.46875 3.296875 -6 3.359375 -8.40625 C 3.421875 -10.820312 3.453125 -12.753906 3.453125 -14.203125 C 3.453125 -20.054688 3.300781 -24.847656 3 -28.578125 C 4.5625 -29.117188 6.222656 -29.390625 7.984375 -29.390625 Z M 7.984375 -29.390625 "/></g></g></g><g fill="#15bada" fill-opacity="1"><g transform="translate(413.079743, 57.588267)"><g><path d="M 5.96875 -11.140625 L 5.96875 -23.40625 C 3.832031 -23.363281 2.003906 -23.222656 0.484375 -22.984375 C 0.160156 -23.890625 0 -24.753906 0 -25.578125 C 0 -27.992188 1.660156 -29.203125 4.984375 -29.203125 L 5.859375 -29.203125 C 5.753906 -31.703125 5.625 -33.796875 5.46875 -35.484375 C 6.78125 -35.992188 8.28125 -36.25 9.96875 -36.25 C 11.0625 -36.25 11.925781 -36.195312 12.5625 -36.09375 C 13.207031 -36 13.828125 -35.664062 14.421875 -35.09375 C 15.015625 -34.53125 15.3125 -33.6875 15.3125 -32.5625 C 15.3125 -31.925781 15.25 -30.785156 15.125 -29.140625 C 19.382812 -29.140625 22.765625 -29.300781 25.265625 -29.625 C 25.546875 -29.039062 25.6875 -28.160156 25.6875 -26.984375 C 25.6875 -24.816406 24.476562 -23.664062 22.0625 -23.53125 C 20.5 -23.445312 18.144531 -23.40625 15 -23.40625 C 14.882812 -19.363281 14.828125 -15.3125 14.828125 -11.25 C 14.828125 -10.269531 14.847656 -9.519531 14.890625 -9 C 14.929688 -8.476562 15.039062 -7.851562 15.21875 -7.125 C 15.394531 -6.394531 15.71875 -5.863281 16.1875 -5.53125 C 16.65625 -5.207031 17.265625 -5.046875 18.015625 -5.046875 C 20.046875 -5.046875 21.6875 -5.65625 22.9375 -6.875 C 24.613281 -5.695312 25.453125 -4.492188 25.453125 -3.265625 C 25.453125 -2.109375 24.742188 -1.175781 23.328125 -0.46875 C 21.921875 0.238281 20.226562 0.59375 18.25 0.59375 C 13.789062 0.59375 10.628906 -0.382812 8.765625 -2.34375 C 6.898438 -4.300781 5.96875 -7.234375 5.96875 -11.140625 Z M 5.96875 -11.140625 "/></g></g></g><g fill="#15bada" fill-opacity="1"><g transform="translate(439.398825, 57.588267)"><g><path d="M 7.390625 -45.6875 C 8.941406 -45.6875 10.148438 -45.414062 11.015625 -44.875 C 11.878906 -44.332031 12.3125 -43.289062 12.3125 -41.75 C 12.3125 -41.488281 12.234375 -39.675781 12.078125 -36.3125 C 11.929688 -32.957031 11.859375 -30.4375 11.859375 -28.75 L 11.859375 -26.046875 C 14.441406 -28.515625 17.375 -29.75 20.65625 -29.75 C 23.4375 -29.75 25.726562 -28.945312 27.53125 -27.34375 C 29.34375 -25.738281 30.25 -23.46875 30.25 -20.53125 C 30.25 -20.445312 30.210938 -18.96875 30.140625 -16.09375 C 30.078125 -13.226562 30.046875 -11.054688 30.046875 -9.578125 C 30.046875 -6.054688 30.394531 -3.0625 31.09375 -0.59375 C 29.332031 -0.0703125 27.550781 0.1875 25.75 0.1875 C 22.46875 0.1875 20.828125 -1.066406 20.828125 -3.578125 C 20.828125 -5.054688 20.890625 -7.769531 21.015625 -11.71875 C 21.148438 -15.664062 21.21875 -18.050781 21.21875 -18.875 C 21.21875 -20.5625 20.875 -21.820312 20.1875 -22.65625 C 19.507812 -23.5 18.644531 -23.921875 17.59375 -23.921875 C 15.863281 -23.921875 13.953125 -22.910156 11.859375 -20.890625 C 11.929688 -15.648438 11.96875 -11.859375 11.96875 -9.515625 C 11.96875 -5.910156 12.082031 -2.757812 12.3125 -0.0625 C 10.945312 0.0625 9.734375 0.125 8.671875 0.125 C 4.566406 0.125 2.515625 -0.859375 2.515625 -2.828125 C 2.515625 -2.984375 2.566406 -4.40625 2.671875 -7.09375 C 2.773438 -9.789062 2.828125 -12.585938 2.828125 -15.484375 L 2.828125 -30.5 C 2.828125 -36.351562 2.6875 -41.144531 2.40625 -44.875 C 3.96875 -45.414062 5.628906 -45.6875 7.390625 -45.6875 Z M 7.390625 -45.6875 "/></g></g></g><g fill="#15bada" fill-opacity="1"><g transform="translate(472.890382, 57.588267)"><g><path d="M 27.46875 -3.453125 C 24.71875 -0.753906 21.113281 0.59375 16.65625 0.59375 C 12.195312 0.59375 8.597656 -0.753906 5.859375 -3.453125 C 3.128906 -6.148438 1.765625 -9.75 1.765625 -14.25 C 1.765625 -18.976562 3.128906 -22.75 5.859375 -25.5625 C 8.597656 -28.382812 12.195312 -29.796875 16.65625 -29.796875 C 21.113281 -29.796875 24.71875 -28.382812 27.46875 -25.5625 C 30.226562 -22.75 31.609375 -18.976562 31.609375 -14.25 C 31.609375 -9.75 30.226562 -6.148438 27.46875 -3.453125 Z M 22.453125 -13.03125 C 22.453125 -16.144531 21.9375 -18.738281 20.90625 -20.8125 C 19.875 -22.882812 18.457031 -23.921875 16.65625 -23.921875 C 14.894531 -23.921875 13.515625 -23.078125 12.515625 -21.390625 C 11.515625 -19.710938 11.015625 -17.503906 11.015625 -14.765625 C 11.015625 -12.046875 11.515625 -9.796875 12.515625 -8.015625 C 13.515625 -6.234375 14.894531 -5.34375 16.65625 -5.34375 C 18.5 -5.34375 19.925781 -6.046875 20.9375 -7.453125 C 21.945312 -8.867188 22.453125 -10.726562 22.453125 -13.03125 Z M 22.453125 -13.03125 "/></g></g></g><g fill="#15bada" fill-opacity="1"><g transform="translate(506.261898, 57.588267)"><g><path d="M 7.390625 -45.6875 C 8.941406 -45.6875 10.148438 -45.414062 11.015625 -44.875 C 11.878906 -44.332031 12.3125 -43.289062 12.3125 -41.75 C 12.3125 -41.488281 12.234375 -39.675781 12.078125 -36.3125 C 11.929688 -32.957031 11.859375 -30.4375 11.859375 -28.75 L 11.859375 -11.921875 C 11.859375 -6.515625 12.207031 -2.738281 12.90625 -0.59375 C 11.1875 -0.0703125 9.484375 0.1875 7.796875 0.1875 C 5.878906 0.1875 4.539062 -0.144531 3.78125 -0.8125 C 3.019531 -1.488281 2.640625 -2.488281 2.640625 -3.8125 C 2.640625 -4.46875 2.671875 -5.898438 2.734375 -8.109375 C 2.796875 -10.328125 2.828125 -12.132812 2.828125 -13.53125 L 2.828125 -30.5 C 2.828125 -36.351562 2.6875 -41.144531 2.40625 -44.875 C 3.96875 -45.414062 5.628906 -45.6875 7.390625 -45.6875 Z M 7.390625 -45.6875 "/></g></g></g><g fill="#15bada" fill-opacity="1"><g transform="translate(521.56718, 57.588267)"><g><path d="M 17.265625 -29.796875 C 20.296875 -29.796875 22.914062 -29.039062 25.125 -27.53125 C 27.34375 -26.019531 28.453125 -23.765625 28.453125 -20.765625 C 28.453125 -14.703125 24.109375 -11.671875 15.421875 -11.671875 C 14.640625 -11.671875 13.226562 -11.710938 11.1875 -11.796875 C 11.1875 -9.453125 11.765625 -7.75 12.921875 -6.6875 C 14.085938 -5.632812 15.535156 -5.109375 17.265625 -5.109375 C 20.296875 -5.109375 22.65625 -6.085938 24.34375 -8.046875 C 25.28125 -7.609375 26.046875 -7.007812 26.640625 -6.25 C 27.242188 -5.488281 27.546875 -4.71875 27.546875 -3.9375 C 27.546875 -2.707031 26.816406 -1.722656 25.359375 -0.984375 C 23.898438 -0.242188 22.484375 0.203125 21.109375 0.359375 C 19.742188 0.515625 18.421875 0.59375 17.140625 0.59375 C 12.640625 0.59375 8.953125 -0.640625 6.078125 -3.109375 C 3.203125 -5.578125 1.765625 -9.351562 1.765625 -14.4375 C 1.765625 -17.800781 2.554688 -20.679688 4.140625 -23.078125 C 5.722656 -25.484375 7.648438 -27.203125 9.921875 -28.234375 C 12.191406 -29.273438 14.640625 -29.796875 17.265625 -29.796875 Z M 16.78125 -23.984375 C 15.300781 -23.984375 14.007812 -23.316406 12.90625 -21.984375 C 11.800781 -20.648438 11.226562 -18.695312 11.1875 -16.125 C 12.332031 -16.195312 13.140625 -16.265625 13.609375 -16.328125 C 14.078125 -16.390625 14.75 -16.519531 15.625 -16.71875 C 16.507812 -16.914062 17.144531 -17.1875 17.53125 -17.53125 C 17.925781 -17.882812 18.289062 -18.378906 18.625 -19.015625 C 18.957031 -19.660156 19.125 -20.457031 19.125 -21.40625 C 19.125 -22.039062 18.894531 -22.628906 18.4375 -23.171875 C 17.988281 -23.710938 17.4375 -23.984375 16.78125 -23.984375 Z M 16.78125 -23.984375 "/></g></g></g><g fill="#000000" fill-opacity="1"><g transform="translate(183.252835, 93.677797)"><g><path d="M 12.09375 0.34375 C 8.832031 0.34375 6.175781 -0.722656 4.125 -2.859375 C 2.070312 -4.992188 1.046875 -8.109375 1.046875 -12.203125 C 1.046875 -16.304688 2.082031 -19.410156 4.15625 -21.515625 C 6.238281 -23.628906 8.921875 -24.6875 12.203125 -24.6875 C 15.492188 -24.6875 18.148438 -23.644531 20.171875 -21.5625 C 22.191406 -19.488281 23.203125 -16.34375 23.203125 -12.125 C 23.203125 -7.914062 22.164062 -4.785156 20.09375 -2.734375 C 18.03125 -0.679688 15.363281 0.34375 12.09375 0.34375 Z M 12.125 -18 C 11.007812 -18 10.070312 -17.488281 9.3125 -16.46875 C 8.5625 -15.445312 8.1875 -14.015625 8.1875 -12.171875 C 8.1875 -10.328125 8.546875 -8.910156 9.265625 -7.921875 C 9.984375 -6.929688 10.925781 -6.4375 12.09375 -6.4375 C 13.269531 -6.4375 14.222656 -6.9375 14.953125 -7.9375 C 15.691406 -8.9375 16.0625 -10.363281 16.0625 -12.21875 C 16.0625 -14.082031 15.679688 -15.507812 14.921875 -16.5 C 14.171875 -17.5 13.238281 -18 12.125 -18 Z M 12.125 -18 "/></g></g></g><g fill="#000000" fill-opacity="1"><g transform="translate(207.875115, 93.677797)"><g><path d="M 4.765625 0.0625 C 2.660156 0.0625 1.609375 -0.164062 1.609375 -0.625 L 1.609375 -23.203125 C 1.609375 -23.984375 1.96875 -24.375 2.6875 -24.375 L 8.8125 -24.375 C 12.25 -24.375 14.726562 -23.664062 16.25 -22.25 C 17.769531 -20.832031 18.53125 -18.78125 18.53125 -16.09375 C 18.53125 -13.863281 17.8125 -11.816406 16.375 -9.953125 C 15.65625 -9.023438 14.597656 -8.28125 13.203125 -7.71875 C 11.804688 -7.164062 10.179688 -6.890625 8.328125 -6.890625 L 8.328125 -0.65625 C 8.328125 -0.382812 7.890625 -0.195312 7.015625 -0.09375 C 6.148438 0.0078125 5.398438 0.0625 4.765625 0.0625 Z M 8.328125 -18.3125 L 8.328125 -12.8125 L 8.78125 -12.8125 C 9.59375 -12.8125 10.273438 -13.066406 10.828125 -13.578125 C 11.390625 -14.085938 11.671875 -14.804688 11.671875 -15.734375 C 11.671875 -16.671875 11.476562 -17.332031 11.09375 -17.71875 C 10.707031 -18.113281 10.03125 -18.3125 9.0625 -18.3125 Z M 8.328125 -18.3125 "/></g></g></g><g fill="#000000" fill-opacity="1"><g transform="translate(228.109295, 93.677797)"><g><path d="M 20.6875 -0.59375 C 20.6875 -0.195312 19.515625 0 17.171875 0 C 14.828125 0 13.65625 -0.195312 13.65625 -0.59375 L 13.65625 -8.609375 L 8.78125 -8.609375 L 8.78125 -0.59375 C 8.78125 -0.195312 7.601562 0 5.25 0 C 2.90625 0 1.734375 -0.195312 1.734375 -0.59375 L 1.734375 -23.6875 C 1.734375 -24.175781 2.90625 -24.421875 5.25 -24.421875 C 7.601562 -24.421875 8.78125 -24.175781 8.78125 -23.6875 L 8.78125 -15.5 L 13.65625 -15.5 L 13.65625 -23.609375 C 13.65625 -23.929688 14.234375 -24.164062 15.390625 -24.3125 C 15.992188 -24.351562 16.585938 -24.375 17.171875 -24.375 L 18.953125 -24.3125 C 20.109375 -24.164062 20.6875 -23.929688 20.6875 -23.609375 Z M 20.6875 -0.59375 "/></g></g></g><g fill="#000000" fill-opacity="1"><g transform="translate(250.920608, 93.677797)"><g><path d="M 12.21875 -0.5625 C 12.21875 -0.09375 11.066406 0.140625 8.765625 0.140625 C 6.472656 0.140625 5.328125 -0.09375 5.328125 -0.5625 L 5.328125 -18.046875 L 1.15625 -18.046875 C 0.757812 -18.046875 0.476562 -18.578125 0.3125 -19.640625 C 0.238281 -20.148438 0.203125 -20.671875 0.203125 -21.203125 C 0.203125 -21.742188 0.238281 -22.269531 0.3125 -22.78125 C 0.476562 -23.84375 0.757812 -24.375 1.15625 -24.375 L 16.296875 -24.375 C 16.691406 -24.375 16.972656 -23.84375 17.140625 -22.78125 C 17.203125 -22.269531 17.234375 -21.742188 17.234375 -21.203125 C 17.234375 -20.671875 17.203125 -20.148438 17.140625 -19.640625 C 16.972656 -18.578125 16.691406 -18.046875 16.296875 -18.046875 L 12.21875 -18.046875 Z M 12.21875 -0.5625 "/></g></g></g><g fill="#000000" fill-opacity="1"><g transform="translate(268.7866, 93.677797)"><g><path d="M 20.6875 -0.59375 C 20.6875 -0.195312 19.515625 0 17.171875 0 C 14.828125 0 13.65625 -0.195312 13.65625 -0.59375 L 13.65625 -8.609375 L 8.78125 -8.609375 L 8.78125 -0.59375 C 8.78125 -0.195312 7.601562 0 5.25 0 C 2.90625 0 1.734375 -0.195312 1.734375 -0.59375 L 1.734375 -23.6875 C 1.734375 -24.175781 2.90625 -24.421875 5.25 -24.421875 C 7.601562 -24.421875 8.78125 -24.175781 8.78125 -23.6875 L 8.78125 -15.5 L 13.65625 -15.5 L 13.65625 -23.609375 C 13.65625 -23.929688 14.234375 -24.164062 15.390625 -24.3125 C 15.992188 -24.351562 16.585938 -24.375 17.171875 -24.375 L 18.953125 -24.3125 C 20.109375 -24.164062 20.6875 -23.929688 20.6875 -23.609375 Z M 20.6875 -0.59375 "/></g></g></g><g fill="#000000" fill-opacity="1"><g transform="translate(291.597913, 93.677797)"><g><path d="M 18.109375 0.0625 C 16.085938 0.0625 15 -0.257812 14.84375 -0.90625 L 13.6875 -5.390625 L 8.15625 -5.390625 L 7.140625 -1.078125 C 7.003906 -0.359375 5.890625 0 3.796875 0 C 2.679688 0 1.851562 -0.0625 1.3125 -0.1875 C 0.78125 -0.320312 0.515625 -0.421875 0.515625 -0.484375 L 6.6875 -24.0625 C 6.6875 -24.25 8.273438 -24.34375 11.453125 -24.34375 C 14.640625 -24.34375 16.234375 -24.25 16.234375 -24.0625 L 22.25 -0.453125 C 22.25 -0.285156 21.710938 -0.15625 20.640625 -0.0625 C 19.578125 0.0195312 18.734375 0.0625 18.109375 0.0625 Z M 9.015625 -9.828125 L 12.671875 -9.828125 L 11.109375 -17.03125 L 10.90625 -17.03125 Z M 9.015625 -9.828125 "/></g></g></g><g fill="#000000" fill-opacity="1"><g transform="translate(314.792321, 93.677797)"><g><path d="M 1.390625 -2.0625 L 1.390625 -23.71875 C 1.390625 -24.207031 2.566406 -24.453125 4.921875 -24.453125 C 7.285156 -24.453125 8.46875 -24.207031 8.46875 -23.71875 L 8.46875 -6.65625 L 13.828125 -6.65625 C 14.242188 -6.65625 14.535156 -6.109375 14.703125 -5.015625 C 14.765625 -4.484375 14.796875 -3.9375 14.796875 -3.375 C 14.796875 -2.820312 14.765625 -2.253906 14.703125 -1.671875 C 14.515625 -0.554688 14.210938 0 13.796875 0 L 3.0625 0 C 2.550781 0 2.144531 -0.207031 1.84375 -0.625 C 1.539062 -1.039062 1.390625 -1.519531 1.390625 -2.0625 Z M 1.390625 -2.0625 "/></g></g></g><g fill="#000000" fill-opacity="1"><g transform="translate(330.324963, 93.677797)"><g><path d="M 26.125 0.03125 C 24.050781 0.03125 23.015625 -0.195312 23.015625 -0.65625 L 22.296875 -14.625 L 18.046875 -0.484375 C 17.953125 -0.203125 17.160156 -0.0625 15.671875 -0.0625 C 14.179688 -0.0625 13.414062 -0.191406 13.375 -0.453125 L 8.984375 -14.765625 L 8.5 -0.875 C 8.476562 -0.519531 8.035156 -0.28125 7.171875 -0.15625 C 6.316406 -0.03125 5.601562 0.03125 5.03125 0.03125 C 4.457031 0.03125 3.90625 0 3.375 -0.0625 C 2.257812 -0.226562 1.710938 -0.519531 1.734375 -0.9375 L 2.546875 -23.578125 C 2.546875 -24.140625 3.960938 -24.421875 6.796875 -24.421875 C 7.628906 -24.421875 8.648438 -24.351562 9.859375 -24.21875 C 11.066406 -24.09375 11.738281 -23.84375 11.875 -23.46875 L 15.78125 -12.5 L 19.1875 -23.515625 C 19.394531 -24.117188 21 -24.421875 24 -24.421875 C 24.851562 -24.421875 25.878906 -24.351562 27.078125 -24.21875 C 28.273438 -24.09375 28.875 -23.867188 28.875 -23.546875 L 29.875 -0.703125 C 29.875 -0.441406 29.421875 -0.253906 28.515625 -0.140625 C 27.617188 -0.0234375 26.820312 0.03125 26.125 0.03125 Z M 26.125 0.03125 "/></g></g></g><g fill="#000000" fill-opacity="1"><g transform="translate(362.295571, 93.677797)"><g><path d="M 12.09375 0.34375 C 8.832031 0.34375 6.175781 -0.722656 4.125 -2.859375 C 2.070312 -4.992188 1.046875 -8.109375 1.046875 -12.203125 C 1.046875 -16.304688 2.082031 -19.410156 4.15625 -21.515625 C 6.238281 -23.628906 8.921875 -24.6875 12.203125 -24.6875 C 15.492188 -24.6875 18.148438 -23.644531 20.171875 -21.5625 C 22.191406 -19.488281 23.203125 -16.34375 23.203125 -12.125 C 23.203125 -7.914062 22.164062 -4.785156 20.09375 -2.734375 C 18.03125 -0.679688 15.363281 0.34375 12.09375 0.34375 Z M 12.125 -18 C 11.007812 -18 10.070312 -17.488281 9.3125 -16.46875 C 8.5625 -15.445312 8.1875 -14.015625 8.1875 -12.171875 C 8.1875 -10.328125 8.546875 -8.910156 9.265625 -7.921875 C 9.984375 -6.929688 10.925781 -6.4375 12.09375 -6.4375 C 13.269531 -6.4375 14.222656 -6.9375 14.953125 -7.9375 C 15.691406 -8.9375 16.0625 -10.363281 16.0625 -12.21875 C 16.0625 -14.082031 15.679688 -15.507812 14.921875 -16.5 C 14.171875 -17.5 13.238281 -18 12.125 -18 Z M 12.125 -18 "/></g></g></g><g fill="#000000" fill-opacity="1"><g transform="translate(386.917839, 93.677797)"><g><path d="M 1.390625 -2.0625 L 1.390625 -23.71875 C 1.390625 -24.207031 2.566406 -24.453125 4.921875 -24.453125 C 7.285156 -24.453125 8.46875 -24.207031 8.46875 -23.71875 L 8.46875 -6.65625 L 13.828125 -6.65625 C 14.242188 -6.65625 14.535156 -6.109375 14.703125 -5.015625 C 14.765625 -4.484375 14.796875 -3.9375 14.796875 -3.375 C 14.796875 -2.820312 14.765625 -2.253906 14.703125 -1.671875 C 14.515625 -0.554688 14.210938 0 13.796875 0 L 3.0625 0 C 2.550781 0 2.144531 -0.207031 1.84375 -0.625 C 1.539062 -1.039062 1.390625 -1.519531 1.390625 -2.0625 Z M 1.390625 -2.0625 "/></g></g></g><g fill="#000000" fill-opacity="1"><g transform="translate(402.450481, 93.677797)"><g><path d="M 12.09375 0.34375 C 8.832031 0.34375 6.175781 -0.722656 4.125 -2.859375 C 2.070312 -4.992188 1.046875 -8.109375 1.046875 -12.203125 C 1.046875 -16.304688 2.082031 -19.410156 4.15625 -21.515625 C 6.238281 -23.628906 8.921875 -24.6875 12.203125 -24.6875 C 15.492188 -24.6875 18.148438 -23.644531 20.171875 -21.5625 C 22.191406 -19.488281 23.203125 -16.34375 23.203125 -12.125 C 23.203125 -7.914062 22.164062 -4.785156 20.09375 -2.734375 C 18.03125 -0.679688 15.363281 0.34375 12.09375 0.34375 Z M 12.125 -18 C 11.007812 -18 10.070312 -17.488281 9.3125 -16.46875 C 8.5625 -15.445312 8.1875 -14.015625 8.1875 -12.171875 C 8.1875 -10.328125 8.546875 -8.910156 9.265625 -7.921875 C 9.984375 -6.929688 10.925781 -6.4375 12.09375 -6.4375 C 13.269531 -6.4375 14.222656 -6.9375 14.953125 -7.9375 C 15.691406 -8.9375 16.0625 -10.363281 16.0625 -12.21875 C 16.0625 -14.082031 15.679688 -15.507812 14.921875 -16.5 C 14.171875 -17.5 13.238281 -18 12.125 -18 Z M 12.125 -18 "/></g></g></g><g fill="#000000" fill-opacity="1"><g transform="translate(427.072749, 93.677797)"><g><path d="M 14.625 -7.28125 L 14.703125 -12.015625 C 14.703125 -12.335938 15.035156 -12.550781 15.703125 -12.65625 C 16.378906 -12.757812 16.9375 -12.8125 17.375 -12.8125 L 18.734375 -12.71875 C 19.617188 -12.570312 20.0625 -12.328125 20.0625 -11.984375 L 19.921875 -1.078125 C 19.453125 -0.753906 18.515625 -0.4375 17.109375 -0.125 C 15.710938 0.1875 14.109375 0.34375 12.296875 0.34375 C 8.929688 0.34375 6.210938 -0.742188 4.140625 -2.921875 C 2.078125 -5.109375 1.046875 -8.3125 1.046875 -12.53125 C 1.046875 -16.132812 2.054688 -19.0625 4.078125 -21.3125 C 6.097656 -23.5625 8.894531 -24.6875 12.46875 -24.6875 C 14.09375 -24.6875 15.5625 -24.53125 16.875 -24.21875 C 18.1875 -23.90625 19.085938 -23.484375 19.578125 -22.953125 C 19.597656 -22.765625 19.609375 -22.414062 19.609375 -21.90625 C 19.609375 -21.394531 19.429688 -20.664062 19.078125 -19.71875 C 18.734375 -18.78125 18.335938 -18.078125 17.890625 -17.609375 C 17.453125 -17.148438 17.132812 -16.921875 16.9375 -16.921875 C 16.738281 -16.921875 16.53125 -17.007812 16.3125 -17.1875 C 16.09375 -17.363281 15.65625 -17.550781 15 -17.75 C 14.351562 -17.945312 13.726562 -18.046875 13.125 -18.046875 C 11.6875 -18.046875 10.519531 -17.578125 9.625 -16.640625 C 8.738281 -15.710938 8.296875 -14.273438 8.296875 -12.328125 C 8.296875 -10.378906 8.753906 -8.898438 9.671875 -7.890625 C 10.585938 -6.878906 11.640625 -6.375 12.828125 -6.375 C 14.023438 -6.375 14.625 -6.675781 14.625 -7.28125 Z M 14.625 -7.28125 "/></g></g></g><g fill="#000000" fill-opacity="1"><g transform="translate(449.083069, 93.677797)"><g><path d="M 4.046875 -5.984375 L 4.046875 -18.390625 L 1.5625 -18.390625 C 1.164062 -18.390625 0.890625 -18.890625 0.734375 -19.890625 C 0.660156 -20.378906 0.625 -20.878906 0.625 -21.390625 C 0.625 -21.898438 0.660156 -22.394531 0.734375 -22.875 C 0.890625 -23.875 1.164062 -24.375 1.5625 -24.375 L 13.265625 -24.375 C 13.660156 -24.375 13.929688 -23.875 14.078125 -22.875 C 14.160156 -22.394531 14.203125 -21.898438 14.203125 -21.390625 C 14.203125 -20.878906 14.160156 -20.378906 14.078125 -19.890625 C 13.929688 -18.890625 13.660156 -18.390625 13.265625 -18.390625 L 10.9375 -18.390625 L 10.9375 -5.984375 L 13.375 -5.984375 C 13.769531 -5.984375 14.046875 -5.488281 14.203125 -4.5 C 14.296875 -4.007812 14.34375 -3.507812 14.34375 -3 C 14.34375 -2.488281 14.296875 -1.988281 14.203125 -1.5 C 14.046875 -0.5 13.769531 0 13.375 0 L 1.640625 0 C 1.242188 0 0.972656 -0.5 0.828125 -1.5 C 0.742188 -1.988281 0.703125 -2.488281 0.703125 -3 C 0.703125 -3.507812 0.742188 -4.007812 0.828125 -4.5 C 0.972656 -5.488281 1.242188 -5.984375 1.640625 -5.984375 Z M 4.046875 -5.984375 "/></g></g></g><g fill="#000000" fill-opacity="1"><g transform="translate(464.406767, 93.677797)"><g><path d="M 2.640625 -8.5 C 3.085938 -8.144531 3.847656 -7.664062 4.921875 -7.0625 C 6.003906 -6.46875 7.039062 -6.171875 8.03125 -6.171875 C 9.019531 -6.171875 9.515625 -6.550781 9.515625 -7.3125 C 9.515625 -7.664062 9.375 -7.972656 9.09375 -8.234375 C 8.8125 -8.503906 8.296875 -8.8125 7.546875 -9.15625 C 6.804688 -9.507812 6.25 -9.785156 5.875 -9.984375 C 5.507812 -10.179688 5.019531 -10.503906 4.40625 -10.953125 C 3.789062 -11.398438 3.320312 -11.867188 3 -12.359375 C 2.070312 -13.679688 1.609375 -15.363281 1.609375 -17.40625 C 1.609375 -19.457031 2.367188 -21.179688 3.890625 -22.578125 C 5.410156 -23.984375 7.398438 -24.6875 9.859375 -24.6875 C 11.523438 -24.6875 13.066406 -24.503906 14.484375 -24.140625 C 15.898438 -23.785156 16.632812 -23.320312 16.6875 -22.75 C 16.6875 -22.675781 16.6875 -22.601562 16.6875 -22.53125 C 16.6875 -21.71875 16.429688 -20.691406 15.921875 -19.453125 C 15.410156 -18.210938 15.050781 -17.519531 14.84375 -17.375 C 13.351562 -18.144531 12.019531 -18.53125 10.84375 -18.53125 C 9.675781 -18.53125 9.09375 -18.113281 9.09375 -17.28125 C 9.09375 -16.769531 9.519531 -16.316406 10.375 -15.921875 C 10.5625 -15.828125 10.828125 -15.695312 11.171875 -15.53125 C 11.523438 -15.375 11.925781 -15.179688 12.375 -14.953125 C 12.832031 -14.734375 13.320312 -14.457031 13.84375 -14.125 C 14.363281 -13.789062 14.925781 -13.34375 15.53125 -12.78125 C 16.757812 -11.625 17.375 -10.09375 17.375 -8.1875 C 17.375 -5.695312 16.6875 -3.660156 15.3125 -2.078125 C 13.945312 -0.503906 11.835938 0.300781 8.984375 0.34375 C 7.585938 0.34375 6.328125 0.226562 5.203125 0 C 4.078125 -0.226562 3.097656 -0.679688 2.265625 -1.359375 C 1.429688 -2.035156 1.015625 -2.847656 1.015625 -3.796875 C 1.015625 -4.742188 1.1875 -5.6875 1.53125 -6.625 C 1.882812 -7.570312 2.253906 -8.195312 2.640625 -8.5 Z M 2.640625 -8.5 "/></g></g></g><g fill="#000000" fill-opacity="1"><g transform="translate(483.282719, 93.677797)"><g><path d="M 12.21875 -0.5625 C 12.21875 -0.09375 11.066406 0.140625 8.765625 0.140625 C 6.472656 0.140625 5.328125 -0.09375 5.328125 -0.5625 L 5.328125 -18.046875 L 1.15625 -18.046875 C 0.757812 -18.046875 0.476562 -18.578125 0.3125 -19.640625 C 0.238281 -20.148438 0.203125 -20.671875 0.203125 -21.203125 C 0.203125 -21.742188 0.238281 -22.269531 0.3125 -22.78125 C 0.476562 -23.84375 0.757812 -24.375 1.15625 -24.375 L 16.296875 -24.375 C 16.691406 -24.375 16.972656 -23.84375 17.140625 -22.78125 C 17.203125 -22.269531 17.234375 -21.742188 17.234375 -21.203125 C 17.234375 -20.671875 17.203125 -20.148438 17.140625 -19.640625 C 16.972656 -18.578125 16.691406 -18.046875 16.296875 -18.046875 L 12.21875 -18.046875 Z M 12.21875 -0.5625 "/></g></g></g><g clip-path="url(#4d39c24d6d)"><path fill="#15bada" d="M 142.707031 92.304688 C 140.402344 89.695312 139.007812 86.269531 139.007812 82.519531 C 139.007812 78.769531 140.402344 75.34375 142.707031 72.734375 C 141.761719 73.113281 140.847656 73.542969 139.96875 74.015625 C 136.085938 76.097656 132.855469 79.03125 130.609375 82.519531 C 132.855469 86.007812 136.085938 88.941406 139.96875 91.023438 C 140.847656 91.496094 141.761719 91.925781 142.707031 92.304688 Z M 142.707031 92.304688 " fill-opacity="1" fill-rule="nonzero"/></g><g clip-path="url(#51b30575c9)"><path fill="#15bada" d="M 164.902344 72.734375 C 167.207031 75.34375 168.601562 78.769531 168.601562 82.519531 C 168.601562 86.269531 167.207031 89.695312 164.902344 92.304688 C 165.847656 91.925781 166.761719 91.496094 167.640625 91.023438 C 171.523438 88.941406 174.753906 86.007812 177 82.519531 C 174.753906 79.03125 171.523438 76.097656 167.640625 74.015625 C 166.761719 73.542969 165.847656 73.113281 164.902344 72.734375 Z M 164.902344 72.734375 " fill-opacity="1" fill-rule="nonzero"/></g><g clip-path="url(#dc9536da87)"><path fill="#004aad" d="M 157.730469 79.726562 C 158.453125 79.726562 159.035156 80.3125 159.035156 81.035156 C 159.035156 81.757812 158.453125 82.34375 157.730469 82.34375 C 157.007812 82.34375 156.421875 81.757812 156.421875 81.035156 C 156.421875 80.3125 157.007812 79.726562 157.730469 79.726562 Z M 153.804688 71.628906 C 155.953125 71.628906 157.957031 72.25 159.644531 73.324219 C 158.679688 73.703125 157.996094 74.640625 157.996094 75.742188 C 157.996094 77.171875 159.152344 78.332031 160.582031 78.332031 C 161.683594 78.332031 162.621094 77.644531 163 76.679688 C 164.074219 78.367188 164.695312 80.371094 164.695312 82.519531 C 164.695312 88.535156 159.820312 93.410156 153.804688 93.410156 C 147.789062 93.410156 142.914062 88.535156 142.914062 82.519531 C 142.914062 76.503906 147.789062 71.628906 153.804688 71.628906 Z M 153.804688 71.628906 " fill-opacity="1" fill-rule="evenodd"/></g></svg>