<svg xmlns="http://www.w3.org/2000/svg" xmlns:xlink="http://www.w3.org/1999/xlink" width="750" zoomAndPan="magnify" viewBox="0 0 562.5 112.499997" height="150" preserveAspectRatio="xMidYMid meet" version="1.0"><defs><g/><clipPath id="af407ac431"><path d="M 0.996094 0 L 561.007812 0 L 561.007812 112.003906 L 0.996094 112.003906 Z M 0.996094 0 " clip-rule="nonzero"/></clipPath><clipPath id="7679ce7492"><path d="M 506.714844 72 L 519 72 L 519 93 L 506.714844 93 Z M 506.714844 72 " clip-rule="nonzero"/></clipPath><clipPath id="13dc5b2f26"><path d="M 541 72 L 553.011719 72 L 553.011719 93 L 541 93 Z M 541 72 " clip-rule="nonzero"/></clipPath><clipPath id="0893dd41c1"><path d="M 519 71.617188 L 541 71.617188 L 541 93.269531 L 519 93.269531 Z M 519 71.617188 " clip-rule="nonzero"/></clipPath><clipPath id="97b022e9c3"><path d="M 130.609375 72 L 143 72 L 143 93 L 130.609375 93 Z M 130.609375 72 " clip-rule="nonzero"/></clipPath><clipPath id="8b430acd4c"><path d="M 164 72 L 176.90625 72 L 176.90625 93 L 164 93 Z M 164 72 " clip-rule="nonzero"/></clipPath><clipPath id="216e53147b"><path d="M 142 71.617188 L 165 71.617188 L 165 93.269531 L 142 93.269531 Z M 142 71.617188 " clip-rule="nonzero"/></clipPath></defs><g clip-path="url(#af407ac431)"><path fill="#ffffff" d="M 0.996094 0 L 561.007812 0 L 561.007812 112.003906 L 0.996094 112.003906 Z M 0.996094 0 " fill-opacity="1" fill-rule="nonzero"/><path fill="#ffffff" d="M 0.996094 0 L 561.007812 0 L 561.007812 112.003906 L 0.996094 112.003906 Z M 0.996094 0 " fill-opacity="1" fill-rule="nonzero"/></g><g fill="#15bada" fill-opacity="1"><g transform="translate(141.378798, 61.414977)"><g><path d="M 6.71875 0.21875 C 5.4375 0.21875 4.285156 -0.257812 3.265625 -1.21875 C 2.253906 -2.175781 1.75 -3.800781 1.75 -6.09375 C 1.75 -7.601562 1.960938 -9.28125 2.390625 -11.125 C 2.828125 -12.96875 3.359375 -14.878906 3.984375 -16.859375 C 4.609375 -18.835938 5.238281 -20.75 5.875 -22.59375 C 6.507812 -24.4375 7.035156 -26.109375 7.453125 -27.609375 C 7.867188 -29.117188 8.078125 -30.304688 8.078125 -31.171875 C 8.078125 -32.191406 7.679688 -32.703125 6.890625 -32.703125 C 5.953125 -32.703125 5.066406 -32.164062 4.234375 -31.09375 C 3.410156 -30.019531 2.488281 -28.523438 1.46875 -26.609375 L 1.125 -26.71875 C 1.125 -29.6875 1.914062 -32.269531 3.5 -34.46875 C 5.082031 -36.675781 7.21875 -38.382812 9.90625 -39.59375 C 12.601562 -40.800781 15.609375 -41.40625 18.921875 -41.40625 C 22.273438 -41.40625 24.992188 -40.828125 27.078125 -39.671875 C 29.171875 -38.523438 30.71875 -37.039062 31.71875 -35.21875 C 32.71875 -33.394531 33.21875 -31.445312 33.21875 -29.375 C 33.21875 -27.601562 32.882812 -25.84375 32.21875 -24.09375 C 31.5625 -22.34375 30.617188 -20.75 29.390625 -19.3125 C 28.171875 -17.882812 26.734375 -16.738281 25.078125 -15.875 C 23.421875 -15.007812 21.59375 -14.578125 19.59375 -14.578125 C 17.53125 -14.578125 15.382812 -15.101562 13.15625 -16.15625 C 12.664062 -14.3125 12.234375 -12.4375 11.859375 -10.53125 C 11.484375 -8.632812 11.296875 -6.6875 11.296875 -4.6875 C 11.296875 -3.707031 11.351562 -2.726562 11.46875 -1.75 C 10.820312 -1.113281 10.078125 -0.625 9.234375 -0.28125 C 8.390625 0.0507812 7.550781 0.21875 6.71875 0.21875 Z M 15.765625 -20.21875 C 17.265625 -20.21875 18.578125 -20.640625 19.703125 -21.484375 C 20.835938 -22.335938 21.710938 -23.410156 22.328125 -24.703125 C 22.953125 -26.003906 23.265625 -27.316406 23.265625 -28.640625 C 23.265625 -30.179688 22.765625 -31.550781 21.765625 -32.75 C 20.773438 -33.957031 19.148438 -34.5625 16.890625 -34.5625 C 16.585938 -34.5625 16.238281 -34.539062 15.84375 -34.5 C 15.445312 -34.46875 15.039062 -34.414062 14.625 -34.34375 C 14.925781 -33.40625 15.125 -32.472656 15.21875 -31.546875 C 15.3125 -30.617188 15.359375 -29.722656 15.359375 -28.859375 C 15.359375 -27.359375 15.242188 -25.910156 15.015625 -24.515625 C 14.796875 -23.117188 14.535156 -21.742188 14.234375 -20.390625 C 14.765625 -20.273438 15.273438 -20.21875 15.765625 -20.21875 Z M 15.765625 -20.21875 "/></g></g></g><g fill="#15bada" fill-opacity="1"><g transform="translate(176.002121, 61.414977)"><g><path d="M 8.296875 0.21875 C 6.941406 0.21875 5.738281 -0.332031 4.6875 -1.4375 C 3.632812 -2.550781 3.109375 -4.125 3.109375 -6.15625 C 3.109375 -7.132812 3.21875 -8.242188 3.4375 -9.484375 C 3.664062 -10.734375 3.929688 -12.003906 4.234375 -13.296875 C 4.535156 -14.597656 4.796875 -15.820312 5.015625 -16.96875 C 5.242188 -18.125 5.359375 -19.078125 5.359375 -19.828125 C 5.359375 -20.617188 5.21875 -21.25 4.9375 -21.71875 C 4.65625 -22.1875 4.289062 -22.421875 3.84375 -22.421875 C 3.125 -22.421875 2.390625 -21.929688 1.640625 -20.953125 L 1.296875 -21.1875 C 1.265625 -21.78125 1.394531 -22.492188 1.6875 -23.328125 C 1.988281 -24.160156 2.457031 -24.960938 3.09375 -25.734375 C 3.738281 -26.503906 4.5625 -27.148438 5.5625 -27.671875 C 6.5625 -28.203125 7.738281 -28.46875 9.09375 -28.46875 C 11.09375 -28.46875 12.539062 -27.890625 13.4375 -26.734375 C 14.34375 -25.585938 14.796875 -24.207031 14.796875 -22.59375 C 14.796875 -22.332031 14.785156 -22.054688 14.765625 -21.765625 C 14.753906 -21.484375 14.726562 -21.210938 14.6875 -20.953125 C 16.039062 -23.398438 17.460938 -25.273438 18.953125 -26.578125 C 20.441406 -27.878906 21.828125 -28.53125 23.109375 -28.53125 C 24.304688 -28.53125 25.1875 -28.054688 25.75 -27.109375 C 26.320312 -26.171875 26.609375 -25.039062 26.609375 -23.71875 C 26.609375 -22.519531 26.367188 -21.296875 25.890625 -20.046875 C 25.421875 -18.804688 24.722656 -17.78125 23.796875 -16.96875 C 22.878906 -16.164062 21.765625 -15.78125 20.453125 -15.8125 L 20.21875 -15.921875 C 20.1875 -16.898438 19.867188 -17.671875 19.265625 -18.234375 C 18.660156 -18.804688 17.984375 -19.09375 17.234375 -19.09375 C 16.210938 -19.09375 15.257812 -18.582031 14.375 -17.5625 C 13.488281 -16.550781 13.046875 -15.082031 13.046875 -13.15625 C 13.046875 -11.988281 13.175781 -10.726562 13.4375 -9.375 C 13.707031 -8.019531 13.84375 -6.875 13.84375 -5.9375 C 13.84375 -4.800781 13.578125 -3.757812 13.046875 -2.8125 C 12.515625 -1.875 11.832031 -1.132812 11 -0.59375 C 10.175781 -0.0507812 9.273438 0.21875 8.296875 0.21875 Z M 8.296875 0.21875 "/></g></g></g><g fill="#15bada" fill-opacity="1"><g transform="translate(202.605026, 61.414977)"><g><path d="M 13.84375 0.390625 C 11.09375 0.390625 8.8125 -0.160156 7 -1.265625 C 5.195312 -2.378906 3.84375 -3.847656 2.9375 -5.671875 C 2.03125 -7.503906 1.578125 -9.472656 1.578125 -11.578125 C 1.578125 -13.578125 1.960938 -15.582031 2.734375 -17.59375 C 3.503906 -19.601562 4.632812 -21.4375 6.125 -23.09375 C 7.613281 -24.757812 9.421875 -26.097656 11.546875 -27.109375 C 13.679688 -28.128906 16.082031 -28.640625 18.75 -28.640625 C 22.0625 -28.640625 24.476562 -27.894531 26 -26.40625 C 27.53125 -24.914062 28.296875 -23.117188 28.296875 -21.015625 C 28.296875 -19.203125 27.816406 -17.53125 26.859375 -16 C 25.898438 -14.476562 24.628906 -13.253906 23.046875 -12.328125 C 21.460938 -11.410156 19.726562 -10.953125 17.84375 -10.953125 C 16.863281 -10.953125 15.863281 -11.101562 14.84375 -11.40625 C 13.832031 -11.707031 12.835938 -12.179688 11.859375 -12.828125 C 12.046875 -10.484375 12.722656 -8.785156 13.890625 -7.734375 C 15.054688 -6.679688 16.453125 -6.15625 18.078125 -6.15625 C 19.203125 -6.15625 20.328125 -6.367188 21.453125 -6.796875 C 22.585938 -7.234375 23.632812 -7.800781 24.59375 -8.5 C 25.5625 -9.195312 26.304688 -9.941406 26.828125 -10.734375 L 27.21875 -10.453125 C 27.21875 -8.492188 26.8125 -6.828125 26 -5.453125 C 25.195312 -4.078125 24.132812 -2.957031 22.8125 -2.09375 C 21.5 -1.226562 20.0625 -0.597656 18.5 -0.203125 C 16.9375 0.191406 15.382812 0.390625 13.84375 0.390625 Z M 15.140625 -14.859375 C 16.347656 -14.859375 17.328125 -15.207031 18.078125 -15.90625 C 18.828125 -16.601562 19.390625 -17.421875 19.765625 -18.359375 C 20.140625 -19.296875 20.328125 -20.125 20.328125 -20.84375 C 20.328125 -21.707031 20.082031 -22.429688 19.59375 -23.015625 C 19.101562 -23.597656 18.425781 -23.890625 17.5625 -23.890625 C 16.882812 -23.890625 16.140625 -23.644531 15.328125 -23.15625 C 14.523438 -22.664062 13.800781 -21.828125 13.15625 -20.640625 C 12.519531 -19.453125 12.109375 -17.804688 11.921875 -15.703125 C 13.117188 -15.140625 14.191406 -14.859375 15.140625 -14.859375 Z M 15.140625 -14.859375 "/></g></g></g><g fill="#15bada" fill-opacity="1"><g transform="translate(232.032024, 61.414977)"><g><path d="M 12.59375 0.390625 C 10.113281 0.390625 8.015625 -0.171875 6.296875 -1.296875 C 4.585938 -2.429688 3.296875 -3.910156 2.421875 -5.734375 C 1.554688 -7.554688 1.125 -9.523438 1.125 -11.640625 C 1.125 -13.628906 1.507812 -15.617188 2.28125 -17.609375 C 3.0625 -19.609375 4.203125 -21.445312 5.703125 -23.125 C 7.210938 -24.800781 9.046875 -26.140625 11.203125 -27.140625 C 13.367188 -28.140625 15.867188 -28.640625 18.703125 -28.640625 C 21.484375 -28.640625 23.550781 -28.082031 24.90625 -26.96875 C 26.257812 -25.863281 26.9375 -24.648438 26.9375 -23.328125 C 26.9375 -21.929688 26.238281 -20.648438 24.84375 -19.484375 C 23.457031 -18.316406 21.425781 -17.734375 18.75 -17.734375 C 18.90625 -18.296875 19.03125 -18.867188 19.125 -19.453125 C 19.21875 -20.035156 19.265625 -20.59375 19.265625 -21.125 C 19.265625 -21.914062 19.09375 -22.582031 18.75 -23.125 C 18.414062 -23.675781 17.816406 -23.953125 16.953125 -23.953125 C 16.160156 -23.953125 15.320312 -23.59375 14.4375 -22.875 C 13.550781 -22.15625 12.796875 -21.097656 12.171875 -19.703125 C 11.546875 -18.316406 11.234375 -16.609375 11.234375 -14.578125 C 11.234375 -12.578125 11.5625 -10.953125 12.21875 -9.703125 C 12.882812 -8.460938 13.742188 -7.570312 14.796875 -7.03125 C 15.847656 -6.488281 16.957031 -6.21875 18.125 -6.21875 C 19.675781 -6.21875 21.164062 -6.617188 22.59375 -7.421875 C 24.019531 -8.234375 25.054688 -9.351562 25.703125 -10.78125 L 26.265625 -10.5625 C 26.265625 -8.601562 25.820312 -6.9375 24.9375 -5.5625 C 24.050781 -4.1875 22.910156 -3.054688 21.515625 -2.171875 C 20.128906 -1.285156 18.644531 -0.632812 17.0625 -0.21875 C 15.476562 0.1875 13.988281 0.390625 12.59375 0.390625 Z M 12.59375 0.390625 "/></g></g></g><g fill="#15bada" fill-opacity="1"><g transform="translate(259.651612, 61.414977)"><g><path d="M 12.3125 -30.21875 C 10.800781 -30.21875 9.566406 -30.675781 8.609375 -31.59375 C 7.648438 -32.519531 7.171875 -33.679688 7.171875 -35.078125 C 7.171875 -36.585938 7.734375 -37.882812 8.859375 -38.96875 C 9.992188 -40.0625 11.367188 -40.609375 12.984375 -40.609375 C 14.492188 -40.609375 15.726562 -40.132812 16.6875 -39.1875 C 17.644531 -38.25 18.125 -37.085938 18.125 -35.703125 C 18.125 -34.191406 17.5625 -32.898438 16.4375 -31.828125 C 15.3125 -30.753906 13.9375 -30.21875 12.3125 -30.21875 Z M 8.359375 0.21875 C 6.890625 0.21875 5.570312 -0.296875 4.40625 -1.328125 C 3.238281 -2.359375 2.65625 -4.023438 2.65625 -6.328125 C 2.65625 -7.640625 2.832031 -8.867188 3.1875 -10.015625 C 3.550781 -11.171875 3.96875 -12.296875 4.4375 -13.390625 C 4.90625 -14.484375 5.316406 -15.546875 5.671875 -16.578125 C 6.035156 -17.609375 6.21875 -18.632812 6.21875 -19.65625 C 6.21875 -20.5625 6.066406 -21.210938 5.765625 -21.609375 C 5.460938 -22.003906 5.101562 -22.203125 4.6875 -22.203125 C 4.050781 -22.203125 3.429688 -21.785156 2.828125 -20.953125 L 2.421875 -21.1875 C 2.578125 -22.6875 3.054688 -23.972656 3.859375 -25.046875 C 4.671875 -26.117188 5.671875 -26.957031 6.859375 -27.5625 C 8.046875 -28.164062 9.222656 -28.46875 10.390625 -28.46875 C 11.828125 -28.46875 13.070312 -28.003906 14.125 -27.078125 C 15.175781 -26.160156 15.703125 -24.664062 15.703125 -22.59375 C 15.703125 -21.351562 15.519531 -20.046875 15.15625 -18.671875 C 14.800781 -17.296875 14.390625 -15.929688 13.921875 -14.578125 C 13.453125 -13.222656 13.035156 -11.957031 12.671875 -10.78125 C 12.316406 -9.613281 12.140625 -8.617188 12.140625 -7.796875 C 12.140625 -7.078125 12.28125 -6.566406 12.5625 -6.265625 C 12.84375 -5.960938 13.15625 -5.8125 13.5 -5.8125 C 13.84375 -5.8125 14.171875 -5.914062 14.484375 -6.125 C 14.804688 -6.332031 15.039062 -6.566406 15.1875 -6.828125 L 15.59375 -6.71875 C 15.59375 -5.320312 15.222656 -4.109375 14.484375 -3.078125 C 13.753906 -2.046875 12.84375 -1.238281 11.75 -0.65625 C 10.65625 -0.0703125 9.523438 0.21875 8.359375 0.21875 Z M 8.359375 0.21875 "/></g></g></g><g fill="#15bada" fill-opacity="1"><g transform="translate(278.008182, 61.414977)"><g><path d="M 14.015625 0.390625 C 11.179688 0.390625 8.84375 -0.171875 7 -1.296875 C 5.15625 -2.429688 3.789062 -3.925781 2.90625 -5.78125 C 2.019531 -7.644531 1.578125 -9.632812 1.578125 -11.75 C 1.578125 -13.75 1.941406 -15.742188 2.671875 -17.734375 C 3.410156 -19.734375 4.484375 -21.550781 5.890625 -23.1875 C 7.304688 -24.820312 9.03125 -26.140625 11.0625 -27.140625 C 13.101562 -28.140625 15.441406 -28.640625 18.078125 -28.640625 C 20.898438 -28.640625 23.222656 -28.0625 25.046875 -26.90625 C 26.878906 -25.757812 28.234375 -24.242188 29.109375 -22.359375 C 29.992188 -20.484375 30.4375 -18.472656 30.4375 -16.328125 C 30.4375 -14.367188 30.078125 -12.398438 29.359375 -10.421875 C 28.648438 -8.441406 27.585938 -6.632812 26.171875 -5 C 24.765625 -3.363281 23.046875 -2.054688 21.015625 -1.078125 C 18.984375 -0.0976562 16.648438 0.390625 14.015625 0.390625 Z M 15.53125 -4.40625 C 16.550781 -4.40625 17.398438 -4.929688 18.078125 -5.984375 C 18.753906 -7.035156 19.257812 -8.378906 19.59375 -10.015625 C 19.9375 -11.660156 20.109375 -13.332031 20.109375 -15.03125 C 20.109375 -16.53125 19.96875 -17.945312 19.6875 -19.28125 C 19.40625 -20.625 18.976562 -21.71875 18.40625 -22.5625 C 17.84375 -23.414062 17.113281 -23.84375 16.21875 -23.84375 C 15.238281 -23.84375 14.398438 -23.3125 13.703125 -22.25 C 13.003906 -21.195312 12.484375 -19.859375 12.140625 -18.234375 C 11.804688 -16.617188 11.640625 -14.945312 11.640625 -13.21875 C 11.640625 -11.707031 11.78125 -10.285156 12.0625 -8.953125 C 12.34375 -7.617188 12.765625 -6.523438 13.328125 -5.671875 C 13.890625 -4.828125 14.625 -4.40625 15.53125 -4.40625 Z M 15.53125 -4.40625 "/></g></g></g><g fill="#15bada" fill-opacity="1"><g transform="translate(310.033343, 61.414977)"><g><path d="M 9.203125 0.21875 C 7.515625 0.21875 6.09375 -0.472656 4.9375 -1.859375 C 3.789062 -3.253906 3.21875 -5.117188 3.21875 -7.453125 C 3.21875 -8.734375 3.367188 -10.109375 3.671875 -11.578125 C 3.972656 -13.046875 4.273438 -14.441406 4.578125 -15.765625 C 4.835938 -16.742188 5.050781 -17.65625 5.21875 -18.5 C 5.394531 -19.34375 5.484375 -20.03125 5.484375 -20.5625 C 5.484375 -21.238281 5.335938 -21.726562 5.046875 -22.03125 C 4.765625 -22.332031 4.4375 -22.484375 4.0625 -22.484375 C 3.6875 -22.484375 3.3125 -22.359375 2.9375 -22.109375 C 2.5625 -21.867188 2.257812 -21.503906 2.03125 -21.015625 L 1.578125 -21.1875 C 1.578125 -22.726562 1.953125 -24.046875 2.703125 -25.140625 C 3.460938 -26.234375 4.425781 -27.0625 5.59375 -27.625 C 6.757812 -28.1875 7.945312 -28.46875 9.15625 -28.46875 C 10.132812 -28.46875 11.070312 -28.269531 11.96875 -27.875 C 12.875 -27.476562 13.617188 -26.863281 14.203125 -26.03125 C 14.785156 -25.207031 15.078125 -24.175781 15.078125 -22.9375 C 15.078125 -22.175781 14.972656 -21.269531 14.765625 -20.21875 C 14.554688 -19.164062 14.320312 -18.078125 14.0625 -16.953125 C 13.800781 -15.773438 13.546875 -14.59375 13.296875 -13.40625 C 13.054688 -12.226562 12.9375 -11.1875 12.9375 -10.28125 C 12.9375 -9.445312 13.066406 -8.765625 13.328125 -8.234375 C 13.585938 -7.710938 13.984375 -7.453125 14.515625 -7.453125 C 15.492188 -7.453125 16.59375 -8.351562 17.8125 -10.15625 C 19.039062 -11.96875 20.03125 -14.398438 20.78125 -17.453125 C 20.9375 -18.054688 21.066406 -18.695312 21.171875 -19.375 C 21.285156 -20.050781 21.34375 -20.75 21.34375 -21.46875 C 21.34375 -22.03125 21.304688 -22.601562 21.234375 -23.1875 C 21.160156 -23.769531 21.050781 -24.363281 20.90625 -24.96875 L 20.90625 -25.359375 C 21.5 -26.378906 22.273438 -27.148438 23.234375 -27.671875 C 24.203125 -28.203125 25.175781 -28.46875 26.15625 -28.46875 C 27.46875 -28.46875 28.648438 -28.015625 29.703125 -27.109375 C 30.765625 -26.203125 31.296875 -24.882812 31.296875 -23.15625 C 31.296875 -22.144531 31.101562 -20.96875 30.71875 -19.625 C 30.34375 -18.289062 29.929688 -16.910156 29.484375 -15.484375 C 29.035156 -14.085938 28.617188 -12.707031 28.234375 -11.34375 C 27.859375 -9.988281 27.671875 -8.785156 27.671875 -7.734375 C 27.671875 -6.191406 28.21875 -5.421875 29.3125 -5.421875 C 29.613281 -5.421875 29.976562 -5.503906 30.40625 -5.671875 C 30.84375 -5.847656 31.25 -6.195312 31.625 -6.71875 L 32.03125 -6.609375 C 32.03125 -5.253906 31.660156 -4.054688 30.921875 -3.015625 C 30.191406 -1.984375 29.257812 -1.1875 28.125 -0.625 C 27 -0.0625 25.832031 0.21875 24.625 0.21875 C 23.082031 0.21875 21.695312 -0.34375 20.46875 -1.46875 C 19.25 -2.59375 18.640625 -4.4375 18.640625 -7 L 18.640625 -7.109375 C 17.097656 -4.472656 15.5 -2.59375 13.84375 -1.46875 C 12.1875 -0.34375 10.640625 0.21875 9.203125 0.21875 Z M 9.203125 0.21875 "/></g></g></g><g fill="#15bada" fill-opacity="1"><g transform="translate(343.301105, 61.414977)"><g><path d="M 11.296875 0.515625 C 8.960938 0.515625 7.019531 0.195312 5.46875 -0.4375 C 3.925781 -1.082031 2.78125 -1.90625 2.03125 -2.90625 C 1.28125 -3.90625 0.90625 -4.914062 0.90625 -5.9375 C 0.90625 -7.363281 1.546875 -8.628906 2.828125 -9.734375 C 4.109375 -10.847656 5.835938 -11.40625 8.015625 -11.40625 C 8.015625 -9.488281 8.257812 -7.953125 8.75 -6.796875 C 9.238281 -5.648438 9.867188 -4.832031 10.640625 -4.34375 C 11.421875 -3.851562 12.164062 -3.609375 12.875 -3.609375 C 13.738281 -3.609375 14.460938 -3.863281 15.046875 -4.375 C 15.628906 -4.882812 15.921875 -5.515625 15.921875 -6.265625 C 15.921875 -7.316406 15.375 -8.238281 14.28125 -9.03125 C 13.195312 -9.820312 11.785156 -10.707031 10.046875 -11.6875 C 9.179688 -12.21875 8.238281 -12.832031 7.21875 -13.53125 C 6.207031 -14.226562 5.34375 -15.070312 4.625 -16.0625 C 3.914062 -17.0625 3.5625 -18.257812 3.5625 -19.65625 C 3.5625 -21.125 3.984375 -22.421875 4.828125 -23.546875 C 5.671875 -24.679688 6.789062 -25.632812 8.1875 -26.40625 C 9.582031 -27.175781 11.085938 -27.757812 12.703125 -28.15625 C 14.328125 -28.550781 15.910156 -28.75 17.453125 -28.75 C 20.347656 -28.75 22.53125 -28.164062 24 -27 C 25.46875 -25.832031 26.203125 -24.585938 26.203125 -23.265625 C 26.203125 -22.140625 25.632812 -21.125 24.5 -20.21875 C 23.375 -19.3125 21.644531 -18.859375 19.3125 -18.859375 C 19.351562 -20.785156 18.957031 -22.191406 18.125 -23.078125 C 17.300781 -23.960938 16.421875 -24.40625 15.484375 -24.40625 C 14.796875 -24.40625 14.226562 -24.195312 13.78125 -23.78125 C 13.332031 -23.363281 13.109375 -22.757812 13.109375 -21.96875 C 13.109375 -21.0625 13.398438 -20.28125 13.984375 -19.625 C 14.566406 -18.96875 15.300781 -18.382812 16.1875 -17.875 C 17.070312 -17.363281 17.984375 -16.882812 18.921875 -16.4375 C 20.203125 -15.832031 21.40625 -15.191406 22.53125 -14.515625 C 23.664062 -13.835938 24.585938 -13.066406 25.296875 -12.203125 C 26.015625 -11.335938 26.375 -10.28125 26.375 -9.03125 C 26.375 -7.34375 25.6875 -5.769531 24.3125 -4.3125 C 22.9375 -2.863281 21.097656 -1.695312 18.796875 -0.8125 C 16.503906 0.0703125 14.003906 0.515625 11.296875 0.515625 Z M 11.296875 0.515625 "/></g></g></g><g fill="#15bada" fill-opacity="1"><g transform="translate(1.532505, 97.870057)"><g><path d="M 33.109375 0.796875 C 30.148438 0.796875 27.15625 0.457031 24.125 -0.21875 C 21.09375 -0.90625 18.304688 -1.988281 15.765625 -3.46875 C 13.222656 -4.945312 11.171875 -6.878906 9.609375 -9.265625 C 8.054688 -11.660156 7.28125 -14.523438 7.28125 -17.859375 C 7.28125 -18.242188 7.28125 -18.601562 7.28125 -18.9375 C 7.28125 -19.28125 7.316406 -19.71875 7.390625 -20.25 C 7.617188 -22.300781 8.128906 -24.84375 8.921875 -27.875 C 9.722656 -30.914062 10.65625 -34.140625 11.71875 -37.546875 C 12.78125 -40.960938 13.820312 -44.335938 14.84375 -47.671875 C 15.875 -51.015625 16.726562 -54.070312 17.40625 -56.84375 C 18.09375 -59.613281 18.4375 -61.832031 18.4375 -63.5 C 18.4375 -65.320312 17.941406 -66.234375 16.953125 -66.234375 C 15.960938 -66.234375 14.484375 -65.285156 12.515625 -63.390625 C 10.546875 -61.492188 8.269531 -58.34375 5.6875 -53.9375 L 5 -54.171875 C 5 -60.316406 6.382812 -65.566406 9.15625 -69.921875 C 11.925781 -74.285156 15.867188 -77.625 20.984375 -79.9375 C 26.109375 -82.25 32.160156 -83.40625 39.140625 -83.40625 C 45.671875 -83.40625 51.285156 -82.4375 55.984375 -80.5 C 60.691406 -78.570312 64.539062 -75.9375 67.53125 -72.59375 C 70.53125 -69.257812 72.75 -65.445312 74.1875 -61.15625 C 75.632812 -56.875 76.359375 -52.382812 76.359375 -47.6875 C 76.359375 -41.988281 75.351562 -36.273438 73.34375 -30.546875 C 71.332031 -24.828125 68.445312 -19.59375 64.6875 -14.84375 C 60.9375 -10.101562 56.382812 -6.3125 51.03125 -3.46875 C 45.6875 -0.625 39.710938 0.796875 33.109375 0.796875 Z M 35.046875 -14.21875 C 38.078125 -14.21875 40.828125 -15.109375 43.296875 -16.890625 C 45.765625 -18.679688 47.90625 -21.054688 49.71875 -24.015625 C 51.539062 -26.972656 52.945312 -30.253906 53.9375 -33.859375 C 54.925781 -37.460938 55.421875 -41.082031 55.421875 -44.71875 C 55.421875 -49.039062 54.679688 -53.097656 53.203125 -56.890625 C 51.722656 -60.691406 49.347656 -63.765625 46.078125 -66.109375 C 42.816406 -68.460938 38.570312 -69.640625 33.34375 -69.640625 C 33.71875 -68.203125 34 -66.722656 34.1875 -65.203125 C 34.382812 -63.691406 34.484375 -62.140625 34.484375 -60.546875 C 34.484375 -57.054688 34.160156 -53.488281 33.515625 -49.84375 C 32.867188 -46.195312 32.144531 -42.664062 31.34375 -39.25 C 30.550781 -35.84375 29.832031 -32.660156 29.1875 -29.703125 C 28.539062 -26.742188 28.21875 -24.125 28.21875 -21.84375 C 28.21875 -19.5 28.710938 -17.640625 29.703125 -16.265625 C 30.691406 -14.898438 32.472656 -14.21875 35.046875 -14.21875 Z M 35.046875 -14.21875 "/></g></g></g><g fill="#15bada" fill-opacity="1"><g transform="translate(79.817355, 97.870057)"><g><path d="M 16.734375 0.453125 C 13.992188 0.453125 11.5625 -0.664062 9.4375 -2.90625 C 7.320312 -5.144531 6.265625 -8.3125 6.265625 -12.40625 C 6.265625 -14.375 6.488281 -16.609375 6.9375 -19.109375 C 7.394531 -21.617188 7.925781 -24.179688 8.53125 -26.796875 C 9.132812 -29.410156 9.664062 -31.875 10.125 -34.1875 C 10.582031 -36.507812 10.8125 -38.425781 10.8125 -39.9375 C 10.8125 -41.53125 10.523438 -42.800781 9.953125 -43.75 C 9.390625 -44.695312 8.648438 -45.171875 7.734375 -45.171875 C 6.296875 -45.171875 4.816406 -44.1875 3.296875 -42.21875 L 2.625 -42.671875 C 2.539062 -43.890625 2.800781 -45.332031 3.40625 -47 C 4.019531 -48.664062 4.96875 -50.273438 6.25 -51.828125 C 7.539062 -53.390625 9.191406 -54.703125 11.203125 -55.765625 C 13.210938 -56.828125 15.585938 -57.359375 18.328125 -57.359375 C 22.347656 -57.359375 25.265625 -56.195312 27.078125 -53.875 C 28.898438 -51.5625 29.8125 -48.773438 29.8125 -45.515625 C 29.8125 -44.984375 29.789062 -44.429688 29.75 -43.859375 C 29.71875 -43.296875 29.664062 -42.75 29.59375 -42.21875 C 32.320312 -47.144531 35.179688 -50.914062 38.171875 -53.53125 C 41.171875 -56.15625 43.960938 -57.46875 46.546875 -57.46875 C 48.972656 -57.46875 50.753906 -56.519531 51.890625 -54.625 C 53.023438 -52.726562 53.59375 -50.453125 53.59375 -47.796875 C 53.59375 -45.367188 53.117188 -42.898438 52.171875 -40.390625 C 51.222656 -37.890625 49.816406 -35.820312 47.953125 -34.1875 C 46.097656 -32.5625 43.84375 -31.785156 41.1875 -31.859375 L 40.734375 -32.09375 C 40.660156 -34.0625 40.015625 -35.613281 38.796875 -36.75 C 37.585938 -37.894531 36.222656 -38.46875 34.703125 -38.46875 C 32.660156 -38.46875 30.742188 -37.441406 28.953125 -35.390625 C 27.171875 -33.335938 26.28125 -30.378906 26.28125 -26.515625 C 26.28125 -24.160156 26.546875 -21.617188 27.078125 -18.890625 C 27.609375 -16.160156 27.875 -13.847656 27.875 -11.953125 C 27.875 -9.671875 27.34375 -7.582031 26.28125 -5.6875 C 25.21875 -3.789062 23.851562 -2.289062 22.1875 -1.1875 C 20.519531 -0.09375 18.703125 0.453125 16.734375 0.453125 Z M 16.734375 0.453125 "/></g></g></g><g clip-path="url(#7679ce7492)"><path fill="#15bada" d="M 518.8125 92.304688 C 516.507812 89.695312 515.113281 86.269531 515.113281 82.519531 C 515.113281 78.769531 516.507812 75.34375 518.8125 72.734375 C 517.867188 73.113281 516.953125 73.542969 516.074219 74.015625 C 512.191406 76.097656 508.960938 79.03125 506.714844 82.519531 C 508.960938 86.007812 512.191406 88.941406 516.074219 91.023438 C 516.953125 91.496094 517.867188 91.925781 518.8125 92.304688 Z M 518.8125 92.304688 " fill-opacity="1" fill-rule="nonzero"/></g><g clip-path="url(#13dc5b2f26)"><path fill="#15bada" d="M 541.007812 72.734375 C 543.308594 75.34375 544.707031 78.769531 544.707031 82.519531 C 544.707031 86.269531 543.3125 89.695312 541.007812 92.304688 C 541.953125 91.925781 542.867188 91.496094 543.746094 91.023438 C 547.628906 88.941406 550.859375 86.007812 553.105469 82.519531 C 550.859375 79.03125 547.628906 76.097656 543.746094 74.015625 C 542.867188 73.542969 541.953125 73.113281 541.007812 72.734375 Z M 541.007812 72.734375 " fill-opacity="1" fill-rule="nonzero"/></g><g clip-path="url(#0893dd41c1)"><path fill="#004aad" d="M 533.835938 79.726562 C 534.554688 79.726562 535.140625 80.3125 535.140625 81.035156 C 535.140625 81.757812 534.554688 82.34375 533.835938 82.34375 C 533.113281 82.34375 532.527344 81.757812 532.527344 81.035156 C 532.527344 80.3125 533.113281 79.726562 533.835938 79.726562 Z M 529.910156 71.628906 C 532.058594 71.628906 534.0625 72.25 535.75 73.324219 C 534.785156 73.703125 534.097656 74.640625 534.097656 75.742188 C 534.097656 77.171875 535.257812 78.332031 536.6875 78.332031 C 537.789062 78.332031 538.726562 77.644531 539.105469 76.679688 C 540.179688 78.367188 540.800781 80.371094 540.800781 82.519531 C 540.800781 88.535156 535.925781 93.410156 529.910156 93.410156 C 523.894531 93.410156 519.019531 88.535156 519.019531 82.519531 C 519.019531 76.503906 523.894531 71.628906 529.910156 71.628906 Z M 529.910156 71.628906 " fill-opacity="1" fill-rule="evenodd"/></g><g fill="#15bada" fill-opacity="1"><g transform="translate(376.24074, 61.414947)"><g><path d="M 11.46875 0.34375 C 8.945312 0.34375 6.863281 -0.0859375 5.21875 -0.953125 C 3.582031 -1.828125 2.367188 -2.941406 1.578125 -4.296875 C 0.785156 -5.648438 0.390625 -7.039062 0.390625 -8.46875 C 0.390625 -9.863281 0.726562 -11.191406 1.40625 -12.453125 C 2.082031 -13.710938 3.050781 -14.753906 4.3125 -15.578125 C 5.582031 -16.410156 7.082031 -16.828125 8.8125 -16.828125 C 8.769531 -16.492188 8.75 -16.1875 8.75 -15.90625 C 8.75 -15.625 8.75 -15.484375 8.75 -15.484375 C 8.75 -12.953125 8.992188 -10.960938 9.484375 -9.515625 C 9.972656 -8.066406 10.59375 -7.03125 11.34375 -6.40625 C 12.101562 -5.789062 12.878906 -5.484375 13.671875 -5.484375 C 14.878906 -5.484375 15.953125 -5.960938 16.890625 -6.921875 C 17.828125 -7.878906 18.296875 -9 18.296875 -10.28125 C 18.296875 -11.707031 17.679688 -12.96875 16.453125 -14.0625 C 15.234375 -15.15625 13.6875 -16.359375 11.8125 -17.671875 C 10.75 -18.460938 9.625 -19.359375 8.4375 -20.359375 C 7.257812 -21.359375 6.253906 -22.546875 5.421875 -23.921875 C 4.597656 -25.296875 4.1875 -26.925781 4.1875 -28.8125 C 4.1875 -30.769531 4.644531 -32.5 5.5625 -34 C 6.488281 -35.507812 7.710938 -36.78125 9.234375 -37.8125 C 10.753906 -38.851562 12.425781 -39.644531 14.25 -40.1875 C 16.082031 -40.726562 17.90625 -41 19.71875 -41 C 21.9375 -41 23.757812 -40.640625 25.1875 -39.921875 C 26.625 -39.210938 27.695312 -38.289062 28.40625 -37.15625 C 29.125 -36.03125 29.484375 -34.867188 29.484375 -33.671875 C 29.484375 -32.535156 29.171875 -31.445312 28.546875 -30.40625 C 27.929688 -29.375 27.019531 -28.535156 25.8125 -27.890625 C 24.601562 -27.253906 23.113281 -26.9375 21.34375 -26.9375 C 21.457031 -27.46875 21.535156 -27.945312 21.578125 -28.375 C 21.617188 -28.8125 21.640625 -29.203125 21.640625 -29.546875 C 21.640625 -31.421875 21.234375 -32.765625 20.421875 -33.578125 C 19.609375 -34.390625 18.710938 -34.796875 17.734375 -34.796875 C 16.796875 -34.796875 15.890625 -34.445312 15.015625 -33.75 C 14.148438 -33.050781 13.71875 -31.929688 13.71875 -30.390625 C 13.71875 -29.066406 14.066406 -27.9375 14.765625 -27 C 15.460938 -26.0625 16.363281 -25.234375 17.46875 -24.515625 C 18.582031 -23.796875 19.765625 -23.097656 21.015625 -22.421875 C 22.296875 -21.742188 23.523438 -21 24.703125 -20.1875 C 25.890625 -19.382812 26.878906 -18.4375 27.671875 -17.34375 C 28.460938 -16.25 28.859375 -14.875 28.859375 -13.21875 C 28.859375 -11.488281 28.390625 -9.800781 27.453125 -8.15625 C 26.515625 -6.519531 25.234375 -5.070312 23.609375 -3.8125 C 21.992188 -2.550781 20.140625 -1.539062 18.046875 -0.78125 C 15.953125 -0.03125 13.757812 0.34375 11.46875 0.34375 Z M 11.46875 0.34375 "/></g></g></g><g fill="#15bada" fill-opacity="1"><g transform="translate(404.820151, 61.414947)"><g><path d="M 12.3125 -30.21875 C 10.800781 -30.21875 9.566406 -30.675781 8.609375 -31.59375 C 7.648438 -32.519531 7.171875 -33.679688 7.171875 -35.078125 C 7.171875 -36.585938 7.734375 -37.882812 8.859375 -38.96875 C 9.992188 -40.0625 11.367188 -40.609375 12.984375 -40.609375 C 14.492188 -40.609375 15.726562 -40.132812 16.6875 -39.1875 C 17.644531 -38.25 18.125 -37.085938 18.125 -35.703125 C 18.125 -34.191406 17.5625 -32.898438 16.4375 -31.828125 C 15.3125 -30.753906 13.9375 -30.21875 12.3125 -30.21875 Z M 8.359375 0.21875 C 6.890625 0.21875 5.570312 -0.296875 4.40625 -1.328125 C 3.238281 -2.359375 2.65625 -4.023438 2.65625 -6.328125 C 2.65625 -7.640625 2.832031 -8.867188 3.1875 -10.015625 C 3.550781 -11.171875 3.96875 -12.296875 4.4375 -13.390625 C 4.90625 -14.484375 5.316406 -15.546875 5.671875 -16.578125 C 6.035156 -17.609375 6.21875 -18.632812 6.21875 -19.65625 C 6.21875 -20.5625 6.066406 -21.210938 5.765625 -21.609375 C 5.460938 -22.003906 5.101562 -22.203125 4.6875 -22.203125 C 4.050781 -22.203125 3.429688 -21.785156 2.828125 -20.953125 L 2.421875 -21.1875 C 2.578125 -22.6875 3.054688 -23.972656 3.859375 -25.046875 C 4.671875 -26.117188 5.671875 -26.957031 6.859375 -27.5625 C 8.046875 -28.164062 9.222656 -28.46875 10.390625 -28.46875 C 11.828125 -28.46875 13.070312 -28.003906 14.125 -27.078125 C 15.175781 -26.160156 15.703125 -24.664062 15.703125 -22.59375 C 15.703125 -21.351562 15.519531 -20.046875 15.15625 -18.671875 C 14.800781 -17.296875 14.390625 -15.929688 13.921875 -14.578125 C 13.453125 -13.222656 13.035156 -11.957031 12.671875 -10.78125 C 12.316406 -9.613281 12.140625 -8.617188 12.140625 -7.796875 C 12.140625 -7.078125 12.28125 -6.566406 12.5625 -6.265625 C 12.84375 -5.960938 13.15625 -5.8125 13.5 -5.8125 C 13.84375 -5.8125 14.171875 -5.914062 14.484375 -6.125 C 14.804688 -6.332031 15.039062 -6.566406 15.1875 -6.828125 L 15.59375 -6.71875 C 15.59375 -5.320312 15.222656 -4.109375 14.484375 -3.078125 C 13.753906 -2.046875 12.84375 -1.238281 11.75 -0.65625 C 10.65625 -0.0703125 9.523438 0.21875 8.359375 0.21875 Z M 8.359375 0.21875 "/></g></g></g><g fill="#15bada" fill-opacity="1"><g transform="translate(421.086531, 61.414947)"><g><path d="M 9.71875 0.21875 C 8.507812 0.21875 7.367188 -0.0507812 6.296875 -0.59375 C 5.222656 -1.132812 4.359375 -1.988281 3.703125 -3.15625 C 3.046875 -4.332031 2.71875 -5.820312 2.71875 -7.625 C 2.71875 -8.601562 2.8125 -9.882812 3 -11.46875 C 3.1875 -13.050781 3.4375 -14.78125 3.75 -16.65625 C 4.070312 -18.539062 4.40625 -20.425781 4.75 -22.3125 C 3.988281 -22.269531 3.257812 -22.191406 2.5625 -22.078125 C 1.875 -21.972656 1.191406 -21.84375 0.515625 -21.6875 L 0.390625 -22.078125 C 1.148438 -22.984375 1.941406 -23.753906 2.765625 -24.390625 C 3.597656 -25.035156 4.460938 -25.566406 5.359375 -25.984375 C 5.847656 -28.460938 6.257812 -30.613281 6.59375 -32.4375 C 6.9375 -34.269531 7.109375 -35.359375 7.109375 -35.703125 C 7.109375 -36.335938 7.609375 -36.863281 8.609375 -37.28125 C 9.609375 -37.695312 10.726562 -37.90625 11.96875 -37.90625 C 13.0625 -37.90625 14.085938 -37.695312 15.046875 -37.28125 C 16.015625 -36.863281 16.664062 -36.164062 17 -35.1875 C 16.769531 -34.957031 16.445312 -34.117188 16.03125 -32.671875 C 15.625 -31.222656 15.195312 -29.460938 14.75 -27.390625 C 15.457031 -27.359375 16.1875 -27.320312 16.9375 -27.28125 C 17.695312 -27.238281 18.472656 -27.179688 19.265625 -27.109375 C 19.335938 -26.890625 19.390625 -26.644531 19.421875 -26.375 C 19.460938 -26.113281 19.484375 -25.832031 19.484375 -25.53125 C 19.484375 -24.96875 19.398438 -24.351562 19.234375 -23.6875 C 19.066406 -23.03125 18.867188 -22.441406 18.640625 -21.921875 C 17.734375 -21.992188 16.882812 -22.078125 16.09375 -22.171875 C 15.300781 -22.265625 14.53125 -22.332031 13.78125 -22.375 C 13.476562 -20.75 13.203125 -19.125 12.953125 -17.5 C 12.710938 -15.882812 12.523438 -14.414062 12.390625 -13.09375 C 12.265625 -11.78125 12.203125 -10.75 12.203125 -10 C 12.203125 -8.414062 12.492188 -7.359375 13.078125 -6.828125 C 13.660156 -6.304688 14.363281 -6.046875 15.1875 -6.046875 C 15.945312 -6.046875 16.625 -6.195312 17.21875 -6.5 C 17.820312 -6.800781 18.257812 -7.15625 18.53125 -7.5625 L 19.09375 -7.40625 C 18.863281 -5.851562 18.257812 -4.503906 17.28125 -3.359375 C 16.300781 -2.210938 15.132812 -1.328125 13.78125 -0.703125 C 12.425781 -0.0859375 11.070312 0.21875 9.71875 0.21875 Z M 9.71875 0.21875 "/></g></g></g><g fill="#15bada" fill-opacity="1"><g transform="translate(438.934403, 61.414947)"><g><path d="M 7.34375 0.21875 C 5.726562 0.21875 4.429688 -0.320312 3.453125 -1.40625 C 2.472656 -2.5 1.984375 -3.988281 1.984375 -5.875 C 1.984375 -6.894531 2.113281 -8.222656 2.375 -9.859375 C 2.632812 -11.492188 2.960938 -13.300781 3.359375 -15.28125 C 3.753906 -17.257812 4.140625 -19.273438 4.515625 -21.328125 C 4.890625 -23.378906 5.207031 -25.363281 5.46875 -27.28125 C 5.738281 -29.195312 5.875 -30.890625 5.875 -32.359375 C 5.875 -34.210938 5.628906 -35.550781 5.140625 -36.375 L 5.140625 -36.71875 C 5.960938 -37.65625 6.863281 -38.347656 7.84375 -38.796875 C 8.820312 -39.253906 9.785156 -39.484375 10.734375 -39.484375 C 12.160156 -39.484375 13.378906 -38.972656 14.390625 -37.953125 C 15.410156 -36.941406 15.921875 -35.414062 15.921875 -33.375 C 15.921875 -32.289062 15.769531 -30.957031 15.46875 -29.375 C 15.175781 -27.789062 14.820312 -26.128906 14.40625 -24.390625 C 13.988281 -22.660156 13.570312 -21.046875 13.15625 -19.546875 C 13.875 -20.941406 14.828125 -22.320312 16.015625 -23.6875 C 17.203125 -25.0625 18.554688 -26.203125 20.078125 -27.109375 C 21.609375 -28.015625 23.203125 -28.46875 24.859375 -28.46875 C 26.734375 -28.46875 28 -27.882812 28.65625 -26.71875 C 29.320312 -25.550781 29.65625 -24.101562 29.65625 -22.375 C 29.65625 -20.789062 29.484375 -19.101562 29.140625 -17.3125 C 28.804688 -15.519531 28.46875 -13.804688 28.125 -12.171875 C 27.789062 -10.535156 27.625 -9.171875 27.625 -8.078125 C 27.625 -6.492188 28.09375 -5.703125 29.03125 -5.703125 C 29.445312 -5.703125 29.8125 -5.820312 30.125 -6.0625 C 30.445312 -6.3125 30.6875 -6.585938 30.84375 -6.890625 L 31.234375 -6.609375 C 31.234375 -5.140625 30.875 -3.894531 30.15625 -2.875 C 29.445312 -1.863281 28.535156 -1.09375 27.421875 -0.5625 C 26.304688 -0.0390625 25.164062 0.21875 24 0.21875 C 22.457031 0.21875 21.066406 -0.296875 19.828125 -1.328125 C 18.585938 -2.359375 17.96875 -4.039062 17.96875 -6.375 C 17.96875 -7.695312 18.144531 -9.128906 18.5 -10.671875 C 18.851562 -12.210938 19.195312 -13.707031 19.53125 -15.15625 C 19.875 -16.613281 20.046875 -17.832031 20.046875 -18.8125 C 20.046875 -20.09375 19.597656 -20.734375 18.703125 -20.734375 C 17.867188 -20.734375 16.960938 -20.316406 15.984375 -19.484375 C 15.003906 -18.660156 14.144531 -17.625 13.40625 -16.375 C 12.675781 -15.132812 12.195312 -13.910156 11.96875 -12.703125 C 11.894531 -12.398438 11.859375 -12.046875 11.859375 -11.640625 C 11.859375 -10.691406 12 -9.785156 12.28125 -8.921875 C 12.5625 -8.054688 12.703125 -7.039062 12.703125 -5.875 C 12.703125 -4.144531 12.25 -2.695312 11.34375 -1.53125 C 10.445312 -0.363281 9.113281 0.21875 7.34375 0.21875 Z M 7.34375 0.21875 "/></g></g></g><g fill="#15bada" fill-opacity="1"><g transform="translate(469.377711, 61.414947)"><g><path d="M 14.015625 0.390625 C 11.179688 0.390625 8.84375 -0.171875 7 -1.296875 C 5.15625 -2.429688 3.789062 -3.925781 2.90625 -5.78125 C 2.019531 -7.644531 1.578125 -9.632812 1.578125 -11.75 C 1.578125 -13.75 1.941406 -15.742188 2.671875 -17.734375 C 3.410156 -19.734375 4.484375 -21.550781 5.890625 -23.1875 C 7.304688 -24.820312 9.03125 -26.140625 11.0625 -27.140625 C 13.101562 -28.140625 15.441406 -28.640625 18.078125 -28.640625 C 20.898438 -28.640625 23.222656 -28.0625 25.046875 -26.90625 C 26.878906 -25.757812 28.234375 -24.242188 29.109375 -22.359375 C 29.992188 -20.484375 30.4375 -18.472656 30.4375 -16.328125 C 30.4375 -14.367188 30.078125 -12.398438 29.359375 -10.421875 C 28.648438 -8.441406 27.585938 -6.632812 26.171875 -5 C 24.765625 -3.363281 23.046875 -2.054688 21.015625 -1.078125 C 18.984375 -0.0976562 16.648438 0.390625 14.015625 0.390625 Z M 15.53125 -4.40625 C 16.550781 -4.40625 17.398438 -4.929688 18.078125 -5.984375 C 18.753906 -7.035156 19.257812 -8.378906 19.59375 -10.015625 C 19.9375 -11.660156 20.109375 -13.332031 20.109375 -15.03125 C 20.109375 -16.53125 19.96875 -17.945312 19.6875 -19.28125 C 19.40625 -20.625 18.976562 -21.71875 18.40625 -22.5625 C 17.84375 -23.414062 17.113281 -23.84375 16.21875 -23.84375 C 15.238281 -23.84375 14.398438 -23.3125 13.703125 -22.25 C 13.003906 -21.195312 12.484375 -19.859375 12.140625 -18.234375 C 11.804688 -16.617188 11.640625 -14.945312 11.640625 -13.21875 C 11.640625 -11.707031 11.78125 -10.285156 12.0625 -8.953125 C 12.34375 -7.617188 12.765625 -6.523438 13.328125 -5.671875 C 13.890625 -4.828125 14.625 -4.40625 15.53125 -4.40625 Z M 15.53125 -4.40625 "/></g></g></g><g fill="#15bada" fill-opacity="1"><g transform="translate(499.312677, 61.414947)"><g><path d="M 8.140625 0.21875 C 7.117188 0.21875 6.128906 -0.03125 5.171875 -0.53125 C 4.210938 -1.039062 3.429688 -1.859375 2.828125 -2.984375 C 2.222656 -4.117188 1.921875 -5.570312 1.921875 -7.34375 C 1.921875 -8.925781 2.132812 -10.78125 2.5625 -12.90625 C 3 -15.03125 3.488281 -17.238281 4.03125 -19.53125 C 4.582031 -21.832031 5.0625 -24.078125 5.46875 -26.265625 C 5.882812 -28.453125 6.078125 -30.390625 6.046875 -32.078125 C 6.046875 -33.703125 5.859375 -34.851562 5.484375 -35.53125 L 5.421875 -35.703125 C 5.835938 -36.898438 6.570312 -37.835938 7.625 -38.515625 C 8.675781 -39.203125 9.785156 -39.546875 10.953125 -39.546875 C 12.273438 -39.546875 13.453125 -39.046875 14.484375 -38.046875 C 15.523438 -37.046875 16.046875 -35.378906 16.046875 -33.046875 C 16.046875 -31.796875 15.894531 -30.316406 15.59375 -28.609375 C 15.289062 -26.898438 14.929688 -25.070312 14.515625 -23.125 C 14.097656 -21.1875 13.671875 -19.273438 13.234375 -17.390625 C 12.804688 -15.515625 12.441406 -13.785156 12.140625 -12.203125 C 11.835938 -10.617188 11.6875 -9.316406 11.6875 -8.296875 C 11.6875 -7.242188 11.835938 -6.519531 12.140625 -6.125 C 12.441406 -5.726562 12.78125 -5.53125 13.15625 -5.53125 C 13.570312 -5.53125 13.96875 -5.691406 14.34375 -6.015625 C 14.71875 -6.335938 14.960938 -6.628906 15.078125 -6.890625 L 15.53125 -6.78125 C 15.5 -5.425781 15.113281 -4.21875 14.375 -3.15625 C 13.644531 -2.101562 12.722656 -1.273438 11.609375 -0.671875 C 10.492188 -0.078125 9.335938 0.21875 8.140625 0.21875 Z M 8.140625 0.21875 "/></g></g></g><g fill="#15bada" fill-opacity="1"><g transform="translate(514.505907, 61.414947)"><g><path d="M 13.84375 0.390625 C 11.09375 0.390625 8.8125 -0.160156 7 -1.265625 C 5.195312 -2.378906 3.84375 -3.847656 2.9375 -5.671875 C 2.03125 -7.503906 1.578125 -9.472656 1.578125 -11.578125 C 1.578125 -13.578125 1.960938 -15.582031 2.734375 -17.59375 C 3.503906 -19.601562 4.632812 -21.4375 6.125 -23.09375 C 7.613281 -24.757812 9.421875 -26.097656 11.546875 -27.109375 C 13.679688 -28.128906 16.082031 -28.640625 18.75 -28.640625 C 22.0625 -28.640625 24.476562 -27.894531 26 -26.40625 C 27.53125 -24.914062 28.296875 -23.117188 28.296875 -21.015625 C 28.296875 -19.203125 27.816406 -17.53125 26.859375 -16 C 25.898438 -14.476562 24.628906 -13.253906 23.046875 -12.328125 C 21.460938 -11.410156 19.726562 -10.953125 17.84375 -10.953125 C 16.863281 -10.953125 15.863281 -11.101562 14.84375 -11.40625 C 13.832031 -11.707031 12.835938 -12.179688 11.859375 -12.828125 C 12.046875 -10.484375 12.722656 -8.785156 13.890625 -7.734375 C 15.054688 -6.679688 16.453125 -6.15625 18.078125 -6.15625 C 19.203125 -6.15625 20.328125 -6.367188 21.453125 -6.796875 C 22.585938 -7.234375 23.632812 -7.800781 24.59375 -8.5 C 25.5625 -9.195312 26.304688 -9.941406 26.828125 -10.734375 L 27.21875 -10.453125 C 27.21875 -8.492188 26.8125 -6.828125 26 -5.453125 C 25.195312 -4.078125 24.132812 -2.957031 22.8125 -2.09375 C 21.5 -1.226562 20.0625 -0.597656 18.5 -0.203125 C 16.9375 0.191406 15.382812 0.390625 13.84375 0.390625 Z M 15.140625 -14.859375 C 16.347656 -14.859375 17.328125 -15.207031 18.078125 -15.90625 C 18.828125 -16.601562 19.390625 -17.421875 19.765625 -18.359375 C 20.140625 -19.296875 20.328125 -20.125 20.328125 -20.84375 C 20.328125 -21.707031 20.082031 -22.429688 19.59375 -23.015625 C 19.101562 -23.597656 18.425781 -23.890625 17.5625 -23.890625 C 16.882812 -23.890625 16.140625 -23.644531 15.328125 -23.15625 C 14.523438 -22.664062 13.800781 -21.828125 13.15625 -20.640625 C 12.519531 -19.453125 12.109375 -17.804688 11.921875 -15.703125 C 13.117188 -15.140625 14.191406 -14.859375 15.140625 -14.859375 Z M 15.140625 -14.859375 "/></g></g></g><g fill="#000000" fill-opacity="1"><g transform="translate(183.252835, 93.677804)"><g><path d="M 12.09375 0.34375 C 8.832031 0.34375 6.175781 -0.722656 4.125 -2.859375 C 2.070312 -4.992188 1.046875 -8.109375 1.046875 -12.203125 C 1.046875 -16.304688 2.082031 -19.410156 4.15625 -21.515625 C 6.238281 -23.628906 8.921875 -24.6875 12.203125 -24.6875 C 15.492188 -24.6875 18.148438 -23.644531 20.171875 -21.5625 C 22.191406 -19.488281 23.203125 -16.34375 23.203125 -12.125 C 23.203125 -7.914062 22.164062 -4.785156 20.09375 -2.734375 C 18.03125 -0.679688 15.363281 0.34375 12.09375 0.34375 Z M 12.125 -18 C 11.007812 -18 10.070312 -17.488281 9.3125 -16.46875 C 8.5625 -15.445312 8.1875 -14.015625 8.1875 -12.171875 C 8.1875 -10.328125 8.546875 -8.910156 9.265625 -7.921875 C 9.984375 -6.929688 10.925781 -6.4375 12.09375 -6.4375 C 13.269531 -6.4375 14.222656 -6.9375 14.953125 -7.9375 C 15.691406 -8.9375 16.0625 -10.363281 16.0625 -12.21875 C 16.0625 -14.082031 15.679688 -15.507812 14.921875 -16.5 C 14.171875 -17.5 13.238281 -18 12.125 -18 Z M 12.125 -18 "/></g></g></g><g fill="#000000" fill-opacity="1"><g transform="translate(207.875115, 93.677804)"><g><path d="M 4.765625 0.0625 C 2.660156 0.0625 1.609375 -0.164062 1.609375 -0.625 L 1.609375 -23.203125 C 1.609375 -23.984375 1.96875 -24.375 2.6875 -24.375 L 8.8125 -24.375 C 12.25 -24.375 14.726562 -23.664062 16.25 -22.25 C 17.769531 -20.832031 18.53125 -18.78125 18.53125 -16.09375 C 18.53125 -13.863281 17.8125 -11.816406 16.375 -9.953125 C 15.65625 -9.023438 14.597656 -8.28125 13.203125 -7.71875 C 11.804688 -7.164062 10.179688 -6.890625 8.328125 -6.890625 L 8.328125 -0.65625 C 8.328125 -0.382812 7.890625 -0.195312 7.015625 -0.09375 C 6.148438 0.0078125 5.398438 0.0625 4.765625 0.0625 Z M 8.328125 -18.3125 L 8.328125 -12.8125 L 8.78125 -12.8125 C 9.59375 -12.8125 10.273438 -13.066406 10.828125 -13.578125 C 11.390625 -14.085938 11.671875 -14.804688 11.671875 -15.734375 C 11.671875 -16.671875 11.476562 -17.332031 11.09375 -17.71875 C 10.707031 -18.113281 10.03125 -18.3125 9.0625 -18.3125 Z M 8.328125 -18.3125 "/></g></g></g><g fill="#000000" fill-opacity="1"><g transform="translate(228.109295, 93.677804)"><g><path d="M 20.6875 -0.59375 C 20.6875 -0.195312 19.515625 0 17.171875 0 C 14.828125 0 13.65625 -0.195312 13.65625 -0.59375 L 13.65625 -8.609375 L 8.78125 -8.609375 L 8.78125 -0.59375 C 8.78125 -0.195312 7.601562 0 5.25 0 C 2.90625 0 1.734375 -0.195312 1.734375 -0.59375 L 1.734375 -23.6875 C 1.734375 -24.175781 2.90625 -24.421875 5.25 -24.421875 C 7.601562 -24.421875 8.78125 -24.175781 8.78125 -23.6875 L 8.78125 -15.5 L 13.65625 -15.5 L 13.65625 -23.609375 C 13.65625 -23.929688 14.234375 -24.164062 15.390625 -24.3125 C 15.992188 -24.351562 16.585938 -24.375 17.171875 -24.375 L 18.953125 -24.3125 C 20.109375 -24.164062 20.6875 -23.929688 20.6875 -23.609375 Z M 20.6875 -0.59375 "/></g></g></g><g fill="#000000" fill-opacity="1"><g transform="translate(250.920608, 93.677804)"><g><path d="M 12.21875 -0.5625 C 12.21875 -0.09375 11.066406 0.140625 8.765625 0.140625 C 6.472656 0.140625 5.328125 -0.09375 5.328125 -0.5625 L 5.328125 -18.046875 L 1.15625 -18.046875 C 0.757812 -18.046875 0.476562 -18.578125 0.3125 -19.640625 C 0.238281 -20.148438 0.203125 -20.671875 0.203125 -21.203125 C 0.203125 -21.742188 0.238281 -22.269531 0.3125 -22.78125 C 0.476562 -23.84375 0.757812 -24.375 1.15625 -24.375 L 16.296875 -24.375 C 16.691406 -24.375 16.972656 -23.84375 17.140625 -22.78125 C 17.203125 -22.269531 17.234375 -21.742188 17.234375 -21.203125 C 17.234375 -20.671875 17.203125 -20.148438 17.140625 -19.640625 C 16.972656 -18.578125 16.691406 -18.046875 16.296875 -18.046875 L 12.21875 -18.046875 Z M 12.21875 -0.5625 "/></g></g></g><g fill="#000000" fill-opacity="1"><g transform="translate(268.7866, 93.677804)"><g><path d="M 20.6875 -0.59375 C 20.6875 -0.195312 19.515625 0 17.171875 0 C 14.828125 0 13.65625 -0.195312 13.65625 -0.59375 L 13.65625 -8.609375 L 8.78125 -8.609375 L 8.78125 -0.59375 C 8.78125 -0.195312 7.601562 0 5.25 0 C 2.90625 0 1.734375 -0.195312 1.734375 -0.59375 L 1.734375 -23.6875 C 1.734375 -24.175781 2.90625 -24.421875 5.25 -24.421875 C 7.601562 -24.421875 8.78125 -24.175781 8.78125 -23.6875 L 8.78125 -15.5 L 13.65625 -15.5 L 13.65625 -23.609375 C 13.65625 -23.929688 14.234375 -24.164062 15.390625 -24.3125 C 15.992188 -24.351562 16.585938 -24.375 17.171875 -24.375 L 18.953125 -24.3125 C 20.109375 -24.164062 20.6875 -23.929688 20.6875 -23.609375 Z M 20.6875 -0.59375 "/></g></g></g><g fill="#000000" fill-opacity="1"><g transform="translate(291.597913, 93.677804)"><g><path d="M 18.109375 0.0625 C 16.085938 0.0625 15 -0.257812 14.84375 -0.90625 L 13.6875 -5.390625 L 8.15625 -5.390625 L 7.140625 -1.078125 C 7.003906 -0.359375 5.890625 0 3.796875 0 C 2.679688 0 1.851562 -0.0625 1.3125 -0.1875 C 0.78125 -0.320312 0.515625 -0.421875 0.515625 -0.484375 L 6.6875 -24.0625 C 6.6875 -24.25 8.273438 -24.34375 11.453125 -24.34375 C 14.640625 -24.34375 16.234375 -24.25 16.234375 -24.0625 L 22.25 -0.453125 C 22.25 -0.285156 21.710938 -0.15625 20.640625 -0.0625 C 19.578125 0.0195312 18.734375 0.0625 18.109375 0.0625 Z M 9.015625 -9.828125 L 12.671875 -9.828125 L 11.109375 -17.03125 L 10.90625 -17.03125 Z M 9.015625 -9.828125 "/></g></g></g><g fill="#000000" fill-opacity="1"><g transform="translate(314.792321, 93.677804)"><g><path d="M 1.390625 -2.0625 L 1.390625 -23.71875 C 1.390625 -24.207031 2.566406 -24.453125 4.921875 -24.453125 C 7.285156 -24.453125 8.46875 -24.207031 8.46875 -23.71875 L 8.46875 -6.65625 L 13.828125 -6.65625 C 14.242188 -6.65625 14.535156 -6.109375 14.703125 -5.015625 C 14.765625 -4.484375 14.796875 -3.9375 14.796875 -3.375 C 14.796875 -2.820312 14.765625 -2.253906 14.703125 -1.671875 C 14.515625 -0.554688 14.210938 0 13.796875 0 L 3.0625 0 C 2.550781 0 2.144531 -0.207031 1.84375 -0.625 C 1.539062 -1.039062 1.390625 -1.519531 1.390625 -2.0625 Z M 1.390625 -2.0625 "/></g></g></g><g fill="#000000" fill-opacity="1"><g transform="translate(330.324963, 93.677804)"><g><path d="M 26.125 0.03125 C 24.050781 0.03125 23.015625 -0.195312 23.015625 -0.65625 L 22.296875 -14.625 L 18.046875 -0.484375 C 17.953125 -0.203125 17.160156 -0.0625 15.671875 -0.0625 C 14.179688 -0.0625 13.414062 -0.191406 13.375 -0.453125 L 8.984375 -14.765625 L 8.5 -0.875 C 8.476562 -0.519531 8.035156 -0.28125 7.171875 -0.15625 C 6.316406 -0.03125 5.601562 0.03125 5.03125 0.03125 C 4.457031 0.03125 3.90625 0 3.375 -0.0625 C 2.257812 -0.226562 1.710938 -0.519531 1.734375 -0.9375 L 2.546875 -23.578125 C 2.546875 -24.140625 3.960938 -24.421875 6.796875 -24.421875 C 7.628906 -24.421875 8.648438 -24.351562 9.859375 -24.21875 C 11.066406 -24.09375 11.738281 -23.84375 11.875 -23.46875 L 15.78125 -12.5 L 19.1875 -23.515625 C 19.394531 -24.117188 21 -24.421875 24 -24.421875 C 24.851562 -24.421875 25.878906 -24.351562 27.078125 -24.21875 C 28.273438 -24.09375 28.875 -23.867188 28.875 -23.546875 L 29.875 -0.703125 C 29.875 -0.441406 29.421875 -0.253906 28.515625 -0.140625 C 27.617188 -0.0234375 26.820312 0.03125 26.125 0.03125 Z M 26.125 0.03125 "/></g></g></g><g fill="#000000" fill-opacity="1"><g transform="translate(362.295571, 93.677804)"><g><path d="M 12.09375 0.34375 C 8.832031 0.34375 6.175781 -0.722656 4.125 -2.859375 C 2.070312 -4.992188 1.046875 -8.109375 1.046875 -12.203125 C 1.046875 -16.304688 2.082031 -19.410156 4.15625 -21.515625 C 6.238281 -23.628906 8.921875 -24.6875 12.203125 -24.6875 C 15.492188 -24.6875 18.148438 -23.644531 20.171875 -21.5625 C 22.191406 -19.488281 23.203125 -16.34375 23.203125 -12.125 C 23.203125 -7.914062 22.164062 -4.785156 20.09375 -2.734375 C 18.03125 -0.679688 15.363281 0.34375 12.09375 0.34375 Z M 12.125 -18 C 11.007812 -18 10.070312 -17.488281 9.3125 -16.46875 C 8.5625 -15.445312 8.1875 -14.015625 8.1875 -12.171875 C 8.1875 -10.328125 8.546875 -8.910156 9.265625 -7.921875 C 9.984375 -6.929688 10.925781 -6.4375 12.09375 -6.4375 C 13.269531 -6.4375 14.222656 -6.9375 14.953125 -7.9375 C 15.691406 -8.9375 16.0625 -10.363281 16.0625 -12.21875 C 16.0625 -14.082031 15.679688 -15.507812 14.921875 -16.5 C 14.171875 -17.5 13.238281 -18 12.125 -18 Z M 12.125 -18 "/></g></g></g><g fill="#000000" fill-opacity="1"><g transform="translate(386.917839, 93.677804)"><g><path d="M 1.390625 -2.0625 L 1.390625 -23.71875 C 1.390625 -24.207031 2.566406 -24.453125 4.921875 -24.453125 C 7.285156 -24.453125 8.46875 -24.207031 8.46875 -23.71875 L 8.46875 -6.65625 L 13.828125 -6.65625 C 14.242188 -6.65625 14.535156 -6.109375 14.703125 -5.015625 C 14.765625 -4.484375 14.796875 -3.9375 14.796875 -3.375 C 14.796875 -2.820312 14.765625 -2.253906 14.703125 -1.671875 C 14.515625 -0.554688 14.210938 0 13.796875 0 L 3.0625 0 C 2.550781 0 2.144531 -0.207031 1.84375 -0.625 C 1.539062 -1.039062 1.390625 -1.519531 1.390625 -2.0625 Z M 1.390625 -2.0625 "/></g></g></g><g fill="#000000" fill-opacity="1"><g transform="translate(402.450481, 93.677804)"><g><path d="M 12.09375 0.34375 C 8.832031 0.34375 6.175781 -0.722656 4.125 -2.859375 C 2.070312 -4.992188 1.046875 -8.109375 1.046875 -12.203125 C 1.046875 -16.304688 2.082031 -19.410156 4.15625 -21.515625 C 6.238281 -23.628906 8.921875 -24.6875 12.203125 -24.6875 C 15.492188 -24.6875 18.148438 -23.644531 20.171875 -21.5625 C 22.191406 -19.488281 23.203125 -16.34375 23.203125 -12.125 C 23.203125 -7.914062 22.164062 -4.785156 20.09375 -2.734375 C 18.03125 -0.679688 15.363281 0.34375 12.09375 0.34375 Z M 12.125 -18 C 11.007812 -18 10.070312 -17.488281 9.3125 -16.46875 C 8.5625 -15.445312 8.1875 -14.015625 8.1875 -12.171875 C 8.1875 -10.328125 8.546875 -8.910156 9.265625 -7.921875 C 9.984375 -6.929688 10.925781 -6.4375 12.09375 -6.4375 C 13.269531 -6.4375 14.222656 -6.9375 14.953125 -7.9375 C 15.691406 -8.9375 16.0625 -10.363281 16.0625 -12.21875 C 16.0625 -14.082031 15.679688 -15.507812 14.921875 -16.5 C 14.171875 -17.5 13.238281 -18 12.125 -18 Z M 12.125 -18 "/></g></g></g><g fill="#000000" fill-opacity="1"><g transform="translate(427.072749, 93.677804)"><g><path d="M 14.625 -7.28125 L 14.703125 -12.015625 C 14.703125 -12.335938 15.035156 -12.550781 15.703125 -12.65625 C 16.378906 -12.757812 16.9375 -12.8125 17.375 -12.8125 L 18.734375 -12.71875 C 19.617188 -12.570312 20.0625 -12.328125 20.0625 -11.984375 L 19.921875 -1.078125 C 19.453125 -0.753906 18.515625 -0.4375 17.109375 -0.125 C 15.710938 0.1875 14.109375 0.34375 12.296875 0.34375 C 8.929688 0.34375 6.210938 -0.742188 4.140625 -2.921875 C 2.078125 -5.109375 1.046875 -8.3125 1.046875 -12.53125 C 1.046875 -16.132812 2.054688 -19.0625 4.078125 -21.3125 C 6.097656 -23.5625 8.894531 -24.6875 12.46875 -24.6875 C 14.09375 -24.6875 15.5625 -24.53125 16.875 -24.21875 C 18.1875 -23.90625 19.085938 -23.484375 19.578125 -22.953125 C 19.597656 -22.765625 19.609375 -22.414062 19.609375 -21.90625 C 19.609375 -21.394531 19.429688 -20.664062 19.078125 -19.71875 C 18.734375 -18.78125 18.335938 -18.078125 17.890625 -17.609375 C 17.453125 -17.148438 17.132812 -16.921875 16.9375 -16.921875 C 16.738281 -16.921875 16.53125 -17.007812 16.3125 -17.1875 C 16.09375 -17.363281 15.65625 -17.550781 15 -17.75 C 14.351562 -17.945312 13.726562 -18.046875 13.125 -18.046875 C 11.6875 -18.046875 10.519531 -17.578125 9.625 -16.640625 C 8.738281 -15.710938 8.296875 -14.273438 8.296875 -12.328125 C 8.296875 -10.378906 8.753906 -8.898438 9.671875 -7.890625 C 10.585938 -6.878906 11.640625 -6.375 12.828125 -6.375 C 14.023438 -6.375 14.625 -6.675781 14.625 -7.28125 Z M 14.625 -7.28125 "/></g></g></g><g fill="#000000" fill-opacity="1"><g transform="translate(449.083069, 93.677804)"><g><path d="M 4.046875 -5.984375 L 4.046875 -18.390625 L 1.5625 -18.390625 C 1.164062 -18.390625 0.890625 -18.890625 0.734375 -19.890625 C 0.660156 -20.378906 0.625 -20.878906 0.625 -21.390625 C 0.625 -21.898438 0.660156 -22.394531 0.734375 -22.875 C 0.890625 -23.875 1.164062 -24.375 1.5625 -24.375 L 13.265625 -24.375 C 13.660156 -24.375 13.929688 -23.875 14.078125 -22.875 C 14.160156 -22.394531 14.203125 -21.898438 14.203125 -21.390625 C 14.203125 -20.878906 14.160156 -20.378906 14.078125 -19.890625 C 13.929688 -18.890625 13.660156 -18.390625 13.265625 -18.390625 L 10.9375 -18.390625 L 10.9375 -5.984375 L 13.375 -5.984375 C 13.769531 -5.984375 14.046875 -5.488281 14.203125 -4.5 C 14.296875 -4.007812 14.34375 -3.507812 14.34375 -3 C 14.34375 -2.488281 14.296875 -1.988281 14.203125 -1.5 C 14.046875 -0.5 13.769531 0 13.375 0 L 1.640625 0 C 1.242188 0 0.972656 -0.5 0.828125 -1.5 C 0.742188 -1.988281 0.703125 -2.488281 0.703125 -3 C 0.703125 -3.507812 0.742188 -4.007812 0.828125 -4.5 C 0.972656 -5.488281 1.242188 -5.984375 1.640625 -5.984375 Z M 4.046875 -5.984375 "/></g></g></g><g fill="#000000" fill-opacity="1"><g transform="translate(464.406767, 93.677804)"><g><path d="M 2.640625 -8.5 C 3.085938 -8.144531 3.847656 -7.664062 4.921875 -7.0625 C 6.003906 -6.46875 7.039062 -6.171875 8.03125 -6.171875 C 9.019531 -6.171875 9.515625 -6.550781 9.515625 -7.3125 C 9.515625 -7.664062 9.375 -7.972656 9.09375 -8.234375 C 8.8125 -8.503906 8.296875 -8.8125 7.546875 -9.15625 C 6.804688 -9.507812 6.25 -9.785156 5.875 -9.984375 C 5.507812 -10.179688 5.019531 -10.503906 4.40625 -10.953125 C 3.789062 -11.398438 3.320312 -11.867188 3 -12.359375 C 2.070312 -13.679688 1.609375 -15.363281 1.609375 -17.40625 C 1.609375 -19.457031 2.367188 -21.179688 3.890625 -22.578125 C 5.410156 -23.984375 7.398438 -24.6875 9.859375 -24.6875 C 11.523438 -24.6875 13.066406 -24.503906 14.484375 -24.140625 C 15.898438 -23.785156 16.632812 -23.320312 16.6875 -22.75 C 16.6875 -22.675781 16.6875 -22.601562 16.6875 -22.53125 C 16.6875 -21.71875 16.429688 -20.691406 15.921875 -19.453125 C 15.410156 -18.210938 15.050781 -17.519531 14.84375 -17.375 C 13.351562 -18.144531 12.019531 -18.53125 10.84375 -18.53125 C 9.675781 -18.53125 9.09375 -18.113281 9.09375 -17.28125 C 9.09375 -16.769531 9.519531 -16.316406 10.375 -15.921875 C 10.5625 -15.828125 10.828125 -15.695312 11.171875 -15.53125 C 11.523438 -15.375 11.925781 -15.179688 12.375 -14.953125 C 12.832031 -14.734375 13.320312 -14.457031 13.84375 -14.125 C 14.363281 -13.789062 14.925781 -13.34375 15.53125 -12.78125 C 16.757812 -11.625 17.375 -10.09375 17.375 -8.1875 C 17.375 -5.695312 16.6875 -3.660156 15.3125 -2.078125 C 13.945312 -0.503906 11.835938 0.300781 8.984375 0.34375 C 7.585938 0.34375 6.328125 0.226562 5.203125 0 C 4.078125 -0.226562 3.097656 -0.679688 2.265625 -1.359375 C 1.429688 -2.035156 1.015625 -2.847656 1.015625 -3.796875 C 1.015625 -4.742188 1.1875 -5.6875 1.53125 -6.625 C 1.882812 -7.570312 2.253906 -8.195312 2.640625 -8.5 Z M 2.640625 -8.5 "/></g></g></g><g fill="#000000" fill-opacity="1"><g transform="translate(483.282719, 93.677804)"><g><path d="M 12.21875 -0.5625 C 12.21875 -0.09375 11.066406 0.140625 8.765625 0.140625 C 6.472656 0.140625 5.328125 -0.09375 5.328125 -0.5625 L 5.328125 -18.046875 L 1.15625 -18.046875 C 0.757812 -18.046875 0.476562 -18.578125 0.3125 -19.640625 C 0.238281 -20.148438 0.203125 -20.671875 0.203125 -21.203125 C 0.203125 -21.742188 0.238281 -22.269531 0.3125 -22.78125 C 0.476562 -23.84375 0.757812 -24.375 1.15625 -24.375 L 16.296875 -24.375 C 16.691406 -24.375 16.972656 -23.84375 17.140625 -22.78125 C 17.203125 -22.269531 17.234375 -21.742188 17.234375 -21.203125 C 17.234375 -20.671875 17.203125 -20.148438 17.140625 -19.640625 C 16.972656 -18.578125 16.691406 -18.046875 16.296875 -18.046875 L 12.21875 -18.046875 Z M 12.21875 -0.5625 "/></g></g></g><g clip-path="url(#97b022e9c3)"><path fill="#15bada" d="M 142.707031 92.304688 C 140.402344 89.695312 139.007812 86.269531 139.007812 82.519531 C 139.007812 78.769531 140.402344 75.34375 142.707031 72.734375 C 141.761719 73.113281 140.847656 73.542969 139.96875 74.015625 C 136.085938 76.097656 132.855469 79.03125 130.609375 82.519531 C 132.855469 86.007812 136.085938 88.941406 139.96875 91.023438 C 140.847656 91.496094 141.761719 91.925781 142.707031 92.304688 Z M 142.707031 92.304688 " fill-opacity="1" fill-rule="nonzero"/></g><g clip-path="url(#8b430acd4c)"><path fill="#15bada" d="M 164.902344 72.734375 C 167.207031 75.34375 168.601562 78.769531 168.601562 82.519531 C 168.601562 86.269531 167.207031 89.695312 164.902344 92.304688 C 165.847656 91.925781 166.761719 91.496094 167.640625 91.023438 C 171.523438 88.941406 174.753906 86.007812 177 82.519531 C 174.753906 79.03125 171.523438 76.097656 167.640625 74.015625 C 166.761719 73.542969 165.847656 73.113281 164.902344 72.734375 Z M 164.902344 72.734375 " fill-opacity="1" fill-rule="nonzero"/></g><g clip-path="url(#216e53147b)"><path fill="#004aad" d="M 157.730469 79.726562 C 158.453125 79.726562 159.035156 80.3125 159.035156 81.035156 C 159.035156 81.757812 158.453125 82.34375 157.730469 82.34375 C 157.007812 82.34375 156.421875 81.757812 156.421875 81.035156 C 156.421875 80.3125 157.007812 79.726562 157.730469 79.726562 Z M 153.804688 71.628906 C 155.953125 71.628906 157.957031 72.25 159.644531 73.324219 C 158.679688 73.703125 157.996094 74.640625 157.996094 75.742188 C 157.996094 77.171875 159.152344 78.332031 160.582031 78.332031 C 161.683594 78.332031 162.621094 77.644531 163 76.679688 C 164.074219 78.367188 164.695312 80.371094 164.695312 82.519531 C 164.695312 88.535156 159.820312 93.410156 153.804688 93.410156 C 147.789062 93.410156 142.914062 88.535156 142.914062 82.519531 C 142.914062 76.503906 147.789062 71.628906 153.804688 71.628906 Z M 153.804688 71.628906 " fill-opacity="1" fill-rule="evenodd"/></g></svg>