<svg xmlns="http://www.w3.org/2000/svg" xmlns:xlink="http://www.w3.org/1999/xlink" width="750" zoomAndPan="magnify" viewBox="0 0 562.5 112.499997" height="150" preserveAspectRatio="xMidYMid meet" version="1.0"><defs><g/><clipPath id="8236de960d"><path d="M 0.996094 0 L 152 0 L 152 112.003906 L 0.996094 112.003906 Z M 0.996094 0 " clip-rule="nonzero"/></clipPath><clipPath id="01b9417810"><path d="M 506.714844 72 L 519 72 L 519 93 L 506.714844 93 Z M 506.714844 72 " clip-rule="nonzero"/></clipPath><clipPath id="4af89ca7be"><path d="M 541 72 L 553.011719 72 L 553.011719 93 L 541 93 Z M 541 72 " clip-rule="nonzero"/></clipPath><clipPath id="b953482714"><path d="M 519 71.617188 L 541 71.617188 L 541 93.269531 L 519 93.269531 Z M 519 71.617188 " clip-rule="nonzero"/></clipPath><clipPath id="86fcd78620"><path d="M 352 0 L 561.007812 0 L 561.007812 71 L 352 71 Z M 352 0 " clip-rule="nonzero"/></clipPath><clipPath id="9a3fd45e12"><path d="M 130.609375 72 L 143 72 L 143 93 L 130.609375 93 Z M 130.609375 72 " clip-rule="nonzero"/></clipPath><clipPath id="0624b168a7"><path d="M 164 72 L 176.90625 72 L 176.90625 93 L 164 93 Z M 164 72 " clip-rule="nonzero"/></clipPath><clipPath id="41f6667647"><path d="M 142 71.617188 L 165 71.617188 L 165 93.269531 L 142 93.269531 Z M 142 71.617188 " clip-rule="nonzero"/></clipPath></defs><path stroke-linecap="butt" transform="matrix(0.746681, 0, 0, 0.746681, 130.610689, 16.520763)" fill="none" stroke-linejoin="miter" d="M 22.31051 28.311131 C 24.664677 28.311131 26.500927 27.379927 27.814029 25.517519 C 29.127131 23.655112 29.786297 21.128306 29.786297 17.942334 C 29.786297 14.159972 28.959723 11.549463 27.311806 10.100342 C 25.66389 8.656453 23.110926 7.929277 19.652917 7.929277 C 19.014676 7.929277 18.141019 8.039138 17.042407 8.253629 C 17.256898 10.769972 17.366759 15.153954 17.366759 21.395112 L 17.366759 27.102658 C 19.135 27.908307 20.782917 28.311131 22.31051 28.311131 Z M 4.701342 35.985715 L 4.701342 19.506547 C 4.701342 11.842426 4.314212 5.533259 3.534721 0.573814 C 8.253518 -0.0696584 12.967083 -0.388779 17.68588 -0.388779 C 34.70389 -0.388779 43.21028 5.533259 43.21028 17.377334 C 43.21028 23.247056 41.494354 27.882149 38.062502 31.282612 C 34.635881 34.688307 30.508242 36.388539 25.684815 36.388539 C 22.817963 36.388539 20.045278 35.572427 17.366759 33.940205 L 17.366759 39.443724 C 17.366759 45.046641 18.020695 49.922382 19.333797 54.076179 C 17.644028 54.850438 15.07537 55.242799 11.617361 55.242799 C 8.802824 55.242799 6.91949 54.635947 5.96736 53.432706 C 5.015231 52.224234 4.544397 50.471688 4.544397 48.164604 C 4.544397 47.280484 4.570555 45.512243 4.62287 42.859882 C 4.675184 40.20752 4.701342 37.916131 4.701342 35.985715 Z M 54.259169 15.650945 C 56.351762 15.650945 57.973521 16.001454 59.124447 16.712935 C 60.275374 17.424417 60.850837 18.826454 60.850837 20.913815 L 60.850837 22.001964 C 62.326114 20.228491 64.089124 18.638121 66.139865 17.215158 C 68.185374 15.797426 70.230883 15.085944 72.26593 15.085944 C 73.877226 15.085944 75.111856 15.452148 75.985514 16.189787 C 76.853939 16.927426 77.293384 17.900482 77.293384 19.103723 C 77.293384 21.358491 76.299402 23.555714 74.316671 25.69539 C 72.412411 24.492149 70.633708 23.890528 68.970096 23.890528 C 66.558383 23.890528 63.733383 25.564603 60.489864 28.912751 C 60.327688 32.15627 60.249216 35.279464 60.249216 38.277104 C 60.249216 46.077243 60.720049 51.381966 61.656485 54.196503 C 59.349401 54.89229 57.073707 55.242799 54.824169 55.242799 C 52.25028 55.242799 50.455882 54.792892 49.435743 53.893077 C 48.415604 52.998493 47.90815 51.664466 47.90815 49.896225 C 47.90815 49.012104 47.950002 46.956132 48.028474 43.723076 C 48.112178 40.495252 48.148799 37.916131 48.148799 35.985715 C 48.148799 28.138492 47.960465 21.719463 47.58903 16.733861 C 49.676391 16.011917 51.899771 15.650945 54.259169 15.650945 Z M 100.803663 15.085944 C 104.873756 15.085944 108.394544 16.09562 111.355562 18.120204 C 114.316581 20.144787 115.79709 23.163352 115.79709 27.186362 C 115.79709 35.305622 109.979683 39.365252 98.350098 39.365252 C 97.303802 39.365252 95.415237 39.312937 92.684404 39.203076 C 92.684404 42.336733 93.458663 44.61766 95.012413 46.035391 C 96.571395 47.458354 98.49658 48.164604 100.803663 48.164604 C 104.873756 48.164604 108.038803 46.851502 110.28834 44.225298 C 111.549127 44.816456 112.579729 45.622104 113.385377 46.637012 C 114.185794 47.657151 114.588618 48.687752 114.588618 49.734049 C 114.588618 51.371503 113.610331 52.684605 111.653757 53.673355 C 109.697183 54.667336 107.803386 55.268957 105.967136 55.483447 C 104.130886 55.697938 102.357414 55.802568 100.641487 55.802568 C 94.61482 55.802568 89.676302 54.149419 85.831162 50.837891 C 81.986023 47.531595 80.060838 42.472752 80.060838 35.666594 C 80.060838 31.162288 81.122829 27.306686 83.236347 24.089325 C 85.355098 20.871963 87.934218 18.570111 90.973709 17.178537 C 94.018431 15.781732 97.293339 15.085944 100.803663 15.085944 Z M 100.160191 22.886084 C 98.17746 22.886084 96.445839 23.775436 94.975793 25.559371 C 93.500515 27.338075 92.736718 29.959047 92.684404 33.417057 C 94.211996 33.307196 95.289682 33.213029 95.917459 33.134557 C 96.550469 33.050853 97.455515 32.878214 98.632598 32.611409 C 99.809682 32.344603 100.662413 31.973168 101.185562 31.507566 C 101.70871 31.036733 102.190006 30.372334 102.629451 29.514371 C 103.074127 28.656408 103.293849 27.599649 103.293849 26.338862 C 103.293849 25.480899 102.995654 24.690945 102.388802 23.969001 C 101.787182 23.247056 101.044312 22.886084 100.160191 22.886084 Z M 141.316259 48.00766 C 143.032185 48.00766 144.643481 47.578678 146.160611 46.720715 C 147.672509 45.862752 148.69788 44.696132 149.236722 43.220854 C 151.70075 44.104974 153.32251 44.957706 154.096769 45.773817 C 154.87626 46.589928 155.26339 47.578678 155.26339 48.729604 C 155.26339 50.979141 153.945056 52.721225 151.303158 53.955855 C 148.666491 55.185253 145.229407 55.802568 140.991907 55.802568 C 134.855379 55.802568 129.922091 54.086642 126.181582 50.660021 C 122.446304 47.228169 120.573433 42.446595 120.573433 36.310066 C 120.573433 32.689881 121.19598 29.482983 122.446304 26.68414 C 123.691397 23.880065 125.297461 21.656686 127.26973 20.008769 C 129.236767 18.360852 131.376443 17.131454 133.678295 16.310111 C 135.985379 15.494 138.313388 15.085944 140.672787 15.085944 C 144.130796 15.085944 147.437093 15.797426 150.602139 17.215158 C 153.761954 18.638121 155.341862 20.605158 155.341862 23.126732 C 155.341862 26.47488 152.65288 28.48377 147.264454 29.153399 C 146.783157 27.280529 145.904268 25.789556 144.633018 24.690945 C 143.361768 23.592334 141.959731 23.043028 140.432138 23.043028 C 138.397092 23.043028 136.639314 24.078862 135.164036 26.140066 C 133.69399 28.20127 132.956351 31.230297 132.956351 35.221918 C 132.956351 43.744002 135.744731 48.00766 141.316259 48.00766 Z M 168.002048 12.192935 C 165.909455 12.192935 164.141214 11.460528 162.697325 10.000944 C 161.248205 8.541361 160.52626 6.699879 160.52626 4.476499 C 160.52626 2.331592 161.290057 0.516268 162.817649 -0.969473 C 164.345242 -2.460446 166.123946 -3.203316 168.164224 -3.203316 C 170.19927 -3.203316 171.946585 -2.460446 173.406169 -0.969473 C 174.870983 0.516268 175.598159 2.331592 175.598159 4.476499 C 175.598159 6.647564 174.829132 8.473351 173.285844 9.959092 C 171.747789 11.450065 169.984779 12.192935 168.002048 12.192935 Z M 168.164224 15.650945 C 170.251585 15.650945 171.873344 16.001454 173.02427 16.712935 C 174.180428 17.424417 174.755891 18.826454 174.755891 20.913815 C 174.755891 21.238167 174.661724 23.64988 174.473391 28.148955 C 174.285058 32.653261 174.190891 36.027566 174.190891 38.277104 C 174.190891 46.077243 174.661724 51.381966 175.598159 54.196503 C 173.296307 54.89229 171.015381 55.242799 168.765844 55.242799 C 166.165798 55.242799 164.366168 54.792892 163.361723 53.893077 C 162.352047 52.998493 161.849825 51.664466 161.849825 49.896225 C 161.849825 49.012104 161.891677 46.956132 161.970149 43.723076 C 162.053853 40.495252 162.095705 37.916131 162.095705 35.985715 C 162.095705 28.138492 161.891677 21.719463 161.488853 16.733861 C 163.581446 16.011917 165.804825 15.650945 168.164224 15.650945 Z M 215.409736 50.377521 C 211.726773 53.997707 206.898115 55.802568 200.918532 55.802568 C 194.944179 55.802568 190.125985 53.997707 186.469179 50.377521 C 182.812373 46.762567 180.981354 41.933909 180.981354 35.907242 C 180.981354 29.582381 182.812373 24.534001 186.469179 20.751639 C 190.125985 16.974509 194.944179 15.085944 200.918532 15.085944 C 206.898115 15.085944 211.726773 16.974509 215.409736 20.751639 C 219.0927 24.534001 220.939413 29.582381 220.939413 35.907242 C 220.939413 41.933909 219.0927 46.762567 215.409736 50.377521 Z M 208.676819 37.555159 C 208.676819 33.375205 207.986264 29.89627 206.605152 27.123584 C 205.229273 24.350899 203.330245 22.964556 200.918532 22.964556 C 198.564365 22.964556 196.71242 24.089325 195.373161 26.338862 C 194.033902 28.593631 193.364272 31.554649 193.364272 35.221918 C 193.364272 38.868261 194.033902 41.881595 195.373161 44.26715 C 196.71242 46.652706 198.564365 47.845484 200.918532 47.845484 C 203.387791 47.845484 205.297282 46.898586 206.647004 45.010021 C 208.001958 43.121456 208.676819 40.636502 208.676819 37.555159 Z M 265.631962 54.196503 C 262.922055 54.89229 260.620203 55.242799 258.715943 55.242799 C 256.947702 55.242799 255.446267 54.845207 254.216869 54.055253 C 252.982239 53.265299 252.312609 52.093447 252.202748 50.539697 C 248.18497 54.050021 243.84284 55.802568 239.18159 55.802568 C 231.438997 55.802568 227.5677 51.946966 227.5677 44.225298 C 227.5677 44.068354 227.614784 42.064696 227.703719 38.219557 C 227.797885 34.374418 227.844969 31.48664 227.844969 29.556223 C 227.844969 23.848677 227.405524 19.574556 226.521404 16.733861 C 228.666311 16.011917 230.889691 15.650945 233.191543 15.650945 C 237.91034 15.650945 240.269738 17.325019 240.269738 20.673167 C 240.269738 22.493723 240.186034 25.87326 240.023858 30.801316 C 239.866914 35.734603 239.78321 38.695622 239.78321 39.684372 C 239.78321 42.310576 240.20696 44.340391 241.049229 45.773817 C 241.896729 47.207243 242.948257 47.923956 244.203812 47.923956 C 247.01835 47.923956 249.634091 46.637012 252.045804 44.068354 C 251.988257 41.923446 251.9621 38.601455 251.9621 34.09715 C 251.9621 27.719973 251.763304 21.933954 251.36048 16.733861 C 253.557702 16.011917 255.676452 15.650945 257.711499 15.650945 C 259.908721 15.650945 261.608953 15.975296 262.817425 16.634463 C 264.020666 17.288398 264.627518 18.664278 264.627518 20.751639 C 264.627518 21.316639 264.559508 22.990714 264.42349 25.779093 C 264.292703 28.567473 264.198536 30.764696 264.14099 32.370761 L 264.14099 38.277104 C 264.14099 45.245437 264.637981 50.55016 265.631962 54.196503 Z M 294.206316 28.311131 C 293.751177 26.621362 292.971686 25.30826 291.873075 24.371825 C 290.774464 23.43539 289.571223 22.964556 288.258121 22.964556 C 286.997334 22.964556 285.930112 23.29414 285.061686 23.948075 C 284.188028 24.607241 283.753815 25.575066 283.753815 26.86201 C 283.753815 28.175112 284.397288 29.216177 285.684232 29.979973 C 286.971177 30.74377 288.530158 31.355853 290.366408 31.826686 C 292.202658 32.29752 294.038909 32.872983 295.875159 33.558307 C 297.711409 34.2384 299.275622 35.378863 300.578261 36.974465 C 301.875668 38.564835 302.524372 40.59465 302.524372 43.063909 C 302.524372 47.243863 300.865992 50.40891 297.544001 52.569512 C 294.216779 54.724882 290.303631 55.802568 285.804556 55.802568 C 284.381593 55.802568 282.984787 55.734558 281.603676 55.603771 C 280.222565 55.467753 278.642658 55.200947 276.858722 54.798123 C 275.080018 54.395299 273.651824 53.689049 272.57937 52.66891 C 271.506916 51.648771 270.973305 50.393216 270.973305 48.89178 C 270.973305 45.941224 273.196685 43.639372 277.643444 41.975761 C 278.208445 43.958493 279.254741 45.449465 280.782334 46.438215 C 282.309926 47.432197 283.926454 47.923956 285.64238 47.923956 C 289.314881 47.923956 291.151131 46.610854 291.151131 43.98465 C 291.151131 42.697706 290.178075 41.661872 288.237195 40.871919 C 286.291084 40.081965 284.172334 39.422798 281.86525 38.89965 C 279.558167 38.381733 277.428954 37.199418 275.47238 35.363168 C 273.515805 33.526918 272.537518 31.068122 272.537518 27.986779 C 272.537518 24.105019 274.201129 20.981825 277.52312 18.622426 C 280.845111 16.263028 284.596084 15.085944 288.781269 15.085944 C 290.680297 15.085944 292.610714 15.284741 294.567288 15.687565 C 296.523863 16.090389 298.292103 16.885574 299.872011 18.078352 C 301.451918 19.27113 302.241872 20.715019 302.241872 22.399556 C 302.241872 23.874834 301.572242 25.146084 300.232983 26.218538 C 298.893724 27.290992 296.884835 27.986779 294.206316 28.311131 Z M 294.206316 28.311131 " stroke="#004aad" stroke-width="2.984216" stroke-opacity="1" stroke-miterlimit="4"/><g fill="#15bada" fill-opacity="1"><g transform="translate(130.610689, 57.588238)"><g><path d="M 16.65625 -19.921875 C 18.414062 -19.921875 19.785156 -20.613281 20.765625 -22 C 21.742188 -23.394531 22.234375 -25.285156 22.234375 -27.671875 C 22.234375 -30.492188 21.617188 -32.441406 20.390625 -33.515625 C 19.160156 -34.597656 17.253906 -35.140625 14.671875 -35.140625 C 14.191406 -35.140625 13.539062 -35.0625 12.71875 -34.90625 C 12.882812 -33.019531 12.96875 -29.75 12.96875 -25.09375 L 12.96875 -20.828125 C 14.289062 -20.222656 15.519531 -19.921875 16.65625 -19.921875 Z M 3.515625 -14.203125 L 3.515625 -26.5 C 3.515625 -32.226562 3.222656 -36.941406 2.640625 -40.640625 C 6.160156 -41.117188 9.679688 -41.359375 13.203125 -41.359375 C 25.910156 -41.359375 32.265625 -36.9375 32.265625 -28.09375 C 32.265625 -23.707031 30.984375 -20.242188 28.421875 -17.703125 C 25.859375 -15.160156 22.773438 -13.890625 19.171875 -13.890625 C 17.035156 -13.890625 14.96875 -14.503906 12.96875 -15.734375 L 12.96875 -11.609375 C 12.96875 -7.429688 13.457031 -3.789062 14.4375 -0.6875 C 13.175781 -0.101562 11.253906 0.1875 8.671875 0.1875 C 6.566406 0.1875 5.160156 -0.257812 4.453125 -1.15625 C 3.742188 -2.0625 3.390625 -3.378906 3.390625 -5.109375 C 3.390625 -5.765625 3.410156 -7.082031 3.453125 -9.0625 C 3.492188 -11.039062 3.515625 -12.753906 3.515625 -14.203125 Z M 3.515625 -14.203125 "/></g></g></g><g fill="#15bada" fill-opacity="1"><g transform="translate(163.742123, 57.588238)"><g><path d="M 7.390625 -29.390625 C 8.941406 -29.390625 10.148438 -29.125 11.015625 -28.59375 C 11.878906 -28.0625 12.3125 -27.015625 12.3125 -25.453125 L 12.3125 -24.640625 C 13.40625 -25.960938 14.71875 -27.148438 16.25 -28.203125 C 17.78125 -29.265625 19.304688 -29.796875 20.828125 -29.796875 C 22.023438 -29.796875 22.945312 -29.519531 23.59375 -28.96875 C 24.25 -28.425781 24.578125 -27.703125 24.578125 -26.796875 C 24.578125 -25.117188 23.835938 -23.476562 22.359375 -21.875 C 20.941406 -22.78125 19.613281 -23.234375 18.375 -23.234375 C 16.570312 -23.234375 14.457031 -21.984375 12.03125 -19.484375 C 11.914062 -17.054688 11.859375 -14.722656 11.859375 -12.484375 C 11.859375 -6.660156 12.207031 -2.695312 12.90625 -0.59375 C 11.1875 -0.0703125 9.484375 0.1875 7.796875 0.1875 C 5.878906 0.1875 4.539062 -0.144531 3.78125 -0.8125 C 3.019531 -1.488281 2.640625 -2.488281 2.640625 -3.8125 C 2.640625 -4.46875 2.671875 -6 2.734375 -8.40625 C 2.796875 -10.820312 2.828125 -12.753906 2.828125 -14.203125 C 2.828125 -20.054688 2.6875 -24.847656 2.40625 -28.578125 C 3.96875 -29.117188 5.628906 -29.390625 7.390625 -29.390625 Z M 7.390625 -29.390625 "/></g></g></g><g fill="#15bada" fill-opacity="1"><g transform="translate(188.620708, 57.588238)"><g><path d="M 17.265625 -29.796875 C 20.296875 -29.796875 22.914062 -29.039062 25.125 -27.53125 C 27.34375 -26.019531 28.453125 -23.765625 28.453125 -20.765625 C 28.453125 -14.703125 24.109375 -11.671875 15.421875 -11.671875 C 14.640625 -11.671875 13.226562 -11.710938 11.1875 -11.796875 C 11.1875 -9.453125 11.765625 -7.75 12.921875 -6.6875 C 14.085938 -5.632812 15.535156 -5.109375 17.265625 -5.109375 C 20.296875 -5.109375 22.65625 -6.085938 24.34375 -8.046875 C 25.28125 -7.609375 26.046875 -7.007812 26.640625 -6.25 C 27.242188 -5.488281 27.546875 -4.71875 27.546875 -3.9375 C 27.546875 -2.707031 26.816406 -1.722656 25.359375 -0.984375 C 23.898438 -0.242188 22.484375 0.203125 21.109375 0.359375 C 19.742188 0.515625 18.421875 0.59375 17.140625 0.59375 C 12.640625 0.59375 8.953125 -0.640625 6.078125 -3.109375 C 3.203125 -5.578125 1.765625 -9.351562 1.765625 -14.4375 C 1.765625 -17.800781 2.554688 -20.679688 4.140625 -23.078125 C 5.722656 -25.484375 7.648438 -27.203125 9.921875 -28.234375 C 12.191406 -29.273438 14.640625 -29.796875 17.265625 -29.796875 Z M 16.78125 -23.984375 C 15.300781 -23.984375 14.007812 -23.316406 12.90625 -21.984375 C 11.800781 -20.648438 11.226562 -18.695312 11.1875 -16.125 C 12.332031 -16.195312 13.140625 -16.265625 13.609375 -16.328125 C 14.078125 -16.390625 14.75 -16.519531 15.625 -16.71875 C 16.507812 -16.914062 17.144531 -17.1875 17.53125 -17.53125 C 17.925781 -17.882812 18.289062 -18.378906 18.625 -19.015625 C 18.957031 -19.660156 19.125 -20.457031 19.125 -21.40625 C 19.125 -22.039062 18.894531 -22.628906 18.4375 -23.171875 C 17.988281 -23.710938 17.4375 -23.984375 16.78125 -23.984375 Z M 16.78125 -23.984375 "/></g></g></g><g fill="#15bada" fill-opacity="1"><g transform="translate(218.871147, 57.588238)"><g><path d="M 17.265625 -5.21875 C 18.535156 -5.21875 19.738281 -5.535156 20.875 -6.171875 C 22.007812 -6.816406 22.773438 -7.691406 23.171875 -8.796875 C 25.015625 -8.128906 26.222656 -7.488281 26.796875 -6.875 C 27.378906 -6.269531 27.671875 -5.539062 27.671875 -4.6875 C 27.671875 -3 26.6875 -1.695312 24.71875 -0.78125 C 22.75 0.132812 20.179688 0.59375 17.015625 0.59375 C 12.429688 0.59375 8.742188 -0.679688 5.953125 -3.234375 C 3.160156 -5.796875 1.765625 -9.367188 1.765625 -13.953125 C 1.765625 -16.660156 2.226562 -19.054688 3.15625 -21.140625 C 4.09375 -23.234375 5.296875 -24.894531 6.765625 -26.125 C 8.234375 -27.351562 9.828125 -28.269531 11.546875 -28.875 C 13.273438 -29.488281 15.019531 -29.796875 16.78125 -29.796875 C 19.363281 -29.796875 21.832031 -29.265625 24.1875 -28.203125 C 26.550781 -27.148438 27.734375 -25.679688 27.734375 -23.796875 C 27.734375 -21.296875 25.722656 -19.796875 21.703125 -19.296875 C 21.335938 -20.703125 20.679688 -21.8125 19.734375 -22.625 C 18.785156 -23.445312 17.738281 -23.859375 16.59375 -23.859375 C 15.070312 -23.859375 13.757812 -23.085938 12.65625 -21.546875 C 11.5625 -20.003906 11.015625 -17.742188 11.015625 -14.765625 C 11.015625 -8.398438 13.097656 -5.21875 17.265625 -5.21875 Z M 17.265625 -5.21875 "/></g></g></g><g fill="#15bada" fill-opacity="1"><g transform="translate(248.191265, 57.588238)"><g><path d="M 7.859375 -31.96875 C 6.296875 -31.96875 4.972656 -32.507812 3.890625 -33.59375 C 2.816406 -34.6875 2.28125 -36.066406 2.28125 -37.734375 C 2.28125 -39.328125 2.847656 -40.675781 3.984375 -41.78125 C 5.128906 -42.894531 6.460938 -43.453125 7.984375 -43.453125 C 9.503906 -43.453125 10.804688 -42.894531 11.890625 -41.78125 C 12.984375 -40.675781 13.53125 -39.328125 13.53125 -37.734375 C 13.53125 -36.109375 12.953125 -34.738281 11.796875 -33.625 C 10.648438 -32.519531 9.335938 -31.96875 7.859375 -31.96875 Z M 7.984375 -29.390625 C 9.546875 -29.390625 10.753906 -29.125 11.609375 -28.59375 C 12.472656 -28.0625 12.90625 -27.015625 12.90625 -25.453125 C 12.90625 -25.210938 12.832031 -23.410156 12.6875 -20.046875 C 12.550781 -16.679688 12.484375 -14.160156 12.484375 -12.484375 C 12.484375 -6.660156 12.832031 -2.695312 13.53125 -0.59375 C 11.8125 -0.0703125 10.113281 0.1875 8.4375 0.1875 C 6.488281 0.1875 5.140625 -0.144531 4.390625 -0.8125 C 3.640625 -1.488281 3.265625 -2.488281 3.265625 -3.8125 C 3.265625 -4.46875 3.296875 -6 3.359375 -8.40625 C 3.421875 -10.820312 3.453125 -12.753906 3.453125 -14.203125 C 3.453125 -20.054688 3.300781 -24.847656 3 -28.578125 C 4.5625 -29.117188 6.222656 -29.390625 7.984375 -29.390625 Z M 7.984375 -29.390625 "/></g></g></g><g fill="#15bada" fill-opacity="1"><g transform="translate(263.976713, 57.588238)"><g><path d="M 27.46875 -3.453125 C 24.71875 -0.753906 21.113281 0.59375 16.65625 0.59375 C 12.195312 0.59375 8.597656 -0.753906 5.859375 -3.453125 C 3.128906 -6.148438 1.765625 -9.75 1.765625 -14.25 C 1.765625 -18.976562 3.128906 -22.75 5.859375 -25.5625 C 8.597656 -28.382812 12.195312 -29.796875 16.65625 -29.796875 C 21.113281 -29.796875 24.71875 -28.382812 27.46875 -25.5625 C 30.226562 -22.75 31.609375 -18.976562 31.609375 -14.25 C 31.609375 -9.75 30.226562 -6.148438 27.46875 -3.453125 Z M 22.453125 -13.03125 C 22.453125 -16.144531 21.9375 -18.738281 20.90625 -20.8125 C 19.875 -22.882812 18.457031 -23.921875 16.65625 -23.921875 C 14.894531 -23.921875 13.515625 -23.078125 12.515625 -21.390625 C 11.515625 -19.710938 11.015625 -17.503906 11.015625 -14.765625 C 11.015625 -12.046875 11.515625 -9.796875 12.515625 -8.015625 C 13.515625 -6.234375 14.894531 -5.34375 16.65625 -5.34375 C 18.5 -5.34375 19.925781 -6.046875 20.9375 -7.453125 C 21.945312 -8.867188 22.453125 -10.726562 22.453125 -13.03125 Z M 22.453125 -13.03125 "/></g></g></g><g fill="#15bada" fill-opacity="1"><g transform="translate(297.348229, 57.588238)"><g><path d="M 31.609375 -0.59375 C 29.585938 -0.0703125 27.863281 0.1875 26.4375 0.1875 C 25.125 0.1875 24.003906 -0.109375 23.078125 -0.703125 C 22.160156 -1.296875 21.660156 -2.171875 21.578125 -3.328125 C 18.578125 -0.710938 15.335938 0.59375 11.859375 0.59375 C 6.078125 0.59375 3.1875 -2.285156 3.1875 -8.046875 C 3.1875 -8.160156 3.21875 -9.65625 3.28125 -12.53125 C 3.351562 -15.40625 3.390625 -17.5625 3.390625 -19 C 3.390625 -23.257812 3.0625 -26.453125 2.40625 -28.578125 C 4 -29.117188 5.660156 -29.390625 7.390625 -29.390625 C 10.910156 -29.390625 12.671875 -28.132812 12.671875 -25.625 C 12.671875 -24.269531 12.609375 -21.75 12.484375 -18.0625 C 12.367188 -14.382812 12.3125 -12.175781 12.3125 -11.4375 C 12.3125 -9.476562 12.625 -7.960938 13.25 -6.890625 C 13.882812 -5.816406 14.671875 -5.28125 15.609375 -5.28125 C 17.710938 -5.28125 19.660156 -6.238281 21.453125 -8.15625 C 21.421875 -9.757812 21.40625 -12.242188 21.40625 -15.609375 C 21.40625 -20.367188 21.253906 -24.691406 20.953125 -28.578125 C 22.585938 -29.117188 24.164062 -29.390625 25.6875 -29.390625 C 27.332031 -29.390625 28.601562 -29.140625 29.5 -28.640625 C 30.40625 -28.148438 30.859375 -27.128906 30.859375 -25.578125 C 30.859375 -25.148438 30.804688 -23.894531 30.703125 -21.8125 C 30.597656 -19.738281 30.53125 -18.097656 30.5 -16.890625 L 30.5 -12.484375 C 30.5 -7.285156 30.867188 -3.320312 31.609375 -0.59375 Z M 31.609375 -0.59375 "/></g></g></g><g fill="#15bada" fill-opacity="1"><g transform="translate(331.349962, 57.588238)"><g><path d="M 18.9375 -19.921875 C 18.59375 -21.179688 18.007812 -22.160156 17.1875 -22.859375 C 16.375 -23.566406 15.476562 -23.921875 14.5 -23.921875 C 13.5625 -23.921875 12.765625 -23.675781 12.109375 -23.1875 C 11.460938 -22.695312 11.140625 -21.972656 11.140625 -21.015625 C 11.140625 -20.035156 11.617188 -19.257812 12.578125 -18.6875 C 13.535156 -18.113281 14.695312 -17.648438 16.0625 -17.296875 C 17.4375 -16.953125 18.804688 -16.523438 20.171875 -16.015625 C 21.546875 -15.503906 22.71875 -14.648438 23.6875 -13.453125 C 24.664062 -12.265625 25.15625 -10.753906 25.15625 -8.921875 C 25.15625 -5.796875 23.910156 -3.425781 21.421875 -1.8125 C 18.941406 -0.207031 16.023438 0.59375 12.671875 0.59375 C 11.609375 0.59375 10.5625 0.539062 9.53125 0.4375 C 8.5 0.34375 7.316406 0.148438 5.984375 -0.140625 C 4.648438 -0.441406 3.582031 -0.972656 2.78125 -1.734375 C 1.988281 -2.492188 1.59375 -3.4375 1.59375 -4.5625 C 1.59375 -6.757812 3.253906 -8.476562 6.578125 -9.71875 C 6.992188 -8.238281 7.769531 -7.128906 8.90625 -6.390625 C 10.050781 -5.648438 11.265625 -5.28125 12.546875 -5.28125 C 15.285156 -5.28125 16.65625 -6.257812 16.65625 -8.21875 C 16.65625 -9.1875 15.929688 -9.960938 14.484375 -10.546875 C 13.035156 -11.140625 11.445312 -11.628906 9.71875 -12.015625 C 8 -12.410156 6.410156 -13.289062 4.953125 -14.65625 C 3.492188 -16.03125 2.765625 -17.867188 2.765625 -20.171875 C 2.765625 -23.066406 4.003906 -25.394531 6.484375 -27.15625 C 8.960938 -28.914062 11.765625 -29.796875 14.890625 -29.796875 C 16.304688 -29.796875 17.742188 -29.644531 19.203125 -29.34375 C 20.671875 -29.050781 21.992188 -28.457031 23.171875 -27.5625 C 24.347656 -26.675781 24.9375 -25.601562 24.9375 -24.34375 C 24.9375 -23.238281 24.4375 -22.285156 23.4375 -21.484375 C 22.4375 -20.691406 20.9375 -20.171875 18.9375 -19.921875 Z M 18.9375 -19.921875 "/></g></g></g><g clip-path="url(#8236de960d)"><path stroke-linecap="butt" transform="matrix(0.746681, 0, 0, 0.746681, -6.393752, -17.066606)" fill="none" stroke-linejoin="miter" d="M 24.409051 137.886434 C 25.74831 128.558702 26.517338 111.493608 26.716134 86.685921 C 26.716134 68.92504 26.046504 55.108697 24.707245 45.236891 C 31.701736 44.044113 40.558635 43.452955 51.27271 43.452955 C 60.103451 43.452955 68.091924 44.305687 75.238128 46.016381 C 82.379101 47.732307 88.902759 50.49453 94.809102 54.313512 C 100.710213 58.137725 105.28776 63.494762 108.53651 70.389855 C 111.790492 77.284948 113.412251 85.571616 113.412251 95.244626 C 113.412251 110.478701 108.834705 122.992405 99.684843 132.790971 C 90.52975 142.589536 77.519054 147.486203 60.652757 147.486203 C 45.120487 147.486203 33.040996 144.289768 24.409051 137.886434 Z M 49.708497 59.152632 C 50.106089 65.106059 50.304886 72.199948 50.304886 80.4343 C 50.304886 100.282543 49.609099 116.081618 48.222756 127.841989 C 53.77859 130.719304 58.989146 132.157962 63.849192 132.157962 C 71.790582 132.157962 77.864332 128.935369 82.080907 122.484952 C 86.297481 116.034534 88.411 107.972821 88.411 98.299811 C 88.411 85.20018 85.690629 75.31268 80.260351 68.64254 C 74.824841 61.96717 67.024702 58.634716 56.854701 58.634716 C 54.422062 58.634716 52.041738 58.807354 49.708497 59.152632 Z M 136.629568 73.141615 C 140.500864 73.141615 143.498503 73.800781 145.632948 75.113883 C 147.767393 76.432217 148.834615 79.0218 148.834615 82.893097 L 148.834615 84.901986 C 151.565448 81.627078 154.824662 78.676523 158.622718 76.045087 C 162.415542 73.418883 166.197903 72.10055 169.969802 72.10055 C 172.946515 72.10055 175.243135 72.785874 176.854432 74.146059 C 178.465728 75.511476 179.271376 77.311106 179.271376 79.544949 C 179.271376 83.709208 177.435126 87.779301 173.762626 91.749996 C 170.241839 89.516153 166.940774 88.401847 163.864662 88.401847 C 159.402208 88.401847 154.165495 91.498885 148.164985 97.703422 C 147.866791 103.703932 147.720309 109.484719 147.720309 115.040553 C 147.720309 129.479443 148.588735 139.304166 150.320356 144.50949 C 146.056698 145.801666 141.840124 146.445138 137.670633 146.445138 C 132.909984 146.445138 129.582762 145.613333 127.699428 143.954953 C 125.816095 142.291342 124.869197 139.822082 124.869197 136.547175 C 124.869197 134.909721 124.947669 131.101202 125.09415 125.12685 C 125.245863 119.147266 125.319104 114.370923 125.319104 110.797821 C 125.319104 96.264765 124.968595 84.378838 124.278039 75.155735 C 128.144104 73.811244 132.26128 73.141615 136.629568 73.141615 Z M 136.629568 73.141615 " stroke="#004aad" stroke-width="5.715675" stroke-opacity="1" stroke-miterlimit="4"/></g><g fill="#15bada" fill-opacity="1"><g transform="translate(6.941511, 91.948873)"><g><path d="M 4.890625 -6.0625 C 5.890625 -13.019531 6.460938 -25.757812 6.609375 -44.28125 C 6.609375 -57.539062 6.109375 -67.859375 5.109375 -75.234375 C 10.335938 -76.117188 16.953125 -76.5625 24.953125 -76.5625 C 31.546875 -76.5625 37.507812 -75.921875 42.84375 -74.640625 C 48.175781 -73.367188 53.046875 -71.304688 57.453125 -68.453125 C 61.859375 -65.597656 65.273438 -61.597656 67.703125 -56.453125 C 70.128906 -51.304688 71.34375 -45.117188 71.34375 -37.890625 C 71.34375 -26.523438 67.925781 -17.179688 61.09375 -9.859375 C 54.257812 -2.546875 44.546875 1.109375 31.953125 1.109375 C 20.359375 1.109375 11.335938 -1.28125 4.890625 -6.0625 Z M 23.78125 -64.84375 C 24.070312 -60.394531 24.21875 -55.097656 24.21875 -48.953125 C 24.21875 -34.140625 23.703125 -22.34375 22.671875 -13.5625 C 26.816406 -11.40625 30.707031 -10.328125 34.34375 -10.328125 C 40.269531 -10.328125 44.804688 -12.734375 47.953125 -17.546875 C 51.097656 -22.367188 52.671875 -28.390625 52.671875 -35.609375 C 52.671875 -45.390625 50.640625 -52.769531 46.578125 -57.75 C 42.523438 -62.738281 36.703125 -65.234375 29.109375 -65.234375 C 27.296875 -65.234375 25.519531 -65.101562 23.78125 -64.84375 Z M 23.78125 -64.84375 "/></g></g></g><g fill="#15bada" fill-opacity="1"><g transform="translate(81.955438, 91.948873)"><g><path d="M 13.671875 -54.390625 C 16.554688 -54.390625 18.796875 -53.898438 20.390625 -52.921875 C 21.984375 -51.941406 22.78125 -50.007812 22.78125 -47.125 L 22.78125 -45.625 C 24.820312 -48.0625 27.257812 -50.257812 30.09375 -52.21875 C 32.925781 -54.1875 35.75 -55.171875 38.5625 -55.171875 C 40.78125 -55.171875 42.488281 -54.660156 43.6875 -53.640625 C 44.894531 -52.628906 45.5 -51.289062 45.5 -49.625 C 45.5 -46.507812 44.128906 -43.46875 41.390625 -40.5 C 38.765625 -42.164062 36.300781 -43 34 -43 C 30.664062 -43 26.757812 -40.6875 22.28125 -36.0625 C 22.0625 -31.582031 21.953125 -27.265625 21.953125 -23.109375 C 21.953125 -12.335938 22.597656 -5.003906 23.890625 -1.109375 C 20.703125 -0.148438 17.554688 0.328125 14.453125 0.328125 C 10.890625 0.328125 8.40625 -0.289062 7 -1.53125 C 5.59375 -2.769531 4.890625 -4.613281 4.890625 -7.0625 C 4.890625 -8.28125 4.941406 -11.117188 5.046875 -15.578125 C 5.160156 -20.046875 5.21875 -23.613281 5.21875 -26.28125 C 5.21875 -37.132812 4.957031 -46.003906 4.4375 -52.890625 C 7.332031 -53.890625 10.410156 -54.390625 13.671875 -54.390625 Z M 13.671875 -54.390625 "/></g></g></g><g clip-path="url(#01b9417810)"><path fill="#15bada" d="M 518.8125 92.304688 C 516.507812 89.695312 515.113281 86.269531 515.113281 82.519531 C 515.113281 78.769531 516.507812 75.34375 518.8125 72.734375 C 517.867188 73.113281 516.953125 73.542969 516.074219 74.015625 C 512.191406 76.097656 508.960938 79.03125 506.714844 82.519531 C 508.960938 86.007812 512.191406 88.941406 516.074219 91.023438 C 516.953125 91.496094 517.867188 91.925781 518.8125 92.304688 Z M 518.8125 92.304688 " fill-opacity="1" fill-rule="nonzero"/></g><g clip-path="url(#4af89ca7be)"><path fill="#15bada" d="M 541.007812 72.734375 C 543.308594 75.34375 544.707031 78.769531 544.707031 82.519531 C 544.707031 86.269531 543.3125 89.695312 541.007812 92.304688 C 541.953125 91.925781 542.867188 91.496094 543.746094 91.023438 C 547.628906 88.941406 550.859375 86.007812 553.105469 82.519531 C 550.859375 79.03125 547.628906 76.097656 543.746094 74.015625 C 542.867188 73.542969 541.953125 73.113281 541.007812 72.734375 Z M 541.007812 72.734375 " fill-opacity="1" fill-rule="nonzero"/></g><g clip-path="url(#b953482714)"><path fill="#004aad" d="M 533.835938 79.726562 C 534.554688 79.726562 535.140625 80.3125 535.140625 81.035156 C 535.140625 81.757812 534.554688 82.34375 533.835938 82.34375 C 533.113281 82.34375 532.527344 81.757812 532.527344 81.035156 C 532.527344 80.3125 533.113281 79.726562 533.835938 79.726562 Z M 529.910156 71.628906 C 532.058594 71.628906 534.0625 72.25 535.75 73.324219 C 534.785156 73.703125 534.097656 74.640625 534.097656 75.742188 C 534.097656 77.171875 535.257812 78.332031 536.6875 78.332031 C 537.789062 78.332031 538.726562 77.644531 539.105469 76.679688 C 540.179688 78.367188 540.800781 80.371094 540.800781 82.519531 C 540.800781 88.535156 535.925781 93.410156 529.910156 93.410156 C 523.894531 93.410156 519.019531 88.535156 519.019531 82.519531 C 519.019531 76.503906 523.894531 71.628906 529.910156 71.628906 Z M 529.910156 71.628906 " fill-opacity="1" fill-rule="evenodd"/></g><g clip-path="url(#86fcd78620)"><path stroke-linecap="butt" transform="matrix(0.746681, 0, 0, 0.746681, 363.682696, 16.520792)" fill="none" stroke-linejoin="miter" d="M 34.48713 14.002989 C 33.60301 12.41785 31.98125 11.04197 29.621852 9.859655 C 27.267685 8.682572 24.986759 8.091414 22.789537 8.091414 C 20.995138 8.091414 19.535555 8.567479 18.410786 9.519609 C 17.286018 10.471738 16.721018 11.936553 16.721018 13.919285 C 16.721018 15.687526 17.36449 17.178498 18.651435 18.381739 C 19.938379 19.590211 21.523518 20.479563 23.412083 21.055026 C 25.300648 21.630489 27.372315 22.352434 29.621852 23.226091 C 31.876621 24.094517 33.953519 25.025721 35.852547 26.019703 C 37.756806 27.008453 39.352408 28.55174 40.639353 30.639101 C 41.926297 32.731694 42.564538 35.253268 42.564538 38.198592 C 42.564538 41.442111 41.952455 44.240954 40.717825 46.600352 C 39.483195 48.95975 37.798658 50.780306 35.653751 52.067251 C 33.508843 53.354195 31.217454 54.295862 28.779583 54.897482 C 26.341713 55.504334 23.715509 55.802529 20.900972 55.802529 C 15.863055 55.802529 11.515693 55.096279 7.858887 53.673316 C 4.202082 52.255584 2.371063 50.393176 2.371063 48.086093 C 2.371063 46.370167 2.841896 44.999519 3.778332 43.968917 C 4.714767 42.933083 6.310369 41.813546 8.559906 40.610305 C 9.930554 42.514565 11.986527 44.115398 14.733055 45.412806 C 17.479583 46.715445 20.137175 47.364148 22.711064 47.364148 C 24.908287 47.364148 26.697454 46.841 28.078565 45.794704 C 29.454445 44.748408 30.145 43.126648 30.145 40.929426 C 30.145 38.842065 29.250417 37.16799 27.450787 35.907203 C 25.656389 34.646416 23.501018 33.631509 20.979444 32.852018 C 18.463101 32.077759 15.941527 31.157018 13.425184 30.100258 C 10.908841 29.038268 8.748239 27.270027 6.953841 24.795536 C 5.159443 22.315813 4.259628 19.129841 4.259628 15.248081 C 4.259628 12.433544 4.871711 9.990442 6.090647 7.913544 C 7.309582 5.836646 8.941804 4.204423 10.992545 3.02734 C 13.043286 1.850256 15.287592 0.98183 17.725462 0.432525 C 20.163333 -0.116781 22.815694 -0.388818 25.682546 -0.388818 C 30.186852 -0.388818 34.058149 0.265117 37.301667 1.578219 C 40.545186 2.891321 42.166945 4.727571 42.166945 7.08697 C 42.166945 8.509933 41.486853 9.854424 40.13713 11.125674 C 38.782177 12.402155 36.898843 13.359516 34.48713 14.002989 Z M 55.543845 12.192896 C 53.456483 12.192896 51.688242 11.460489 50.239122 10.000905 C 48.795233 8.541322 48.068057 6.69984 48.068057 4.47646 C 48.068057 2.331553 48.831853 0.516228 50.359446 -0.969512 C 51.887039 -2.460485 53.670974 -3.203355 55.70602 -3.203355 C 57.741067 -3.203355 59.493613 -2.460485 60.953197 -0.969512 C 62.41278 0.516228 63.145188 2.331553 63.145188 4.47646 C 63.145188 6.647525 62.370928 8.473312 60.832873 9.959053 C 59.289586 11.450026 57.526576 12.192896 55.543845 12.192896 Z M 55.70602 15.650905 C 57.798613 15.650905 59.420373 16.001415 60.571299 16.712896 C 61.722225 17.424378 62.297688 18.826415 62.297688 20.913776 C 62.297688 21.238128 62.203521 23.649841 62.015188 28.148916 C 61.832086 32.653222 61.737919 36.027527 61.737919 38.277065 C 61.737919 46.077204 62.203521 51.381927 63.145188 54.196464 C 60.838104 54.892251 58.56241 55.24276 56.307641 55.24276 C 53.712826 55.24276 51.907965 54.792853 50.90352 53.893038 C 49.899076 52.998454 49.396853 51.664427 49.396853 49.896186 C 49.396853 49.012065 49.438705 46.956093 49.517177 43.723037 C 49.59565 40.495213 49.637502 37.916092 49.637502 35.985675 C 49.637502 28.138453 49.438705 21.719424 49.035881 16.733822 C 51.123242 16.011878 53.346622 15.650905 55.70602 15.650905 Z M 74.152225 40.087157 L 74.152225 23.649841 C 71.285373 23.702156 68.83704 23.890489 66.796762 24.20961 C 66.367781 23.006369 66.15329 21.850211 66.15329 20.7516 C 66.15329 17.513313 68.381901 15.891554 72.828661 15.891554 L 73.995281 15.891554 C 73.859263 12.538174 73.686624 9.739331 73.472133 7.489794 C 75.240374 6.794007 77.249263 6.443497 79.4988 6.443497 C 80.974078 6.443497 82.140698 6.511507 82.998661 6.647525 C 83.856624 6.778312 84.677967 7.22822 85.467921 7.992016 C 86.257875 8.755812 86.655467 9.885812 86.655467 11.387248 C 86.655467 12.245211 86.576995 13.772804 86.414819 15.970026 C 92.122366 15.970026 96.652829 15.755535 100.000977 15.326554 C 100.377644 16.106044 100.560746 17.283128 100.560746 18.863035 C 100.560746 21.756045 98.938987 23.299332 95.700699 23.487665 C 93.608107 23.592295 90.458754 23.649841 86.252643 23.649841 C 86.090467 29.059193 86.011995 34.489472 86.011995 39.924981 C 86.011995 41.238083 86.038152 42.242528 86.090467 42.943546 C 86.148013 43.639333 86.294495 44.476371 86.535143 45.454658 C 86.775791 46.432945 87.210004 47.144426 87.843014 47.583871 C 88.470791 48.028547 89.281671 48.248269 90.270421 48.248269 C 93.006486 48.248269 95.203708 47.432158 96.862088 45.794704 C 99.116857 47.374611 100.241625 48.985908 100.241625 50.61813 C 100.241625 52.17188 99.294727 53.427436 97.406162 54.379566 C 95.517597 55.326464 93.247134 55.802529 90.594773 55.802529 C 84.620421 55.802529 80.38292 54.489427 77.892735 51.863223 C 75.40255 49.237019 74.152225 45.313408 74.152225 40.087157 Z M 111.290515 -6.174837 C 113.383108 -6.174837 115.004867 -5.813865 116.155793 -5.09192 C 117.306719 -4.369976 117.882182 -2.97317 117.882182 -0.911966 C 117.882182 -0.561457 117.782784 1.860719 117.583988 6.365025 C 117.37996 10.8641 117.280562 14.243637 117.280562 16.493174 L 117.280562 20.108128 C 120.738571 16.812294 124.662183 15.164378 129.056628 15.164378 C 132.781443 15.164378 135.857554 16.236831 138.284962 18.381739 C 140.707138 20.526647 141.920841 23.566138 141.920841 27.505443 C 141.920841 27.615304 141.873758 29.587573 141.779591 33.432712 C 141.685425 37.283083 141.638341 40.197018 141.638341 42.17975 C 141.638341 46.893315 142.109175 50.90063 143.04561 54.196464 C 140.686212 54.892251 138.300656 55.24276 135.888943 55.24276 C 131.494498 55.24276 129.297276 53.568686 129.297276 50.215306 C 129.297276 48.232574 129.386211 44.596695 129.55885 39.302435 C 129.73672 34.013407 129.820424 30.816971 129.820424 29.71836 C 129.820424 27.468823 129.365285 25.779054 128.455007 24.654286 C 127.544729 23.529517 126.378109 22.964517 124.960377 22.964517 C 122.653294 22.964517 120.095099 24.319471 117.280562 27.024147 C 117.390423 34.044796 117.442738 39.124565 117.442738 42.258222 C 117.442738 47.081648 117.589219 51.303454 117.882182 54.918408 C 116.061627 55.080584 114.439867 55.159056 113.022136 55.159056 C 107.52908 55.159056 104.782552 53.845955 104.782552 51.219751 C 104.782552 51.00526 104.84533 49.095769 104.981348 45.491278 C 105.117367 41.892018 105.180144 38.146277 105.180144 34.259286 L 105.180144 14.159933 C 105.180144 6.307479 104.991811 -0.106318 104.620376 -5.09192 C 106.707737 -5.813865 108.931117 -6.174837 111.290515 -6.174837 Z M 183.055983 50.377482 C 179.37302 53.997667 174.539131 55.802529 168.564778 55.802529 C 162.590426 55.802529 157.772231 53.997667 154.115426 50.377482 C 150.45862 46.762528 148.627601 41.939102 148.627601 35.907203 C 148.627601 29.582342 150.45862 24.533962 154.115426 20.7516 C 157.772231 16.97447 162.590426 15.085905 168.564778 15.085905 C 174.539131 15.085905 179.37302 16.97447 183.055983 20.7516 C 186.738946 24.533962 188.58566 29.582342 188.58566 35.907203 C 188.58566 41.939102 186.738946 46.762528 183.055983 50.377482 Z M 176.323066 37.55512 C 176.323066 33.375166 175.63251 29.896231 174.251399 27.123545 C 172.87552 24.35086 170.976492 22.964517 168.564778 22.964517 C 166.20538 22.964517 164.358667 24.089286 163.019408 26.338823 C 161.680148 28.593592 161.010519 31.55461 161.010519 35.221879 C 161.010519 38.868222 161.680148 41.881556 163.019408 44.267111 C 164.358667 46.652667 166.20538 47.845445 168.564778 47.845445 C 171.028806 47.845445 172.938297 46.898547 174.293251 45.009982 C 175.648205 43.121417 176.323066 40.636463 176.323066 37.55512 Z M 200.83779 -6.174837 C 202.930383 -6.174837 204.552142 -5.813865 205.703068 -5.09192 C 206.853994 -4.369976 207.429457 -2.97317 207.429457 -0.911966 C 207.429457 -0.561457 207.330059 1.860719 207.131263 6.365025 C 206.927235 10.8641 206.827837 14.243637 206.827837 16.493174 L 206.827837 39.040861 C 206.827837 46.276 207.29867 51.329612 208.235105 54.196464 C 205.928022 54.892251 203.652327 55.24276 201.40279 55.24276 C 198.828901 55.24276 197.034503 54.792853 196.014364 53.893038 C 194.999456 52.998454 194.486771 51.664427 194.486771 49.896186 C 194.486771 49.012065 194.528623 47.08688 194.607095 44.125861 C 194.690799 41.164842 194.727419 38.747898 194.727419 36.869796 L 194.727419 14.159933 C 194.727419 6.307479 194.539086 -0.106318 194.167651 -5.09192 C 196.255012 -5.813865 198.478392 -6.174837 200.83779 -6.174837 Z M 234.559922 15.085905 C 238.635246 15.085905 242.150802 16.095581 245.111821 18.120165 C 248.07284 20.144748 249.553349 23.163313 249.553349 27.186323 C 249.553349 35.305583 243.735941 39.365213 232.106357 39.365213 C 231.065292 39.365213 229.176727 39.312898 226.440662 39.203037 C 226.440662 42.336694 227.220153 44.617621 228.773903 46.035352 C 230.327653 47.458315 232.25807 48.164565 234.559922 48.164565 C 238.635246 48.164565 241.795061 46.851463 244.044599 44.225259 C 245.305386 44.816417 246.335988 45.622065 247.141636 46.636973 C 247.947284 47.657111 248.350108 48.687713 248.350108 49.73401 C 248.350108 51.371464 247.371821 52.684566 245.415247 53.673316 C 243.458673 54.667297 241.559645 55.268918 239.723395 55.483408 C 237.892376 55.697899 236.113672 55.802529 234.397746 55.802529 C 228.371079 55.802529 223.43256 54.14938 219.587421 50.837852 C 215.742282 47.531556 213.822328 42.472713 213.822328 35.666555 C 213.822328 31.162249 214.879087 27.306647 216.992606 24.089286 C 219.111356 20.871924 221.690477 18.570072 224.735199 17.178498 C 227.77469 15.781693 231.049598 15.085905 234.559922 15.085905 Z M 233.91645 22.886045 C 231.933718 22.886045 230.207329 23.775397 228.732051 25.559332 C 227.256773 27.338036 226.492977 29.959008 226.440662 33.417018 C 227.968255 33.307157 229.04594 33.21299 229.67895 33.134518 C 230.306727 33.050814 231.211774 32.878175 232.388857 32.61137 C 233.571172 32.344564 234.418672 31.973129 234.94182 31.507527 C 235.464968 31.036694 235.946265 30.372295 236.390941 29.514332 C 236.830385 28.656369 237.050107 27.59961 237.050107 26.338823 C 237.050107 25.48086 236.751913 24.690906 236.150293 23.968962 C 235.543441 23.247017 234.80057 22.886045 233.91645 22.886045 Z M 233.91645 22.886045 " stroke="#004aad" stroke-width="2.984223" stroke-opacity="1" stroke-miterlimit="4"/></g><g fill="#15bada" fill-opacity="1"><g transform="translate(363.682696, 57.588267)"><g><path d="M 25.75 -30.609375 C 25.09375 -31.796875 23.882812 -32.828125 22.125 -33.703125 C 20.363281 -34.585938 18.660156 -35.03125 17.015625 -35.03125 C 15.671875 -35.03125 14.578125 -34.671875 13.734375 -33.953125 C 12.898438 -33.242188 12.484375 -32.148438 12.484375 -30.671875 C 12.484375 -29.347656 12.960938 -28.234375 13.921875 -27.328125 C 14.890625 -26.429688 16.078125 -25.769531 17.484375 -25.34375 C 18.890625 -24.914062 20.429688 -24.375 22.109375 -23.71875 C 23.796875 -23.070312 25.347656 -22.378906 26.765625 -21.640625 C 28.191406 -20.898438 29.382812 -19.75 30.34375 -18.1875 C 31.300781 -16.625 31.78125 -14.742188 31.78125 -12.546875 C 31.78125 -10.128906 31.320312 -8.035156 30.40625 -6.265625 C 29.488281 -4.503906 28.226562 -3.144531 26.625 -2.1875 C 25.019531 -1.226562 23.304688 -0.523438 21.484375 -0.078125 C 19.671875 0.367188 17.710938 0.59375 15.609375 0.59375 C 11.847656 0.59375 8.597656 0.0664062 5.859375 -0.984375 C 3.128906 -2.046875 1.765625 -3.4375 1.765625 -5.15625 C 1.765625 -6.4375 2.113281 -7.460938 2.8125 -8.234375 C 3.519531 -9.003906 4.710938 -9.84375 6.390625 -10.75 C 7.410156 -9.320312 8.945312 -8.125 11 -7.15625 C 13.050781 -6.1875 15.035156 -5.703125 16.953125 -5.703125 C 18.597656 -5.703125 19.9375 -6.09375 20.96875 -6.875 C 22 -7.65625 22.515625 -8.863281 22.515625 -10.5 C 22.515625 -12.0625 21.84375 -13.3125 20.5 -14.25 C 19.15625 -15.195312 17.539062 -15.957031 15.65625 -16.53125 C 13.78125 -17.113281 11.898438 -17.800781 10.015625 -18.59375 C 8.140625 -19.382812 6.53125 -20.703125 5.1875 -22.546875 C 3.851562 -24.398438 3.1875 -26.78125 3.1875 -29.6875 C 3.1875 -31.78125 3.640625 -33.601562 4.546875 -35.15625 C 5.453125 -36.707031 6.671875 -37.921875 8.203125 -38.796875 C 9.734375 -39.679688 11.410156 -40.328125 13.234375 -40.734375 C 15.054688 -41.148438 17.035156 -41.359375 19.171875 -41.359375 C 22.535156 -41.359375 25.425781 -40.867188 27.84375 -39.890625 C 30.269531 -38.910156 31.484375 -37.539062 31.484375 -35.78125 C 31.484375 -34.71875 30.976562 -33.707031 29.96875 -32.75 C 28.957031 -31.800781 27.550781 -31.085938 25.75 -30.609375 Z M 25.75 -30.609375 "/></g></g></g><g fill="#15bada" fill-opacity="1"><g transform="translate(397.294295, 57.588267)"><g><path d="M 7.859375 -31.96875 C 6.296875 -31.96875 4.972656 -32.507812 3.890625 -33.59375 C 2.816406 -34.6875 2.28125 -36.066406 2.28125 -37.734375 C 2.28125 -39.328125 2.847656 -40.675781 3.984375 -41.78125 C 5.128906 -42.894531 6.460938 -43.453125 7.984375 -43.453125 C 9.503906 -43.453125 10.804688 -42.894531 11.890625 -41.78125 C 12.984375 -40.675781 13.53125 -39.328125 13.53125 -37.734375 C 13.53125 -36.109375 12.953125 -34.738281 11.796875 -33.625 C 10.648438 -32.519531 9.335938 -31.96875 7.859375 -31.96875 Z M 7.984375 -29.390625 C 9.546875 -29.390625 10.753906 -29.125 11.609375 -28.59375 C 12.472656 -28.0625 12.90625 -27.015625 12.90625 -25.453125 C 12.90625 -25.210938 12.832031 -23.410156 12.6875 -20.046875 C 12.550781 -16.679688 12.484375 -14.160156 12.484375 -12.484375 C 12.484375 -6.660156 12.832031 -2.695312 13.53125 -0.59375 C 11.8125 -0.0703125 10.113281 0.1875 8.4375 0.1875 C 6.488281 0.1875 5.140625 -0.144531 4.390625 -0.8125 C 3.640625 -1.488281 3.265625 -2.488281 3.265625 -3.8125 C 3.265625 -4.46875 3.296875 -6 3.359375 -8.40625 C 3.421875 -10.820312 3.453125 -12.753906 3.453125 -14.203125 C 3.453125 -20.054688 3.300781 -24.847656 3 -28.578125 C 4.5625 -29.117188 6.222656 -29.390625 7.984375 -29.390625 Z M 7.984375 -29.390625 "/></g></g></g><g fill="#15bada" fill-opacity="1"><g transform="translate(413.079743, 57.588267)"><g><path d="M 5.96875 -11.140625 L 5.96875 -23.40625 C 3.832031 -23.363281 2.003906 -23.222656 0.484375 -22.984375 C 0.160156 -23.890625 0 -24.753906 0 -25.578125 C 0 -27.992188 1.660156 -29.203125 4.984375 -29.203125 L 5.859375 -29.203125 C 5.753906 -31.703125 5.625 -33.796875 5.46875 -35.484375 C 6.78125 -35.992188 8.28125 -36.25 9.96875 -36.25 C 11.0625 -36.25 11.925781 -36.195312 12.5625 -36.09375 C 13.207031 -36 13.828125 -35.664062 14.421875 -35.09375 C 15.015625 -34.53125 15.3125 -33.6875 15.3125 -32.5625 C 15.3125 -31.925781 15.25 -30.785156 15.125 -29.140625 C 19.382812 -29.140625 22.765625 -29.300781 25.265625 -29.625 C 25.546875 -29.039062 25.6875 -28.160156 25.6875 -26.984375 C 25.6875 -24.816406 24.476562 -23.664062 22.0625 -23.53125 C 20.5 -23.445312 18.144531 -23.40625 15 -23.40625 C 14.882812 -19.363281 14.828125 -15.3125 14.828125 -11.25 C 14.828125 -10.269531 14.847656 -9.519531 14.890625 -9 C 14.929688 -8.476562 15.039062 -7.851562 15.21875 -7.125 C 15.394531 -6.394531 15.71875 -5.863281 16.1875 -5.53125 C 16.65625 -5.207031 17.265625 -5.046875 18.015625 -5.046875 C 20.046875 -5.046875 21.6875 -5.65625 22.9375 -6.875 C 24.613281 -5.695312 25.453125 -4.492188 25.453125 -3.265625 C 25.453125 -2.109375 24.742188 -1.175781 23.328125 -0.46875 C 21.921875 0.238281 20.226562 0.59375 18.25 0.59375 C 13.789062 0.59375 10.628906 -0.382812 8.765625 -2.34375 C 6.898438 -4.300781 5.96875 -7.234375 5.96875 -11.140625 Z M 5.96875 -11.140625 "/></g></g></g><g fill="#15bada" fill-opacity="1"><g transform="translate(439.398825, 57.588267)"><g><path d="M 7.390625 -45.6875 C 8.941406 -45.6875 10.148438 -45.414062 11.015625 -44.875 C 11.878906 -44.332031 12.3125 -43.289062 12.3125 -41.75 C 12.3125 -41.488281 12.234375 -39.675781 12.078125 -36.3125 C 11.929688 -32.957031 11.859375 -30.4375 11.859375 -28.75 L 11.859375 -26.046875 C 14.441406 -28.515625 17.375 -29.75 20.65625 -29.75 C 23.4375 -29.75 25.726562 -28.945312 27.53125 -27.34375 C 29.34375 -25.738281 30.25 -23.46875 30.25 -20.53125 C 30.25 -20.445312 30.210938 -18.96875 30.140625 -16.09375 C 30.078125 -13.226562 30.046875 -11.054688 30.046875 -9.578125 C 30.046875 -6.054688 30.394531 -3.0625 31.09375 -0.59375 C 29.332031 -0.0703125 27.550781 0.1875 25.75 0.1875 C 22.46875 0.1875 20.828125 -1.066406 20.828125 -3.578125 C 20.828125 -5.054688 20.890625 -7.769531 21.015625 -11.71875 C 21.148438 -15.664062 21.21875 -18.050781 21.21875 -18.875 C 21.21875 -20.5625 20.875 -21.820312 20.1875 -22.65625 C 19.507812 -23.5 18.644531 -23.921875 17.59375 -23.921875 C 15.863281 -23.921875 13.953125 -22.910156 11.859375 -20.890625 C 11.929688 -15.648438 11.96875 -11.859375 11.96875 -9.515625 C 11.96875 -5.910156 12.082031 -2.757812 12.3125 -0.0625 C 10.945312 0.0625 9.734375 0.125 8.671875 0.125 C 4.566406 0.125 2.515625 -0.859375 2.515625 -2.828125 C 2.515625 -2.984375 2.566406 -4.40625 2.671875 -7.09375 C 2.773438 -9.789062 2.828125 -12.585938 2.828125 -15.484375 L 2.828125 -30.5 C 2.828125 -36.351562 2.6875 -41.144531 2.40625 -44.875 C 3.96875 -45.414062 5.628906 -45.6875 7.390625 -45.6875 Z M 7.390625 -45.6875 "/></g></g></g><g fill="#15bada" fill-opacity="1"><g transform="translate(472.890382, 57.588267)"><g><path d="M 27.46875 -3.453125 C 24.71875 -0.753906 21.113281 0.59375 16.65625 0.59375 C 12.195312 0.59375 8.597656 -0.753906 5.859375 -3.453125 C 3.128906 -6.148438 1.765625 -9.75 1.765625 -14.25 C 1.765625 -18.976562 3.128906 -22.75 5.859375 -25.5625 C 8.597656 -28.382812 12.195312 -29.796875 16.65625 -29.796875 C 21.113281 -29.796875 24.71875 -28.382812 27.46875 -25.5625 C 30.226562 -22.75 31.609375 -18.976562 31.609375 -14.25 C 31.609375 -9.75 30.226562 -6.148438 27.46875 -3.453125 Z M 22.453125 -13.03125 C 22.453125 -16.144531 21.9375 -18.738281 20.90625 -20.8125 C 19.875 -22.882812 18.457031 -23.921875 16.65625 -23.921875 C 14.894531 -23.921875 13.515625 -23.078125 12.515625 -21.390625 C 11.515625 -19.710938 11.015625 -17.503906 11.015625 -14.765625 C 11.015625 -12.046875 11.515625 -9.796875 12.515625 -8.015625 C 13.515625 -6.234375 14.894531 -5.34375 16.65625 -5.34375 C 18.5 -5.34375 19.925781 -6.046875 20.9375 -7.453125 C 21.945312 -8.867188 22.453125 -10.726562 22.453125 -13.03125 Z M 22.453125 -13.03125 "/></g></g></g><g fill="#15bada" fill-opacity="1"><g transform="translate(506.261898, 57.588267)"><g><path d="M 7.390625 -45.6875 C 8.941406 -45.6875 10.148438 -45.414062 11.015625 -44.875 C 11.878906 -44.332031 12.3125 -43.289062 12.3125 -41.75 C 12.3125 -41.488281 12.234375 -39.675781 12.078125 -36.3125 C 11.929688 -32.957031 11.859375 -30.4375 11.859375 -28.75 L 11.859375 -11.921875 C 11.859375 -6.515625 12.207031 -2.738281 12.90625 -0.59375 C 11.1875 -0.0703125 9.484375 0.1875 7.796875 0.1875 C 5.878906 0.1875 4.539062 -0.144531 3.78125 -0.8125 C 3.019531 -1.488281 2.640625 -2.488281 2.640625 -3.8125 C 2.640625 -4.46875 2.671875 -5.898438 2.734375 -8.109375 C 2.796875 -10.328125 2.828125 -12.132812 2.828125 -13.53125 L 2.828125 -30.5 C 2.828125 -36.351562 2.6875 -41.144531 2.40625 -44.875 C 3.96875 -45.414062 5.628906 -45.6875 7.390625 -45.6875 Z M 7.390625 -45.6875 "/></g></g></g><g fill="#15bada" fill-opacity="1"><g transform="translate(521.56718, 57.588267)"><g><path d="M 17.265625 -29.796875 C 20.296875 -29.796875 22.914062 -29.039062 25.125 -27.53125 C 27.34375 -26.019531 28.453125 -23.765625 28.453125 -20.765625 C 28.453125 -14.703125 24.109375 -11.671875 15.421875 -11.671875 C 14.640625 -11.671875 13.226562 -11.710938 11.1875 -11.796875 C 11.1875 -9.453125 11.765625 -7.75 12.921875 -6.6875 C 14.085938 -5.632812 15.535156 -5.109375 17.265625 -5.109375 C 20.296875 -5.109375 22.65625 -6.085938 24.34375 -8.046875 C 25.28125 -7.609375 26.046875 -7.007812 26.640625 -6.25 C 27.242188 -5.488281 27.546875 -4.71875 27.546875 -3.9375 C 27.546875 -2.707031 26.816406 -1.722656 25.359375 -0.984375 C 23.898438 -0.242188 22.484375 0.203125 21.109375 0.359375 C 19.742188 0.515625 18.421875 0.59375 17.140625 0.59375 C 12.640625 0.59375 8.953125 -0.640625 6.078125 -3.109375 C 3.203125 -5.578125 1.765625 -9.351562 1.765625 -14.4375 C 1.765625 -17.800781 2.554688 -20.679688 4.140625 -23.078125 C 5.722656 -25.484375 7.648438 -27.203125 9.921875 -28.234375 C 12.191406 -29.273438 14.640625 -29.796875 17.265625 -29.796875 Z M 16.78125 -23.984375 C 15.300781 -23.984375 14.007812 -23.316406 12.90625 -21.984375 C 11.800781 -20.648438 11.226562 -18.695312 11.1875 -16.125 C 12.332031 -16.195312 13.140625 -16.265625 13.609375 -16.328125 C 14.078125 -16.390625 14.75 -16.519531 15.625 -16.71875 C 16.507812 -16.914062 17.144531 -17.1875 17.53125 -17.53125 C 17.925781 -17.882812 18.289062 -18.378906 18.625 -19.015625 C 18.957031 -19.660156 19.125 -20.457031 19.125 -21.40625 C 19.125 -22.039062 18.894531 -22.628906 18.4375 -23.171875 C 17.988281 -23.710938 17.4375 -23.984375 16.78125 -23.984375 Z M 16.78125 -23.984375 "/></g></g></g><g fill="#ffffff" fill-opacity="1"><g transform="translate(183.252835, 93.677797)"><g><path d="M 12.09375 0.34375 C 8.832031 0.34375 6.175781 -0.722656 4.125 -2.859375 C 2.070312 -4.992188 1.046875 -8.109375 1.046875 -12.203125 C 1.046875 -16.304688 2.082031 -19.410156 4.15625 -21.515625 C 6.238281 -23.628906 8.921875 -24.6875 12.203125 -24.6875 C 15.492188 -24.6875 18.148438 -23.644531 20.171875 -21.5625 C 22.191406 -19.488281 23.203125 -16.34375 23.203125 -12.125 C 23.203125 -7.914062 22.164062 -4.785156 20.09375 -2.734375 C 18.03125 -0.679688 15.363281 0.34375 12.09375 0.34375 Z M 12.125 -18 C 11.007812 -18 10.070312 -17.488281 9.3125 -16.46875 C 8.5625 -15.445312 8.1875 -14.015625 8.1875 -12.171875 C 8.1875 -10.328125 8.546875 -8.910156 9.265625 -7.921875 C 9.984375 -6.929688 10.925781 -6.4375 12.09375 -6.4375 C 13.269531 -6.4375 14.222656 -6.9375 14.953125 -7.9375 C 15.691406 -8.9375 16.0625 -10.363281 16.0625 -12.21875 C 16.0625 -14.082031 15.679688 -15.507812 14.921875 -16.5 C 14.171875 -17.5 13.238281 -18 12.125 -18 Z M 12.125 -18 "/></g></g></g><g fill="#ffffff" fill-opacity="1"><g transform="translate(207.875115, 93.677797)"><g><path d="M 4.765625 0.0625 C 2.660156 0.0625 1.609375 -0.164062 1.609375 -0.625 L 1.609375 -23.203125 C 1.609375 -23.984375 1.96875 -24.375 2.6875 -24.375 L 8.8125 -24.375 C 12.25 -24.375 14.726562 -23.664062 16.25 -22.25 C 17.769531 -20.832031 18.53125 -18.78125 18.53125 -16.09375 C 18.53125 -13.863281 17.8125 -11.816406 16.375 -9.953125 C 15.65625 -9.023438 14.597656 -8.28125 13.203125 -7.71875 C 11.804688 -7.164062 10.179688 -6.890625 8.328125 -6.890625 L 8.328125 -0.65625 C 8.328125 -0.382812 7.890625 -0.195312 7.015625 -0.09375 C 6.148438 0.0078125 5.398438 0.0625 4.765625 0.0625 Z M 8.328125 -18.3125 L 8.328125 -12.8125 L 8.78125 -12.8125 C 9.59375 -12.8125 10.273438 -13.066406 10.828125 -13.578125 C 11.390625 -14.085938 11.671875 -14.804688 11.671875 -15.734375 C 11.671875 -16.671875 11.476562 -17.332031 11.09375 -17.71875 C 10.707031 -18.113281 10.03125 -18.3125 9.0625 -18.3125 Z M 8.328125 -18.3125 "/></g></g></g><g fill="#ffffff" fill-opacity="1"><g transform="translate(228.109295, 93.677797)"><g><path d="M 20.6875 -0.59375 C 20.6875 -0.195312 19.515625 0 17.171875 0 C 14.828125 0 13.65625 -0.195312 13.65625 -0.59375 L 13.65625 -8.609375 L 8.78125 -8.609375 L 8.78125 -0.59375 C 8.78125 -0.195312 7.601562 0 5.25 0 C 2.90625 0 1.734375 -0.195312 1.734375 -0.59375 L 1.734375 -23.6875 C 1.734375 -24.175781 2.90625 -24.421875 5.25 -24.421875 C 7.601562 -24.421875 8.78125 -24.175781 8.78125 -23.6875 L 8.78125 -15.5 L 13.65625 -15.5 L 13.65625 -23.609375 C 13.65625 -23.929688 14.234375 -24.164062 15.390625 -24.3125 C 15.992188 -24.351562 16.585938 -24.375 17.171875 -24.375 L 18.953125 -24.3125 C 20.109375 -24.164062 20.6875 -23.929688 20.6875 -23.609375 Z M 20.6875 -0.59375 "/></g></g></g><g fill="#ffffff" fill-opacity="1"><g transform="translate(250.920608, 93.677797)"><g><path d="M 12.21875 -0.5625 C 12.21875 -0.09375 11.066406 0.140625 8.765625 0.140625 C 6.472656 0.140625 5.328125 -0.09375 5.328125 -0.5625 L 5.328125 -18.046875 L 1.15625 -18.046875 C 0.757812 -18.046875 0.476562 -18.578125 0.3125 -19.640625 C 0.238281 -20.148438 0.203125 -20.671875 0.203125 -21.203125 C 0.203125 -21.742188 0.238281 -22.269531 0.3125 -22.78125 C 0.476562 -23.84375 0.757812 -24.375 1.15625 -24.375 L 16.296875 -24.375 C 16.691406 -24.375 16.972656 -23.84375 17.140625 -22.78125 C 17.203125 -22.269531 17.234375 -21.742188 17.234375 -21.203125 C 17.234375 -20.671875 17.203125 -20.148438 17.140625 -19.640625 C 16.972656 -18.578125 16.691406 -18.046875 16.296875 -18.046875 L 12.21875 -18.046875 Z M 12.21875 -0.5625 "/></g></g></g><g fill="#ffffff" fill-opacity="1"><g transform="translate(268.7866, 93.677797)"><g><path d="M 20.6875 -0.59375 C 20.6875 -0.195312 19.515625 0 17.171875 0 C 14.828125 0 13.65625 -0.195312 13.65625 -0.59375 L 13.65625 -8.609375 L 8.78125 -8.609375 L 8.78125 -0.59375 C 8.78125 -0.195312 7.601562 0 5.25 0 C 2.90625 0 1.734375 -0.195312 1.734375 -0.59375 L 1.734375 -23.6875 C 1.734375 -24.175781 2.90625 -24.421875 5.25 -24.421875 C 7.601562 -24.421875 8.78125 -24.175781 8.78125 -23.6875 L 8.78125 -15.5 L 13.65625 -15.5 L 13.65625 -23.609375 C 13.65625 -23.929688 14.234375 -24.164062 15.390625 -24.3125 C 15.992188 -24.351562 16.585938 -24.375 17.171875 -24.375 L 18.953125 -24.3125 C 20.109375 -24.164062 20.6875 -23.929688 20.6875 -23.609375 Z M 20.6875 -0.59375 "/></g></g></g><g fill="#ffffff" fill-opacity="1"><g transform="translate(291.597913, 93.677797)"><g><path d="M 18.109375 0.0625 C 16.085938 0.0625 15 -0.257812 14.84375 -0.90625 L 13.6875 -5.390625 L 8.15625 -5.390625 L 7.140625 -1.078125 C 7.003906 -0.359375 5.890625 0 3.796875 0 C 2.679688 0 1.851562 -0.0625 1.3125 -0.1875 C 0.78125 -0.320312 0.515625 -0.421875 0.515625 -0.484375 L 6.6875 -24.0625 C 6.6875 -24.25 8.273438 -24.34375 11.453125 -24.34375 C 14.640625 -24.34375 16.234375 -24.25 16.234375 -24.0625 L 22.25 -0.453125 C 22.25 -0.285156 21.710938 -0.15625 20.640625 -0.0625 C 19.578125 0.0195312 18.734375 0.0625 18.109375 0.0625 Z M 9.015625 -9.828125 L 12.671875 -9.828125 L 11.109375 -17.03125 L 10.90625 -17.03125 Z M 9.015625 -9.828125 "/></g></g></g><g fill="#ffffff" fill-opacity="1"><g transform="translate(314.792321, 93.677797)"><g><path d="M 1.390625 -2.0625 L 1.390625 -23.71875 C 1.390625 -24.207031 2.566406 -24.453125 4.921875 -24.453125 C 7.285156 -24.453125 8.46875 -24.207031 8.46875 -23.71875 L 8.46875 -6.65625 L 13.828125 -6.65625 C 14.242188 -6.65625 14.535156 -6.109375 14.703125 -5.015625 C 14.765625 -4.484375 14.796875 -3.9375 14.796875 -3.375 C 14.796875 -2.820312 14.765625 -2.253906 14.703125 -1.671875 C 14.515625 -0.554688 14.210938 0 13.796875 0 L 3.0625 0 C 2.550781 0 2.144531 -0.207031 1.84375 -0.625 C 1.539062 -1.039062 1.390625 -1.519531 1.390625 -2.0625 Z M 1.390625 -2.0625 "/></g></g></g><g fill="#ffffff" fill-opacity="1"><g transform="translate(330.324963, 93.677797)"><g><path d="M 26.125 0.03125 C 24.050781 0.03125 23.015625 -0.195312 23.015625 -0.65625 L 22.296875 -14.625 L 18.046875 -0.484375 C 17.953125 -0.203125 17.160156 -0.0625 15.671875 -0.0625 C 14.179688 -0.0625 13.414062 -0.191406 13.375 -0.453125 L 8.984375 -14.765625 L 8.5 -0.875 C 8.476562 -0.519531 8.035156 -0.28125 7.171875 -0.15625 C 6.316406 -0.03125 5.601562 0.03125 5.03125 0.03125 C 4.457031 0.03125 3.90625 0 3.375 -0.0625 C 2.257812 -0.226562 1.710938 -0.519531 1.734375 -0.9375 L 2.546875 -23.578125 C 2.546875 -24.140625 3.960938 -24.421875 6.796875 -24.421875 C 7.628906 -24.421875 8.648438 -24.351562 9.859375 -24.21875 C 11.066406 -24.09375 11.738281 -23.84375 11.875 -23.46875 L 15.78125 -12.5 L 19.1875 -23.515625 C 19.394531 -24.117188 21 -24.421875 24 -24.421875 C 24.851562 -24.421875 25.878906 -24.351562 27.078125 -24.21875 C 28.273438 -24.09375 28.875 -23.867188 28.875 -23.546875 L 29.875 -0.703125 C 29.875 -0.441406 29.421875 -0.253906 28.515625 -0.140625 C 27.617188 -0.0234375 26.820312 0.03125 26.125 0.03125 Z M 26.125 0.03125 "/></g></g></g><g fill="#ffffff" fill-opacity="1"><g transform="translate(362.295571, 93.677797)"><g><path d="M 12.09375 0.34375 C 8.832031 0.34375 6.175781 -0.722656 4.125 -2.859375 C 2.070312 -4.992188 1.046875 -8.109375 1.046875 -12.203125 C 1.046875 -16.304688 2.082031 -19.410156 4.15625 -21.515625 C 6.238281 -23.628906 8.921875 -24.6875 12.203125 -24.6875 C 15.492188 -24.6875 18.148438 -23.644531 20.171875 -21.5625 C 22.191406 -19.488281 23.203125 -16.34375 23.203125 -12.125 C 23.203125 -7.914062 22.164062 -4.785156 20.09375 -2.734375 C 18.03125 -0.679688 15.363281 0.34375 12.09375 0.34375 Z M 12.125 -18 C 11.007812 -18 10.070312 -17.488281 9.3125 -16.46875 C 8.5625 -15.445312 8.1875 -14.015625 8.1875 -12.171875 C 8.1875 -10.328125 8.546875 -8.910156 9.265625 -7.921875 C 9.984375 -6.929688 10.925781 -6.4375 12.09375 -6.4375 C 13.269531 -6.4375 14.222656 -6.9375 14.953125 -7.9375 C 15.691406 -8.9375 16.0625 -10.363281 16.0625 -12.21875 C 16.0625 -14.082031 15.679688 -15.507812 14.921875 -16.5 C 14.171875 -17.5 13.238281 -18 12.125 -18 Z M 12.125 -18 "/></g></g></g><g fill="#ffffff" fill-opacity="1"><g transform="translate(386.917839, 93.677797)"><g><path d="M 1.390625 -2.0625 L 1.390625 -23.71875 C 1.390625 -24.207031 2.566406 -24.453125 4.921875 -24.453125 C 7.285156 -24.453125 8.46875 -24.207031 8.46875 -23.71875 L 8.46875 -6.65625 L 13.828125 -6.65625 C 14.242188 -6.65625 14.535156 -6.109375 14.703125 -5.015625 C 14.765625 -4.484375 14.796875 -3.9375 14.796875 -3.375 C 14.796875 -2.820312 14.765625 -2.253906 14.703125 -1.671875 C 14.515625 -0.554688 14.210938 0 13.796875 0 L 3.0625 0 C 2.550781 0 2.144531 -0.207031 1.84375 -0.625 C 1.539062 -1.039062 1.390625 -1.519531 1.390625 -2.0625 Z M 1.390625 -2.0625 "/></g></g></g><g fill="#ffffff" fill-opacity="1"><g transform="translate(402.450481, 93.677797)"><g><path d="M 12.09375 0.34375 C 8.832031 0.34375 6.175781 -0.722656 4.125 -2.859375 C 2.070312 -4.992188 1.046875 -8.109375 1.046875 -12.203125 C 1.046875 -16.304688 2.082031 -19.410156 4.15625 -21.515625 C 6.238281 -23.628906 8.921875 -24.6875 12.203125 -24.6875 C 15.492188 -24.6875 18.148438 -23.644531 20.171875 -21.5625 C 22.191406 -19.488281 23.203125 -16.34375 23.203125 -12.125 C 23.203125 -7.914062 22.164062 -4.785156 20.09375 -2.734375 C 18.03125 -0.679688 15.363281 0.34375 12.09375 0.34375 Z M 12.125 -18 C 11.007812 -18 10.070312 -17.488281 9.3125 -16.46875 C 8.5625 -15.445312 8.1875 -14.015625 8.1875 -12.171875 C 8.1875 -10.328125 8.546875 -8.910156 9.265625 -7.921875 C 9.984375 -6.929688 10.925781 -6.4375 12.09375 -6.4375 C 13.269531 -6.4375 14.222656 -6.9375 14.953125 -7.9375 C 15.691406 -8.9375 16.0625 -10.363281 16.0625 -12.21875 C 16.0625 -14.082031 15.679688 -15.507812 14.921875 -16.5 C 14.171875 -17.5 13.238281 -18 12.125 -18 Z M 12.125 -18 "/></g></g></g><g fill="#ffffff" fill-opacity="1"><g transform="translate(427.072749, 93.677797)"><g><path d="M 14.625 -7.28125 L 14.703125 -12.015625 C 14.703125 -12.335938 15.035156 -12.550781 15.703125 -12.65625 C 16.378906 -12.757812 16.9375 -12.8125 17.375 -12.8125 L 18.734375 -12.71875 C 19.617188 -12.570312 20.0625 -12.328125 20.0625 -11.984375 L 19.921875 -1.078125 C 19.453125 -0.753906 18.515625 -0.4375 17.109375 -0.125 C 15.710938 0.1875 14.109375 0.34375 12.296875 0.34375 C 8.929688 0.34375 6.210938 -0.742188 4.140625 -2.921875 C 2.078125 -5.109375 1.046875 -8.3125 1.046875 -12.53125 C 1.046875 -16.132812 2.054688 -19.0625 4.078125 -21.3125 C 6.097656 -23.5625 8.894531 -24.6875 12.46875 -24.6875 C 14.09375 -24.6875 15.5625 -24.53125 16.875 -24.21875 C 18.1875 -23.90625 19.085938 -23.484375 19.578125 -22.953125 C 19.597656 -22.765625 19.609375 -22.414062 19.609375 -21.90625 C 19.609375 -21.394531 19.429688 -20.664062 19.078125 -19.71875 C 18.734375 -18.78125 18.335938 -18.078125 17.890625 -17.609375 C 17.453125 -17.148438 17.132812 -16.921875 16.9375 -16.921875 C 16.738281 -16.921875 16.53125 -17.007812 16.3125 -17.1875 C 16.09375 -17.363281 15.65625 -17.550781 15 -17.75 C 14.351562 -17.945312 13.726562 -18.046875 13.125 -18.046875 C 11.6875 -18.046875 10.519531 -17.578125 9.625 -16.640625 C 8.738281 -15.710938 8.296875 -14.273438 8.296875 -12.328125 C 8.296875 -10.378906 8.753906 -8.898438 9.671875 -7.890625 C 10.585938 -6.878906 11.640625 -6.375 12.828125 -6.375 C 14.023438 -6.375 14.625 -6.675781 14.625 -7.28125 Z M 14.625 -7.28125 "/></g></g></g><g fill="#ffffff" fill-opacity="1"><g transform="translate(449.083069, 93.677797)"><g><path d="M 4.046875 -5.984375 L 4.046875 -18.390625 L 1.5625 -18.390625 C 1.164062 -18.390625 0.890625 -18.890625 0.734375 -19.890625 C 0.660156 -20.378906 0.625 -20.878906 0.625 -21.390625 C 0.625 -21.898438 0.660156 -22.394531 0.734375 -22.875 C 0.890625 -23.875 1.164062 -24.375 1.5625 -24.375 L 13.265625 -24.375 C 13.660156 -24.375 13.929688 -23.875 14.078125 -22.875 C 14.160156 -22.394531 14.203125 -21.898438 14.203125 -21.390625 C 14.203125 -20.878906 14.160156 -20.378906 14.078125 -19.890625 C 13.929688 -18.890625 13.660156 -18.390625 13.265625 -18.390625 L 10.9375 -18.390625 L 10.9375 -5.984375 L 13.375 -5.984375 C 13.769531 -5.984375 14.046875 -5.488281 14.203125 -4.5 C 14.296875 -4.007812 14.34375 -3.507812 14.34375 -3 C 14.34375 -2.488281 14.296875 -1.988281 14.203125 -1.5 C 14.046875 -0.5 13.769531 0 13.375 0 L 1.640625 0 C 1.242188 0 0.972656 -0.5 0.828125 -1.5 C 0.742188 -1.988281 0.703125 -2.488281 0.703125 -3 C 0.703125 -3.507812 0.742188 -4.007812 0.828125 -4.5 C 0.972656 -5.488281 1.242188 -5.984375 1.640625 -5.984375 Z M 4.046875 -5.984375 "/></g></g></g><g fill="#ffffff" fill-opacity="1"><g transform="translate(464.406767, 93.677797)"><g><path d="M 2.640625 -8.5 C 3.085938 -8.144531 3.847656 -7.664062 4.921875 -7.0625 C 6.003906 -6.46875 7.039062 -6.171875 8.03125 -6.171875 C 9.019531 -6.171875 9.515625 -6.550781 9.515625 -7.3125 C 9.515625 -7.664062 9.375 -7.972656 9.09375 -8.234375 C 8.8125 -8.503906 8.296875 -8.8125 7.546875 -9.15625 C 6.804688 -9.507812 6.25 -9.785156 5.875 -9.984375 C 5.507812 -10.179688 5.019531 -10.503906 4.40625 -10.953125 C 3.789062 -11.398438 3.320312 -11.867188 3 -12.359375 C 2.070312 -13.679688 1.609375 -15.363281 1.609375 -17.40625 C 1.609375 -19.457031 2.367188 -21.179688 3.890625 -22.578125 C 5.410156 -23.984375 7.398438 -24.6875 9.859375 -24.6875 C 11.523438 -24.6875 13.066406 -24.503906 14.484375 -24.140625 C 15.898438 -23.785156 16.632812 -23.320312 16.6875 -22.75 C 16.6875 -22.675781 16.6875 -22.601562 16.6875 -22.53125 C 16.6875 -21.71875 16.429688 -20.691406 15.921875 -19.453125 C 15.410156 -18.210938 15.050781 -17.519531 14.84375 -17.375 C 13.351562 -18.144531 12.019531 -18.53125 10.84375 -18.53125 C 9.675781 -18.53125 9.09375 -18.113281 9.09375 -17.28125 C 9.09375 -16.769531 9.519531 -16.316406 10.375 -15.921875 C 10.5625 -15.828125 10.828125 -15.695312 11.171875 -15.53125 C 11.523438 -15.375 11.925781 -15.179688 12.375 -14.953125 C 12.832031 -14.734375 13.320312 -14.457031 13.84375 -14.125 C 14.363281 -13.789062 14.925781 -13.34375 15.53125 -12.78125 C 16.757812 -11.625 17.375 -10.09375 17.375 -8.1875 C 17.375 -5.695312 16.6875 -3.660156 15.3125 -2.078125 C 13.945312 -0.503906 11.835938 0.300781 8.984375 0.34375 C 7.585938 0.34375 6.328125 0.226562 5.203125 0 C 4.078125 -0.226562 3.097656 -0.679688 2.265625 -1.359375 C 1.429688 -2.035156 1.015625 -2.847656 1.015625 -3.796875 C 1.015625 -4.742188 1.1875 -5.6875 1.53125 -6.625 C 1.882812 -7.570312 2.253906 -8.195312 2.640625 -8.5 Z M 2.640625 -8.5 "/></g></g></g><g fill="#ffffff" fill-opacity="1"><g transform="translate(483.282719, 93.677797)"><g><path d="M 12.21875 -0.5625 C 12.21875 -0.09375 11.066406 0.140625 8.765625 0.140625 C 6.472656 0.140625 5.328125 -0.09375 5.328125 -0.5625 L 5.328125 -18.046875 L 1.15625 -18.046875 C 0.757812 -18.046875 0.476562 -18.578125 0.3125 -19.640625 C 0.238281 -20.148438 0.203125 -20.671875 0.203125 -21.203125 C 0.203125 -21.742188 0.238281 -22.269531 0.3125 -22.78125 C 0.476562 -23.84375 0.757812 -24.375 1.15625 -24.375 L 16.296875 -24.375 C 16.691406 -24.375 16.972656 -23.84375 17.140625 -22.78125 C 17.203125 -22.269531 17.234375 -21.742188 17.234375 -21.203125 C 17.234375 -20.671875 17.203125 -20.148438 17.140625 -19.640625 C 16.972656 -18.578125 16.691406 -18.046875 16.296875 -18.046875 L 12.21875 -18.046875 Z M 12.21875 -0.5625 "/></g></g></g><g clip-path="url(#9a3fd45e12)"><path fill="#15bada" d="M 142.707031 92.304688 C 140.402344 89.695312 139.007812 86.269531 139.007812 82.519531 C 139.007812 78.769531 140.402344 75.34375 142.707031 72.734375 C 141.761719 73.113281 140.847656 73.542969 139.96875 74.015625 C 136.085938 76.097656 132.855469 79.03125 130.609375 82.519531 C 132.855469 86.007812 136.085938 88.941406 139.96875 91.023438 C 140.847656 91.496094 141.761719 91.925781 142.707031 92.304688 Z M 142.707031 92.304688 " fill-opacity="1" fill-rule="nonzero"/></g><g clip-path="url(#0624b168a7)"><path fill="#15bada" d="M 164.902344 72.734375 C 167.207031 75.34375 168.601562 78.769531 168.601562 82.519531 C 168.601562 86.269531 167.207031 89.695312 164.902344 92.304688 C 165.847656 91.925781 166.761719 91.496094 167.640625 91.023438 C 171.523438 88.941406 174.753906 86.007812 177 82.519531 C 174.753906 79.03125 171.523438 76.097656 167.640625 74.015625 C 166.761719 73.542969 165.847656 73.113281 164.902344 72.734375 Z M 164.902344 72.734375 " fill-opacity="1" fill-rule="nonzero"/></g><g clip-path="url(#41f6667647)"><path fill="#004aad" d="M 157.730469 79.726562 C 158.453125 79.726562 159.035156 80.3125 159.035156 81.035156 C 159.035156 81.757812 158.453125 82.34375 157.730469 82.34375 C 157.007812 82.34375 156.421875 81.757812 156.421875 81.035156 C 156.421875 80.3125 157.007812 79.726562 157.730469 79.726562 Z M 153.804688 71.628906 C 155.953125 71.628906 157.957031 72.25 159.644531 73.324219 C 158.679688 73.703125 157.996094 74.640625 157.996094 75.742188 C 157.996094 77.171875 159.152344 78.332031 160.582031 78.332031 C 161.683594 78.332031 162.621094 77.644531 163 76.679688 C 164.074219 78.367188 164.695312 80.371094 164.695312 82.519531 C 164.695312 88.535156 159.820312 93.410156 153.804688 93.410156 C 147.789062 93.410156 142.914062 88.535156 142.914062 82.519531 C 142.914062 76.503906 147.789062 71.628906 153.804688 71.628906 Z M 153.804688 71.628906 " fill-opacity="1" fill-rule="evenodd"/></g></svg>